<?xml version="1.0" encoding="UTF-8" standalone="no"?>
<svg width="160px" height="186px" viewBox="0 0 160 186" version="1.1" xmlns="http://www.w3.org/2000/svg" xmlns:xlink="http://www.w3.org/1999/xlink" xmlns:sketch="http://www.bohemiancoding.com/sketch/ns">
    <!-- Generator: Sketch 3.4.2 (15855) - http://www.bohemiancoding.com/sketch -->
    <title>boba</title>
    <desc>Created with Sketch.</desc>
    <defs></defs>
    <g id="Page-1" stroke="none" stroke-width="1" fill="none" fill-rule="evenodd" sketch:type="MSPage">
        <g id="boba" sketch:type="MSLayerGroup" transform="translate(0.015580, 1.422917)">
            <path d="M61.5487423,97.9780255 L17.3357206,79.7443146 L17.3357206,145.620053 L68.9164236,183.446595 C69.0932479,183.574875 69.3428823,183.45006 69.3428823,183.231631 L69.3428823,107.481468 C69.5127724,102.90137 66.0421611,98.8760159 61.5487423,97.9780255" id="Fill-1" fill="#406051" sketch:type="MSShapeGroup"></path>
            <path d="M61.5487423,97.9780255 L17.3357206,79.7443146 L17.3357206,145.620053 L68.9164236,183.446595 C69.0932479,183.574879 69.3428823,183.450062 69.3428823,183.231632 L69.3428823,107.481468 C69.5127724,102.90137 66.0421611,98.8760159 61.5487423,97.9780255" id="Stroke-3" stroke-opacity="0" stroke="#000000" sketch:type="MSShapeGroup"></path>
            <path d="M97.9468212,97.9780255 L142.159843,79.7443146 L142.159843,145.620053 L90.5756728,183.446595 C90.3988485,183.574875 90.1526813,183.45006 90.1526813,183.231631 L90.1526813,107.481468 C89.9827912,102.90137 93.4534025,98.8760159 97.9468212,97.9780255" id="Fill-4" fill="#406051" sketch:type="MSShapeGroup"></path>
            <path d="M97.9468212,97.9780255 L142.159843,79.7443146 L142.159843,145.620053 L90.5756728,183.446595 C90.3988485,183.574879 90.1526813,183.450062 90.1526813,183.231632 L90.1526813,107.481468 C89.9827912,102.90137 93.4534025,98.8760159 97.9468212,97.9780255" id="Stroke-5" stroke-opacity="0" stroke="#000000" sketch:type="MSShapeGroup"></path>
            <path d="M17.3357206,145.620053 L9.14979332,140.70711 C3.4740784,137.302374 0,131.168996 0,124.546751 L0,76.2771705 L17.3357206,76.2771705 L17.3357206,145.620053" id="Fill-6" fill="#E3C798" sketch:type="MSShapeGroup"></path>
            <path d="M17.3357206,145.620053 L9.14979332,140.70711 C3.4740784,137.302374 0,131.168996 0,124.546751 L0,76.2771705 L17.3357206,76.2771705 L17.3357206,145.620053" id="Stroke-7" stroke-opacity="0" stroke="#000000" sketch:type="MSShapeGroup"></path>
            <path d="M142.152909,145.620053 L150.338836,140.70711 C156.014551,137.302374 159.488629,131.168996 159.488629,124.546751 L159.488629,76.2771705 L142.152909,76.2771705 L142.152909,145.620053" id="Fill-8" fill="#E3C798" sketch:type="MSShapeGroup"></path>
            <path d="M142.152909,145.620053 L150.338836,140.70711 C156.014551,137.302374 159.488629,131.168996 159.488629,124.546751 L159.488629,76.2771705 L142.152909,76.2771705 L142.152909,145.620053" id="Stroke-9" stroke-opacity="0" stroke="#000000" sketch:type="MSShapeGroup"></path>
            <path d="M105.46359,9.14285903 C98.2970028,5.80399925 90.3919142,3.80345709 82.0187612,3.50874984 C46.5152054,2.24670939 17.3357206,30.6530211 17.3357206,65.8757382 L17.3357206,69.3428823 C58.6571441,76.2286305 100.831485,76.2286305 142.152909,69.3428823 L142.152909,67.3700773 C142.152909,57.7522195 139.965141,48.5712219 136.144348,40.2778132 C136.144348,40.2778132 125.330325,17.0964876 105.46359,9.14285903" id="Fill-10" fill="#7C9382" sketch:type="MSShapeGroup"></path>
            <path d="M105.46359,9.14285903 C98.2970028,5.80399925 90.3919142,3.80345709 82.0187612,3.50874984 C46.5152054,2.24670939 17.3357206,30.6530211 17.3357206,65.8757382 L17.3357206,69.3428823 C58.6571441,76.2286305 100.831485,76.2286305 142.152909,69.3428823 L142.152909,67.3700773 C142.152909,57.7522195 139.965141,48.5712219 136.144348,40.2778132 C136.144348,40.2778132 125.330325,17.0964876 105.46359,9.14285903" id="Stroke-11" stroke-opacity="0" stroke="#000000" sketch:type="MSShapeGroup"></path>
            <path d="M6.93428823,76.2771705 L6.93428823,6.93428823" id="Fill-12" fill-opacity="0" fill="#000000" sketch:type="MSShapeGroup"></path>
            <path d="M6.93428823,76.2771705 L6.93428823,6.93428823" id="Stroke-13" stroke="#464F5D" stroke-width="2" sketch:type="MSShapeGroup"></path>
            <path d="M6.93428823,0 L31.204297,0 L31.204297,10.4014323 L6.93428823,10.4014323 L6.93428823,0 L6.93428823,0 Z" id="Fill-14" fill="#464F5D" sketch:type="MSShapeGroup"></path>
            <path d="M6.93428823,0 L31.204297,0 L31.204297,10.4014323 L6.93428823,10.4014323 L6.93428823,0 L6.93428823,0 Z" id="Stroke-15" stroke-opacity="0" stroke="#000000" sketch:type="MSShapeGroup"></path>
            <path d="M6.93428823,0 L31.204297,0 L31.204297,10.4014323 L6.93428823,10.4014323 L6.93428823,0 L6.93428823,0 Z" id="Fill-16" fill-opacity="0" fill="#000000" sketch:type="MSShapeGroup"></path>
            <path d="M6.93428823,0 L31.204297,0 L31.204297,10.4014323 L6.93428823,10.4014323 L6.93428823,0 L6.93428823,0 Z" id="Stroke-17" stroke="#464F5D" stroke-width="2" sketch:type="MSShapeGroup"></path>
            <path d="M107.481468,41.6057294 C107.481468,43.5195929 105.928187,45.0728735 104.014323,45.0728735 C102.10046,45.0728735 100.547179,43.5195929 100.547179,41.6057294 C100.547179,39.6918658 102.10046,38.1385853 104.014323,38.1385853 C105.928187,38.1385853 107.481468,39.6918658 107.481468,41.6057294" id="Fill-18" fill="#DADADB" sketch:type="MSShapeGroup"></path>
            <path d="M107.481468,41.6057294 C107.481468,43.5195929 105.928187,45.0728735 104.014323,45.0728735 C102.10046,45.0728735 100.547179,43.5195929 100.547179,41.6057294 C100.547179,39.6918658 102.10046,38.1385853 104.014323,38.1385853 C105.928187,38.1385853 107.481468,39.6918658 107.481468,41.6057294" id="Stroke-19" stroke-opacity="0" stroke="#000000" sketch:type="MSShapeGroup"></path>
            <path d="M114.415756,34.6714411 C114.415756,36.5853047 112.862475,38.1385853 110.948612,38.1385853 C109.034748,38.1385853 107.481468,36.5853047 107.481468,34.6714411 C107.481468,32.7575776 109.034748,31.204297 110.948612,31.204297 C112.862475,31.204297 114.415756,32.7575776 114.415756,34.6714411" id="Fill-20" fill="#DADADB" sketch:type="MSShapeGroup"></path>
            <path d="M114.415756,34.6714411 C114.415756,36.5853047 112.862475,38.1385853 110.948612,38.1385853 C109.034748,38.1385853 107.481468,36.5853047 107.481468,34.6714411 C107.481468,32.7575776 109.034748,31.204297 110.948612,31.204297 C112.862475,31.204297 114.415756,32.7575776 114.415756,34.6714411" id="Stroke-21" stroke-opacity="0" stroke="#000000" sketch:type="MSShapeGroup"></path>
            <path d="M121.350044,41.6057294 C121.350044,43.5195929 119.796763,45.0728735 117.8829,45.0728735 C115.969036,45.0728735 114.415756,43.5195929 114.415756,41.6057294 C114.415756,39.6918658 115.969036,38.1385853 117.8829,38.1385853 C119.796763,38.1385853 121.350044,39.6918658 121.350044,41.6057294" id="Fill-22" fill="#DADADB" sketch:type="MSShapeGroup"></path>
            <path d="M121.350044,41.6057294 C121.350044,43.5195929 119.796763,45.0728735 117.8829,45.0728735 C115.969036,45.0728735 114.415756,43.5195929 114.415756,41.6057294 C114.415756,39.6918658 115.969036,38.1385853 117.8829,38.1385853 C119.796763,38.1385853 121.350044,39.6918658 121.350044,41.6057294" id="Stroke-23" stroke-opacity="0" stroke="#000000" sketch:type="MSShapeGroup"></path>
            <path d="M114.415756,48.5400176 C114.415756,50.4538812 112.862475,52.0071617 110.948612,52.0071617 C109.034748,52.0071617 107.481468,50.4538812 107.481468,48.5400176 C107.481468,46.6261541 109.034748,45.0728735 110.948612,45.0728735 C112.862475,45.0728735 114.415756,46.6261541 114.415756,48.5400176" id="Fill-24" fill="#DADADB" sketch:type="MSShapeGroup"></path>
            <path d="M114.415756,48.5400176 C114.415756,50.4538812 112.862475,52.0071617 110.948612,52.0071617 C109.034748,52.0071617 107.481468,50.4538812 107.481468,48.5400176 C107.481468,46.6261541 109.034748,45.0728735 110.948612,45.0728735 C112.862475,45.0728735 114.415756,46.6261541 114.415756,48.5400176" id="Stroke-25" stroke-opacity="0" stroke="#000000" sketch:type="MSShapeGroup"></path>
            <path d="M100.547179,48.5400176 C100.547179,50.4538812 98.9938988,52.0071617 97.0800352,52.0071617 C95.1661717,52.0071617 93.6128911,50.4538812 93.6128911,48.5400176 C93.6128911,46.6261541 95.1661717,45.0728735 97.0800352,45.0728735 C98.9938988,45.0728735 100.547179,46.6261541 100.547179,48.5400176" id="Fill-26" fill="#DADADB" sketch:type="MSShapeGroup"></path>
            <path d="M100.547179,48.5400176 C100.547179,50.4538812 98.9938988,52.0071617 97.0800352,52.0071617 C95.1661717,52.0071617 93.6128911,50.4538812 93.6128911,48.5400176 C93.6128911,46.6261541 95.1661717,45.0728735 97.0800352,45.0728735 C98.9938988,45.0728735 100.547179,46.6261541 100.547179,48.5400176" id="Stroke-27" stroke-opacity="0" stroke="#000000" sketch:type="MSShapeGroup"></path>
            <path d="M100.547179,34.6714411 C100.547179,36.5853047 98.9938988,38.1385853 97.0800352,38.1385853 C95.1661717,38.1385853 93.6128911,36.5853047 93.6128911,34.6714411 C93.6128911,32.7575776 95.1661717,31.204297 97.0800352,31.204297 C98.9938988,31.204297 100.547179,32.7575776 100.547179,34.6714411" id="Fill-28" fill="#DADADB" sketch:type="MSShapeGroup"></path>
            <path d="M100.547179,34.6714411 C100.547179,36.5853047 98.9938988,38.1385853 97.0800352,38.1385853 C95.1661717,38.1385853 93.6128911,36.5853047 93.6128911,34.6714411 C93.6128911,32.7575776 95.1661717,31.204297 97.0800352,31.204297 C98.9938988,31.204297 100.547179,32.7575776 100.547179,34.6714411" id="Stroke-29" stroke-opacity="0" stroke="#000000" sketch:type="MSShapeGroup"></path>
            <path d="M58.9414499,152.786643 L58.9414499,176.276538 L69.0967151,183.758638 L90.3919142,183.758638 L100.547179,176.276538 L100.550646,152.783179 C100.554114,125.729047 116.894764,101.355024 141.92061,91.0749416 L142.152909,90.9813287 L142.152909,69.3428823 C100.831485,76.2286305 58.6571441,76.2286305 17.3357206,69.3428823 L17.3357206,90.9778616 L17.5714864,91.0749416 C42.6007997,101.351557 58.9414499,125.729047 58.9414499,152.786643" id="Fill-30" fill="#D25627" sketch:type="MSShapeGroup"></path>
            <path d="M58.9414499,152.78664 L58.9414499,176.276541 L69.0967151,183.758638 L90.3919142,183.758638 L100.547179,176.276541 L100.550646,152.783173 C100.554114,125.729047 116.894764,101.355024 141.92061,91.0749416 L142.152909,90.9813287 L142.152909,69.3428823 C100.831485,76.2286305 58.6571441,76.2286305 17.3357206,69.3428823 L17.3357206,90.9778616 L17.5714864,91.0749416 C42.6007997,101.351557 58.9414499,125.729047 58.9414499,152.78664" id="Stroke-31" stroke-opacity="0" stroke="#000000" sketch:type="MSShapeGroup"></path>
            <path d="M17.3357206,79.7443146 L17.3357206,79.7443146 L61.5487423,97.9780255 C66.0386939,98.8760159 69.5127724,102.90137 69.3428823,107.481468 L69.3428823,183.758638 L90.145747,183.758638 L90.145747,138.685765 L90.1526813,138.685765 L90.1526813,107.481468 C89.9827912,102.90137 93.4534025,98.8760159 97.9468212,97.9780255 L142.152909,79.7477818 L142.152909,79.7443146 C100.831485,86.6300628 58.6571441,86.6300628 17.3357206,79.7443146" id="Fill-32" fill="#000000" sketch:type="MSShapeGroup"></path>
            <path d="M17.3357206,79.7443146 L17.3357206,79.7443146 L61.5487423,97.9780255 C66.0386939,98.8760159 69.5127724,102.90137 69.3428823,107.481468 L69.3428823,183.758638 L90.145747,183.758638 L90.145747,138.685765 L90.1526813,138.685765 L90.1526813,107.481468 C89.9827912,102.90137 93.4534025,98.8760159 97.9468212,97.9780255 L142.152909,79.7477818 L142.152909,79.7443146 C100.831485,86.6300628 58.6571441,86.6300628 17.3357206,79.7443146" id="Stroke-33" stroke-opacity="0" stroke="#000000" sketch:type="MSShapeGroup"></path>
        </g>
    </g>
</svg>