<?xml version="1.0" encoding="UTF-8" standalone="no"?>
<svg width="251px" height="244px" viewBox="0 0 251 244" version="1.1" xmlns="http://www.w3.org/2000/svg" xmlns:xlink="http://www.w3.org/1999/xlink" xmlns:sketch="http://www.bohemiancoding.com/sketch/ns">
    <!-- Generator: Sketch 3.4 (15575) - http://www.bohemiancoding.com/sketch -->
    <title>clegane</title>
    <desc>Created with Sketch.</desc>
    <defs></defs>
    <g id="Page-1" stroke="none" stroke-width="1" fill="none" fill-rule="evenodd" sketch:type="MSPage">
        <g id="clegane" sketch:type="MSLayerGroup" fill="#1D1C1B">
            <path d="M114.2083,61.2841 C118.8733,62.5141 124.3343,63.5741 130.6563,65.0991 C137.0623,66.2231 142.4963,67.4301 147.2613,68.1631 C172.9823,72.1131 177.6413,71.2491 188.7883,73.7801 L194.2833,47.3751 C198.8893,27.8591 184.4373,12.0781 143.4653,3.5511 C102.4913,-4.9759 82.9493,3.7291 79.3833,23.4631 L73.8873,49.8681 C85.1243,51.9931 89.0513,54.6441 114.2083,61.2841" id="Fill-1" sketch:type="MSShapeGroup"></path>
            <path d="M188.1532,77.5596 C176.8182,74.9456 172.3552,75.8746 146.5182,71.9066 C141.7432,71.1746 136.2932,69.9656 129.8782,68.8396 C123.5462,67.3136 118.0672,66.2476 113.3962,65.0136 C88.1222,58.3456 84.3992,55.7126 72.9632,53.5876 C39.8082,46.8616 40.1642,66.6666 64.1792,77.4816 C65.5322,78.0906 66.5232,78.5916 67.4382,77.5896 C69.7542,75.0556 72.1902,73.8966 74.6432,73.0126 C81.4932,70.5436 106.8652,73.1476 128.0652,77.5506 C149.2622,81.9706 173.5662,89.7056 178.8632,94.7016 C180.7592,96.4906 182.5312,98.5256 183.6432,101.7726 C184.0832,103.0576 185.1912,102.9926 186.6752,102.9736 C213.0112,102.6376 221.2382,84.6186 188.1532,77.5596" id="Fill-4" sketch:type="MSShapeGroup"></path>
            <path d="M125.4174,164.004 C120.2864,164.004 114.7284,169.824 114.7284,171.558 C114.7284,173.179 123.9204,175.798 125.4174,175.798 C126.9134,175.798 136.1064,173.179 136.1064,171.558 C136.1064,169.824 130.5484,164.004 125.4174,164.004" id="Fill-6" sketch:type="MSShapeGroup"></path>
            <path d="M19.1078,236.3151 C23.1428,236.3151 26.4408,234.7191 29.0038,231.5251 L34.2668,236.9461 C30.0908,241.6491 25.1688,244.0001 19.5028,244.0001 C13.8348,244.0001 9.1678,242.2101 5.4998,238.6311 C1.8328,235.0521 -0.0002,230.5341 -0.0002,225.0771 C-0.0002,219.6211 1.8688,215.0671 5.6058,211.4171 C9.3428,207.7681 13.9138,205.9431 19.3178,205.9431 C25.3528,205.9431 30.4068,208.2421 34.4778,212.8381 L29.3718,218.6291 C26.7748,215.4001 23.5458,213.7861 19.6868,213.7861 C16.5978,213.7861 13.9578,214.7951 11.7648,216.8121 C9.5708,218.8311 8.4748,221.5501 8.4748,224.9721 C8.4748,228.3931 9.5098,231.1391 11.5808,233.2091 C13.6498,235.2801 16.1598,236.3151 19.1078,236.3151" id="Fill-8" sketch:type="MSShapeGroup"></path>
            <path d="M40.0694,243.5791 L40.0694,206.7851 L48.2814,206.7851 L48.2814,236.2621 L63.9674,236.2621 L63.9674,243.5791 L40.0694,243.5791 Z" id="Fill-11" sketch:type="MSShapeGroup"></path>
            <path d="M96.4967,206.7853 L96.4967,214.1013 L78.1797,214.1013 L78.1797,221.6823 L94.6547,221.6823 L94.6547,228.6823 L78.1797,228.6823 L78.1797,236.3153 L97.0757,236.3153 L97.0757,243.5793 L69.9677,243.5793 L69.9677,206.7853 L96.4967,206.7853 Z" id="Fill-13" sketch:type="MSShapeGroup"></path>
            <path d="M127.6178,224.8398 L135.8818,224.8398 L135.8818,237.8938 C132.2318,241.9648 127.1788,243.9998 120.7218,243.9998 C115.3178,243.9998 110.7818,242.2108 107.1148,238.6308 C103.4478,235.0518 101.6148,230.5338 101.6148,225.0768 C101.6148,219.6208 103.4828,215.0668 107.2198,211.4178 C110.9578,207.7678 115.4668,205.9428 120.7478,205.9428 C126.0288,205.9428 130.6178,207.6798 134.5138,211.1538 L130.2488,217.3128 C128.5998,215.8738 127.0828,214.8838 125.6968,214.3388 C124.3098,213.7948 122.8088,213.5228 121.1958,213.5228 C118.0718,213.5228 115.4398,214.5848 113.2998,216.7068 C111.1598,218.8308 110.0888,221.6288 110.0888,225.1028 C110.0888,228.5768 111.1158,231.3588 113.1688,233.4458 C115.2218,235.5338 117.6688,236.5788 120.5118,236.5788 C123.3538,236.5788 125.7228,236.0348 127.6178,234.9468 L127.6178,224.8398 Z" id="Fill-15" sketch:type="MSShapeGroup"></path>
            <path d="M158.6618,217.7339 L154.0308,228.4189 L163.2418,228.4189 L158.6618,217.7339 Z M169.7688,243.5789 L166.3468,235.6309 L150.9238,235.6309 L147.5028,243.5789 L138.7658,243.5789 L154.6618,206.7849 L162.6098,206.7849 L178.5068,243.5789 L169.7688,243.5789 Z" id="Fill-17" sketch:type="MSShapeGroup"></path>
            <path d="M208.5093,206.7853 L216.7213,206.7853 L216.7213,243.5793 L208.5093,243.5793 L190.9813,220.5233 L190.9813,243.5793 L182.7693,243.5793 L182.7693,206.7853 L190.4543,206.7853 L208.5093,230.4723 L208.5093,206.7853 Z" id="Fill-19" sketch:type="MSShapeGroup"></path>
            <path d="M249.6154,206.7853 L249.6154,214.1013 L231.2984,214.1013 L231.2984,221.6823 L247.7734,221.6823 L247.7734,228.6823 L231.2984,228.6823 L231.2984,236.3153 L250.1944,236.3153 L250.1944,243.5793 L223.0864,243.5793 L223.0864,206.7853 L249.6154,206.7853 Z" id="Fill-21" sketch:type="MSShapeGroup"></path>
            <path d="M160.9916,110.7943 C157.6116,112.5583 152.2466,114.6153 148.0576,111.8233 C146.7166,110.9293 144.0166,108.8103 144.6776,106.9733 C144.9266,106.2813 158.7136,101.6823 161.2856,102.2703 C164.0726,102.9073 164.3716,109.0303 160.9916,110.7943 M102.7766,111.8233 C98.5876,114.6153 93.2236,112.5583 89.8436,110.7943 C86.4626,109.0303 86.7626,102.9073 89.5496,102.2703 C92.1216,101.6823 105.9086,106.2813 106.1576,106.9733 C106.8186,108.8103 104.1176,110.9293 102.7766,111.8233 M176.2266,97.7863 C171.1086,92.9573 147.6206,85.4833 127.1366,81.2113 C106.6476,76.9563 82.1286,74.4403 75.5086,76.8263 C73.7026,77.4773 71.9056,78.2863 70.1626,79.7163 C71.1886,85.6993 72.0156,91.3843 71.3296,96.3763 C69.8246,107.3283 67.4786,124.5873 69.8336,131.6513 C72.8266,140.6303 87.6846,149.2883 88.4326,155.8093 C89.0436,161.1353 86.8296,163.1843 88.2186,167.1393 C88.9716,169.2833 104.5736,176.2203 107.7796,174.0873 C110.9866,171.9553 111.9486,165.0013 120.9276,161.7953 C123.7896,160.7733 124.7756,150.2503 123.9206,144.9063 C123.5356,142.4993 111.0936,141.4853 111.0936,137.5303 C111.0936,129.7273 118.0416,127.5893 125.4176,127.5893 C132.7936,127.5893 139.7406,129.7273 139.7406,137.5303 C139.7406,141.4853 127.2986,142.4993 126.9136,144.9063 C126.0586,150.2503 127.0456,160.7733 129.9066,161.7953 C138.8856,165.0013 139.8476,171.9553 143.0546,174.0873 C146.2616,176.2203 161.8626,169.2833 162.6156,167.1393 C164.0056,163.1843 161.7906,161.1353 162.4026,155.8093 C163.1506,149.2883 178.0086,140.6303 181.0016,131.6513 C182.8806,126.0143 181.7656,113.8863 180.4746,103.6503 C179.3976,101.0663 177.8616,99.3283 176.2266,97.7863" id="Fill-24" sketch:type="MSShapeGroup"></path>
        </g>
    </g>
</svg>