<?xml version="1.0" encoding="UTF-8" standalone="no"?>
<svg width="195px" height="190px" viewBox="0 0 195 190" version="1.1" xmlns="http://www.w3.org/2000/svg" xmlns:xlink="http://www.w3.org/1999/xlink" xmlns:sketch="http://www.bohemiancoding.com/sketch/ns">
    <!-- Generator: Sketch 3.4 (15575) - http://www.bohemiancoding.com/sketch -->
    <title>clegane</title>
    <desc>Created with Sketch.</desc>
    <defs></defs>
    <g id="Page-1" stroke="none" stroke-width="1" fill="none" fill-rule="evenodd" sketch:type="MSPage">
        <g id="clegane" sketch:type="MSLayerGroup" fill="#1D1C1B">
            <g id="Page-1" sketch:type="MSShapeGroup">
                <g>
                    <g id="clegane">
                        <path d="M88.7275637,47.7212254 C92.3517669,48.6790123 96.5943765,49.5044221 101.50589,50.6919221 C106.482663,51.567168 110.704297,52.5070451 114.406189,53.0778238 C134.388639,56.1536434 138.008181,55.4808566 146.668201,57.4517172 L150.937225,36.8904467 C154.515592,21.6935615 143.287942,9.40507787 111.457106,2.76520082 C79.6247151,-3.87467623 64.4426833,2.90380738 61.6722849,18.2704467 L57.4024841,38.8317172 C66.1324243,40.4864303 69.1832809,42.5507336 88.7275637,47.7212254" id="Fill-1"></path>
                        <path d="M146.174797,60.3947705 C137.368721,58.3592787 133.90145,59.0826803 113.82888,55.9928443 C110.119219,55.4228443 105.885155,54.4814098 100.90139,53.6046066 C95.9821076,52.4163279 91.7255139,51.5862459 88.0966494,50.6253443 C68.4614701,45.4330492 65.5690996,43.3827623 56.6845578,41.7280492 C30.9266892,36.4905902 31.2032629,51.9125164 49.8603347,60.3340328 C50.9114701,60.8082541 51.6813705,61.198377 52.3922271,60.4181311 C54.19151,58.4449344 56.0840199,57.5424344 57.9897371,56.8540738 C63.3114502,54.9314918 83.0227649,56.9591967 99.4928845,60.3877623 C115.960673,63.8295656 134.842267,69.8527213 138.957466,73.7430492 C140.430454,75.136123 141.807108,76.7207541 142.671012,79.2491557 C143.012845,80.2497705 143.873641,80.1991557 145.02655,80.1843607 C165.486789,79.9227213 171.878283,65.8915328 146.174797,60.3947705" id="Fill-4"></path>
                        <path d="M97.4358287,127.708033 C93.4495936,127.708033 89.1316255,132.24 89.1316255,133.590246 C89.1316255,134.8525 96.2728207,136.891885 97.4358287,136.891885 C98.5980598,136.891885 105.740032,134.8525 105.740032,133.590246 C105.740032,132.24 101.422064,127.708033 97.4358287,127.708033" id="Fill-6"></path>
                        <path d="M14.8447052,184.015857 C17.9794661,184.015857 20.5416574,182.77307 22.5328327,180.285939 L26.6216175,184.507209 C23.3773147,188.169381 19.5534502,190.000078 15.1515777,190.000078 C10.7481514,190.000078 7.12239442,188.606225 4.27275299,185.819299 C1.42388845,183.032373 -0.000155378486,179.514258 -0.000155378486,175.264955 C-0.000155378486,171.01643 1.45185657,167.470283 4.35510359,164.62807 C7.2583506,161.786635 10.8095259,160.365529 15.0078526,160.365529 C19.6963984,160.365529 23.6228127,162.155734 26.7855418,165.734586 L22.8187291,170.243971 C20.8011394,167.729586 18.2925538,166.472783 15.2945259,166.472783 C12.8947052,166.472783 10.8437092,167.25848 9.13998406,168.829094 C7.43548207,170.401266 6.58400797,172.51852 6.58400797,175.183193 C6.58400797,177.847086 7.38809163,179.985365 8.99703586,181.59725 C10.6044263,183.209914 12.5544263,184.015857 14.8447052,184.015857" id="Fill-8"></path>
                        <path d="M31.1296135,189.67225 L31.1296135,161.021184 L37.5094542,161.021184 L37.5094542,183.974586 L49.6957888,183.974586 L49.6957888,189.67225 L31.1296135,189.67225 L31.1296135,189.67225 Z" id="Fill-11"></path>
                        <path d="M74.9675558,161.02134 L74.9675558,166.718225 L60.7372171,166.718225 L60.7372171,172.621463 L73.5365199,172.621463 L73.5365199,178.072283 L60.7372171,178.072283 L60.7372171,184.016012 L75.4173765,184.016012 L75.4173765,189.672406 L54.3573765,189.672406 L54.3573765,161.02134 L74.9675558,161.02134 L74.9675558,161.02134 Z" id="Fill-13"></path>
                        <path d="M99.1453028,175.080172 L105.565542,175.080172 L105.565542,185.245172 C102.729884,188.415213 98.804247,189.999844 93.7878526,189.999844 C89.5895259,189.999844 86.0655418,188.60677 83.2166773,185.819066 C80.3678127,183.032139 78.9437689,179.514025 78.9437689,175.264721 C78.9437689,171.016197 80.395004,167.470049 83.298251,164.628615 C86.2022749,161.786402 89.7052829,160.365295 93.8080518,160.365295 C97.9108207,160.365295 101.47598,161.717877 104.502753,164.423041 L101.189307,169.218984 C99.9082112,168.098451 98.7296653,167.327549 97.6528924,166.903164 C96.5753426,166.479557 95.4092271,166.267754 94.1560996,166.267754 C91.7290876,166.267754 89.6843068,167.094721 88.021757,168.747098 C86.3592072,170.401033 85.5271554,172.579803 85.5271554,175.284967 C85.5271554,177.990131 86.3250239,180.156443 87.9199841,181.781566 C89.5149442,183.407467 91.416,184.221197 93.6247052,184.221197 C95.8326335,184.221197 97.6730916,183.79759 99.1453028,182.950377 L99.1453028,175.080172 L99.1453028,175.080172 Z" id="Fill-15"></path>
                        <path d="M123.263151,169.546889 L119.665363,177.867176 L126.821319,177.867176 L123.263151,169.546889 L123.263151,169.546889 Z M131.892096,189.672094 L129.23357,183.483078 L117.251558,183.483078 L114.593809,189.672094 L107.8061,189.672094 L120.155582,161.021029 L126.330323,161.021029 L138.680582,189.672094 L131.892096,189.672094 L131.892096,189.672094 Z" id="Fill-17"></path>
                        <path d="M161.989297,161.02134 L168.369137,161.02134 L168.369137,189.672406 L161.989297,189.672406 L148.371926,171.718963 L148.371926,189.672406 L141.992086,189.672406 L141.992086,161.02134 L147.962504,161.02134 L161.989297,179.466135 L161.989297,161.02134 L161.989297,161.02134 Z" id="Fill-19"></path>
                        <path d="M193.924315,161.02134 L193.924315,166.718225 L179.693976,166.718225 L179.693976,172.621463 L192.493279,172.621463 L192.493279,178.072283 L179.693976,178.072283 L179.693976,184.016012 L194.374135,184.016012 L194.374135,189.672406 L173.314135,189.672406 L173.314135,161.02134 L193.924315,161.02134 L193.924315,161.02134 Z" id="Fill-21"></path>
                        <path d="M125.073155,86.27425 C122.447259,87.6478566 118.279231,89.2496189 115.024829,87.0755205 C113.983016,86.379373 111.885406,84.729332 112.398932,83.2988811 C112.592378,82.7600287 123.303394,79.1788402 125.301562,79.636709 C127.466761,80.1327336 127.699052,84.9006434 125.073155,86.27425 M79.8463625,87.0755205 C76.5919602,89.2496189 72.4247092,87.6478566 69.7988127,86.27425 C67.1721394,84.9006434 67.4052072,80.1327336 69.5704064,79.636709 C71.5685737,79.1788402 82.2795896,82.7600287 82.4730359,83.2988811 C82.9865618,84.729332 80.8881753,86.379373 79.8463625,87.0755205 M136.909112,76.1450697 C132.932976,72.3847828 114.685327,66.5648648 98.7714622,63.2383074 C82.8537131,59.9249877 63.8050876,57.9658074 58.6620598,59.8237582 C57.258992,60.3306844 55.8629163,60.9606434 54.5087928,62.074168 C55.3058845,66.7330615 55.9483745,71.1599057 55.4154263,75.0471189 C54.2462032,83.5753156 52.4236135,97.0147008 54.2531952,102.515357 C56.5784343,109.507201 68.121502,116.249086 68.7026175,121.326914 C69.1772988,125.474209 67.457259,127.069742 68.5363625,130.149455 C69.1213625,131.818963 81.2424382,137.220725 83.7331554,135.559783 C86.2246494,133.899619 86.9720199,128.484619 93.9477371,125.988143 C96.1712032,125.192324 96.9372191,116.998184 96.2729761,112.836873 C95.9738725,110.96257 86.3077769,110.17298 86.3077769,107.093266 C86.3077769,101.01716 91.7056255,99.3523238 97.4359841,99.3523238 C103.166343,99.3523238 108.563414,101.01716 108.563414,107.093266 C108.563414,110.17298 98.8973187,110.96257 98.5982151,112.836873 C97.9339721,116.998184 98.7007649,125.192324 100.923454,125.988143 C107.899171,128.484619 108.646542,133.899619 111.138036,135.559783 C113.62953,137.220725 125.749829,131.818963 126.334829,130.149455 C127.414709,127.069742 125.693892,125.474209 126.169351,121.326914 C126.750466,116.249086 138.293534,109.507201 140.618773,102.515357 C142.078554,98.1258893 141.212319,88.6819549 140.209351,80.7112992 C139.372637,78.699168 138.179331,77.3458074 136.909112,76.1450697" id="Fill-24"></path>
                    </g>
                </g>
            </g>
        </g>
    </g>
</svg>