<?xml version="1.0" encoding="UTF-8" standalone="no"?>
<svg width="157px" height="188px" viewBox="0 0 157 188" version="1.1" xmlns="http://www.w3.org/2000/svg" xmlns:xlink="http://www.w3.org/1999/xlink" xmlns:sketch="http://www.bohemiancoding.com/sketch/ns">
    <!-- Generator: Sketch 3.4.2 (15855) - http://www.bohemiancoding.com/sketch -->
    <title>grievous</title>
    <desc>Created with Sketch.</desc>
    <defs></defs>
    <g id="Page-1" stroke="none" stroke-width="1" fill="none" fill-rule="evenodd" sketch:type="MSPage">
        <g id="grievous" sketch:type="MSLayerGroup" transform="translate(0.657118, 0.854253)">
            <path d="M13.8685765,13.6189421 L13.8685765,26.7871554 C13.8685765,33.9745452 11.4242399,40.9435048 6.93428823,46.5568112 C2.4443366,52.1666503 0,59.1390772 0,66.3229998 L0,76.384652 C0,84.8722208 2.9470725,93.0997538 8.38702161,99.6145176 C18.1817037,111.343866 37.0395006,136.095808 41.1654021,148.879168 C41.2486135,149.135737 41.6057294,149.076795 41.6057294,148.806358 L41.6057294,121.10041 L24.1486588,96.7090508 C18.7849868,91.3453788 15.4322585,84.2238648 15.0751426,76.6516221 C15.0716755,76.5580092 15.0682083,76.4643963 15.0647412,76.3707834 C14.7769682,69.3636852 17.0860862,62.4918055 21.291732,56.8819663 C25.476575,51.3033315 27.7371529,44.5215976 27.7371529,37.5491708 L27.7371529,0.17682435 C27.7371529,0.0208028647 27.54646,-0.0589414499 27.4355114,0.0520071617 L13.8685765,13.6189421" id="Fill-1" fill="#EBE8E4" sketch:type="MSShapeGroup"></path>
            <path d="M13.8685765,13.6189421 L13.8685765,26.7871554 C13.8685765,33.9745452 11.4242399,40.9435048 6.93428823,46.5568112 C2.4443366,52.1666503 0,59.1390772 0,66.3229998 L0,76.384652 C0,84.8722208 2.9470725,93.0997538 8.38702161,99.6145176 C18.1817037,111.343866 37.0395006,136.095808 41.1654021,148.879168 C41.2486135,149.135737 41.6057294,149.076795 41.6057294,148.806358 L41.6057294,121.10041 L24.1486588,96.7090508 C18.7849868,91.3453788 15.4322585,84.2238648 15.0751426,76.6516221 C15.0716755,76.5580092 15.0682083,76.4643963 15.0647412,76.3707834 C14.7769682,69.3636852 17.0860862,62.4918055 21.291732,56.8819663 C25.476575,51.3033315 27.7371529,44.5215976 27.7371529,37.5491708 L27.7371529,0.17682435 C27.7371529,0.0208028647 27.54646,-0.0589414499 27.4355114,0.0520071617 L13.8685765,13.6189421" id="Stroke-3" stroke-opacity="0" stroke="#000000" sketch:type="MSShapeGroup"></path>
            <path d="M142.152909,13.6189421 L142.152909,24.8663576 C142.152909,32.0537473 144.597245,39.0261742 149.087197,44.6360133 C153.577149,50.2458525 156.021485,57.2182793 156.021485,64.4056691 L156.021485,74.4638541 C156.021485,82.9514229 153.074413,91.1789559 147.634464,97.6937197 C137.836314,109.426535 122.438727,136.106209 118.31976,148.886103 C118.240016,149.142671 117.8829,149.076795 117.8829,148.806358 L117.8829,115.712468 L131.872826,94.7882529 C137.236498,89.424581 140.592694,82.2995998 140.946343,74.72389 C140.953277,74.6060071 140.956744,74.484657 140.960211,74.363307 C141.234116,67.387413 138.918063,60.5502048 134.729753,54.9611685 C130.54491,49.3860008 128.284332,42.6007997 128.284332,35.6283729 L128.284332,0.280838673 C128.284332,0.0832114587 128.520098,-0.0138685765 128.658784,0.124817188 L142.152909,13.6189421" id="Fill-4" fill="#EBE8E4" sketch:type="MSShapeGroup"></path>
            <path d="M142.152909,13.6189421 L142.152909,24.8663576 C142.152909,32.0537473 144.597245,39.0261742 149.087197,44.6360133 C153.577149,50.2458525 156.021485,57.2182793 156.021485,64.4056691 L156.021485,74.4638541 C156.021485,82.9514229 153.074413,91.1789559 147.634464,97.6937197 C137.836314,109.426535 122.438727,136.106209 118.31976,148.886103 C118.240016,149.142671 117.8829,149.076795 117.8829,148.806358 L117.8829,115.712468 L131.872826,94.7882529 C137.236498,89.424581 140.592694,82.2995998 140.946343,74.72389 C140.953277,74.6060071 140.956744,74.484657 140.960211,74.363307 C141.234116,67.387413 138.918063,60.5502048 134.729753,54.9611685 C130.54491,49.3860008 128.284332,42.6007997 128.284332,35.6283729 L128.284332,0.280838673 C128.284332,0.0832114587 128.520098,-0.0138685765 128.658784,0.124817188 L142.152909,13.6189421" id="Stroke-5" stroke-opacity="0" stroke="#000000" sketch:type="MSShapeGroup"></path>
            <path d="M79.7443146,168.947002 C95.1315002,168.947002 93.6128911,186.282721 93.6128911,186.282721 L104.014323,175.88129 L104.014323,131.501842 C104.014323,121.069205 108.292779,104.704285 116.225605,97.9294855 C116.537648,97.6625154 116.856625,97.3955453 117.182537,97.1285752 C124.189635,91.421656 128.284332,82.8716786 128.284332,73.8363011 L128.284332,51.7575273 C128.284332,51.7575273 129.366081,10.4014323 86.6751357,10.4014323 L69.3428823,10.4014323 C26.6519368,10.4014323 27.7406201,51.7575273 27.7406201,51.7575273 L27.7406201,74.0131254 C27.7406201,83.1005101 32.022543,91.5360718 39.046977,97.2984653 C41.6265322,99.4134232 43.835103,101.507578 45.7177623,103.501186 C52.062636,110.223979 55.4743058,125.427405 55.4743058,134.674279 L55.4743058,175.88129 L65.8757382,186.282721 C65.8757382,186.282721 64.3571291,168.947002 79.7443146,168.947002" id="Fill-6" fill="#D1CDCA" sketch:type="MSShapeGroup"></path>
            <path d="M79.7443146,168.946998 C95.1315002,168.946998 93.6128911,186.282719 93.6128911,186.282719 L104.014323,175.881287 L104.014323,131.501842 C104.014323,121.069205 108.292779,104.704285 116.225605,97.9294855 C116.537648,97.6625154 116.856625,97.3955453 117.182537,97.1285752 C124.189635,91.421656 128.284332,82.8716786 128.284332,73.8363011 L128.284332,51.7575273 C128.284332,51.7575273 129.366081,10.4014323 86.6751357,10.4014323 L69.3428823,10.4014323 C26.6519368,10.4014323 27.7406201,51.7575273 27.7406201,51.7575273 L27.7406201,74.0131254 C27.7406201,83.1005101 32.022543,91.5360718 39.046977,97.2984653 C41.6265322,99.4134232 43.835103,101.507578 45.7177623,103.501186 C52.062636,110.223979 55.4743058,125.427405 55.4743058,134.674279 L55.4743058,175.881287 L65.8757382,186.282719 C65.8757382,186.282719 64.3571291,168.946998 79.7443146,168.946998" id="Stroke-7" stroke-opacity="0" stroke="#000000" sketch:type="MSShapeGroup"></path>
            <path d="M69.3428823,128.284332 C67.4255516,128.284332 65.8757382,129.834146 65.8757382,131.751476 L65.8757382,162.955773 C65.8757382,164.873108 67.4255516,166.422917 69.3428823,166.422917 C71.260213,166.422917 72.8100264,164.873108 72.8100264,162.955773 L72.8100264,131.751476 C72.8100264,129.834146 71.260213,128.284332 69.3428823,128.284332" id="Fill-8" fill="#A19B93" sketch:type="MSShapeGroup"></path>
            <path d="M69.3428823,128.284332 C67.4255516,128.284332 65.8757382,129.834146 65.8757382,131.751476 L65.8757382,162.955773 C65.8757382,164.873104 67.4255516,166.422917 69.3428823,166.422917 C71.260213,166.422917 72.8100264,164.873104 72.8100264,162.955773 L72.8100264,131.751476 C72.8100264,129.834146 71.260213,128.284332 69.3428823,128.284332" id="Stroke-9" stroke-opacity="0" stroke="#000000" sketch:type="MSShapeGroup"></path>
            <path d="M79.7443146,128.284332 C77.8269839,128.284332 76.2771705,129.834146 76.2771705,131.751476 L76.2771705,159.488629 C76.2771705,161.405963 77.8269839,162.955773 79.7443146,162.955773 C81.6616453,162.955773 83.2114587,161.405963 83.2114587,159.488629 L83.2114587,131.751476 C83.2114587,129.834146 81.6616453,128.284332 79.7443146,128.284332" id="Fill-10" fill="#A19B93" sketch:type="MSShapeGroup"></path>
            <path d="M79.7443146,128.284332 C77.8269839,128.284332 76.2771705,129.834146 76.2771705,131.751476 L76.2771705,159.488629 C76.2771705,161.40596 77.8269839,162.955773 79.7443146,162.955773 C81.6616453,162.955773 83.2114587,161.40596 83.2114587,159.488629 L83.2114587,131.751476 C83.2114587,129.834146 81.6616453,128.284332 79.7443146,128.284332" id="Stroke-11" stroke-opacity="0" stroke="#000000" sketch:type="MSShapeGroup"></path>
            <path d="M90.145747,128.284332 C88.2284163,128.284332 86.6786029,129.834146 86.6786029,131.751476 L86.6786029,162.955773 C86.6786029,164.873108 88.2284163,166.422917 90.145747,166.422917 C92.0630777,166.422917 93.6128911,164.873108 93.6128911,162.955773 L93.6128911,131.751476 C93.6128911,129.834146 92.0630777,128.284332 90.145747,128.284332" id="Fill-12" fill="#A19B93" sketch:type="MSShapeGroup"></path>
            <path d="M90.145747,128.284332 C88.2284163,128.284332 86.6786029,129.834146 86.6786029,131.751476 L86.6786029,162.955773 C86.6786029,164.873104 88.2284163,166.422917 90.145747,166.422917 C92.0630777,166.422917 93.6128911,164.873104 93.6128911,162.955773 L93.6128911,131.751476 C93.6128911,129.834146 92.0630777,128.284332 90.145747,128.284332" id="Stroke-13" stroke-opacity="0" stroke="#000000" sketch:type="MSShapeGroup"></path>
            <path d="M58.9449171,69.3428823 C57.8492996,69.3428823 56.7710177,68.8262778 56.0983918,67.8554775 C44.9792606,51.8823445 64.0416189,13.1924834 66.2501897,8.8342832 C67.1135086,7.13191544 69.1937951,6.43155233 70.9100314,7.30873979 C72.6158663,8.17205868 73.3023609,10.2592794 72.4355748,11.9685815 C66.9505529,22.7895383 54.3544183,53.217195 61.7845081,63.8959989 C62.8835928,65.4666152 62.4918055,67.626646 60.9211892,68.7187964 C60.3213733,69.1417879 59.6279445,69.3428823 58.9449171,69.3428823" id="Fill-14" fill="#A19B93" sketch:type="MSShapeGroup"></path>
            <path d="M58.9449171,69.3428823 C57.8492996,69.3428823 56.7710177,68.8262778 56.0983918,67.8554775 C44.9792606,51.8823445 64.0416189,13.1924834 66.2501897,8.8342832 C67.1135086,7.13191544 69.1937951,6.43155233 70.9100314,7.30873979 C72.6158663,8.17205868 73.3023609,10.2592794 72.4355748,11.9685815 C66.9505529,22.7895383 54.3544183,53.217195 61.7845081,63.8959989 C62.8835928,65.4666152 62.4918055,67.626646 60.9211892,68.7187964 C60.3213733,69.1417879 59.6279445,69.3428823 58.9449171,69.3428823" id="Stroke-15" stroke-opacity="0" stroke="#000000" sketch:type="MSShapeGroup"></path>
            <path d="M97.6867854,69.3428823 C97.0002909,69.3428823 96.3103292,69.1417879 95.7070461,68.7187964 C94.1364299,67.626646 93.7481097,65.4666152 94.8471944,63.8959989 C102.287686,53.2033264 89.6811497,22.7860711 84.1961277,11.9685815 C83.3293416,10.2627466 84.012369,8.17552582 85.7216711,7.30873979 C87.4205717,6.43155233 89.5112596,7.12498116 90.3780456,8.8342832 C92.5900836,13.1924834 111.655909,51.8823445 100.533311,67.8554775 C99.8606848,68.8262778 98.782403,69.3428823 97.6867854,69.3428823" id="Fill-16" fill="#A19B93" sketch:type="MSShapeGroup"></path>
            <path d="M97.6867854,69.3428823 C97.0002909,69.3428823 96.3103292,69.1417879 95.7070461,68.7187964 C94.1364299,67.626646 93.7481097,65.4666152 94.8471944,63.8959989 C102.287686,53.2033264 89.6811497,22.7860711 84.1961277,11.9685815 C83.3293416,10.2627466 84.012369,8.17552582 85.7216711,7.30873979 C87.4205717,6.43155233 89.5112596,7.12498116 90.3780456,8.8342832 C92.5900836,13.1924834 111.655909,51.8823445 100.533311,67.8554775 C99.8606848,68.8262778 98.782403,69.3428823 97.6867854,69.3428823" id="Stroke-17" stroke-opacity="0" stroke="#000000" sketch:type="MSShapeGroup"></path>
            <path d="M38.1385853,77.5912181 C38.1385853,98.1791199 69.3428823,76.0275361 69.3428823,76.0275361 L69.3428823,72.560392 C69.3428823,72.560392 38.1385853,51.0363614 38.1385853,71.620796 L38.1385853,77.5912181" id="Fill-18" fill="#651D2D" sketch:type="MSShapeGroup"></path>
            <path d="M38.1385853,77.5912181 C38.1385853,98.1791199 69.3428823,76.0275361 69.3428823,76.0275361 L69.3428823,72.560392 C69.3428823,72.560392 38.1385853,51.0363614 38.1385853,71.620796 L38.1385853,77.5912181" id="Stroke-19" stroke-opacity="0" stroke="#000000" sketch:type="MSShapeGroup"></path>
            <path d="M117.8829,77.5912181 C117.8829,98.1791199 86.6786029,76.0275361 86.6786029,76.0275361 L86.6786029,72.560392 C86.6786029,72.560392 117.8829,51.0363614 117.8829,71.620796 L117.8829,77.5912181" id="Fill-20" fill="#651D2D" sketch:type="MSShapeGroup"></path>
            <path d="M117.8829,77.5912181 C117.8829,98.1791199 86.6786029,76.0275361 86.6786029,76.0275361 L86.6786029,72.560392 C86.6786029,72.560392 117.8829,51.0363614 117.8829,71.620796 L117.8829,77.5912181" id="Stroke-21" stroke-opacity="0" stroke="#000000" sketch:type="MSShapeGroup"></path>
            <path d="M62.4085941,72.8100264 C62.4085941,76.6412207 57.7522195,79.7443146 52.0071617,79.7443146 C46.2621039,79.7443146 41.6057294,76.6412207 41.6057294,72.8100264 C41.6057294,68.9788322 46.2621039,65.8757382 52.0071617,65.8757382 C57.7522195,65.8757382 62.4085941,68.9788322 62.4085941,72.8100264" id="Fill-22" fill="#C7B907" sketch:type="MSShapeGroup"></path>
            <path d="M62.4085941,72.8100264 C62.4085941,76.6412207 57.7522195,79.7443146 52.0071617,79.7443146 C46.2621039,79.7443146 41.6057294,76.6412207 41.6057294,72.8100264 C41.6057294,68.9788322 46.2621039,65.8757382 52.0071617,65.8757382 C57.7522195,65.8757382 62.4085941,68.9788322 62.4085941,72.8100264" id="Stroke-23" stroke-opacity="0" stroke="#000000" sketch:type="MSShapeGroup"></path>
            <path d="M55.4743058,72.8100264 C55.4743058,76.6412207 53.9210253,79.7443146 52.0071617,79.7443146 C50.0932982,79.7443146 48.5400176,76.6412207 48.5400176,72.8100264 C48.5400176,68.9788322 50.0932982,65.8757382 52.0071617,65.8757382 C53.9210253,65.8757382 55.4743058,68.9788322 55.4743058,72.8100264" id="Fill-24" fill="#2C2F38" sketch:type="MSShapeGroup"></path>
            <path d="M55.4743058,72.8100264 C55.4743058,76.6412207 53.9210253,79.7443146 52.0071617,79.7443146 C50.0932982,79.7443146 48.5400176,76.6412207 48.5400176,72.8100264 C48.5400176,68.9788322 50.0932982,65.8757382 52.0071617,65.8757382 C53.9210253,65.8757382 55.4743058,68.9788322 55.4743058,72.8100264" id="Stroke-25" stroke-opacity="0" stroke="#000000" sketch:type="MSShapeGroup"></path>
            <path d="M114.415756,72.8100264 C114.415756,76.6412207 109.759381,79.7443146 104.014323,79.7443146 C98.2692656,79.7443146 93.6128911,76.6412207 93.6128911,72.8100264 C93.6128911,68.9788322 98.2692656,65.8757382 104.014323,65.8757382 C109.759381,65.8757382 114.415756,68.9788322 114.415756,72.8100264" id="Fill-26" fill="#C7B907" sketch:type="MSShapeGroup"></path>
            <path d="M114.415756,72.8100264 C114.415756,76.6412207 109.759381,79.7443146 104.014323,79.7443146 C98.2692656,79.7443146 93.6128911,76.6412207 93.6128911,72.8100264 C93.6128911,68.9788322 98.2692656,65.8757382 104.014323,65.8757382 C109.759381,65.8757382 114.415756,68.9788322 114.415756,72.8100264" id="Stroke-27" stroke-opacity="0" stroke="#000000" sketch:type="MSShapeGroup"></path>
            <path d="M107.481468,72.8100264 C107.481468,76.6412207 105.928187,79.7443146 104.014323,79.7443146 C102.10046,79.7443146 100.547179,76.6412207 100.547179,72.8100264 C100.547179,68.9788322 102.10046,65.8757382 104.014323,65.8757382 C105.928187,65.8757382 107.481468,68.9788322 107.481468,72.8100264" id="Fill-28" fill="#2C2F38" sketch:type="MSShapeGroup"></path>
            <path d="M107.481468,72.8100264 C107.481468,76.6412207 105.928187,79.7443146 104.014323,79.7443146 C102.10046,79.7443146 100.547179,76.6412207 100.547179,72.8100264 C100.547179,68.9788322 102.10046,65.8757382 104.014323,65.8757382 C105.928187,65.8757382 107.481468,68.9788322 107.481468,72.8100264" id="Stroke-29" stroke-opacity="0" stroke="#000000" sketch:type="MSShapeGroup"></path>
        </g>
    </g>
</svg>