<?xml version="1.0" encoding="UTF-8" standalone="no"?>
<svg width="158px" height="188px" viewBox="0 0 158 188" version="1.1" xmlns="http://www.w3.org/2000/svg" xmlns:xlink="http://www.w3.org/1999/xlink" xmlns:sketch="http://www.bohemiancoding.com/sketch/ns">
    <!-- Generator: Sketch 3.4.2 (15855) - http://www.bohemiancoding.com/sketch -->
    <title>maul</title>
    <desc>Created with Sketch.</desc>
    <defs>
        <path id="path-1" d="M0,0 L159.488629,0 L159.488629,187.225782 L0,187.225782"></path>
    </defs>
    <g id="Page-1" stroke="none" stroke-width="1" fill="none" fill-rule="evenodd" sketch:type="MSPage">
        <g id="maul" sketch:type="MSLayerGroup" transform="translate(0.057294, 0.248524)">
            <mask id="mask-2" sketch:name="Clip 2" fill="white">
                <use xlink:href="#path-1"></use>
            </mask>
            <g id="Clip-2"></g>
            <path d="M28.3751074,95.2285802 C18.597761,99.264336 0,96.1057677 0,96.1057677 C0,96.1057677 12.2424859,107.578548 27.3557671,114.415756 C29.4152507,106.999535 29.2834992,100.453566 28.3751074,95.2285802" id="Fill-1" fill="#464F5D" sketch:type="MSShapeGroup" mask="url(#mask-2)"></path>
            <path d="M28.3751074,95.2285802 C18.597761,99.264336 0,96.1057677 0,96.1057677 C0,96.1057677 12.2424859,107.578548 27.3557671,114.415756 C29.4152507,106.999535 29.2834992,100.453566 28.3751074,95.2285802" id="Stroke-3" stroke-opacity="0" stroke="#000000" sketch:type="MSShapeGroup" mask="url(#mask-2)"></path>
            <path d="M130.191262,114.675792 C145.301076,107.838583 157.547029,96.3623364 157.547029,96.3623364 C157.547029,96.3623364 138.949268,99.5243718 129.168454,95.4886161 C128.263529,100.713602 128.131778,107.256103 130.191262,114.675792" id="Fill-4" fill="#464F5D" sketch:type="MSShapeGroup" mask="url(#mask-2)"></path>
            <path d="M130.191262,114.675792 C145.301076,107.838583 157.547029,96.3623364 157.547029,96.3623364 C157.547029,96.3623364 138.949268,99.5243718 129.168454,95.4886161 C128.263529,100.713602 128.131778,107.256103 130.191262,114.675792" id="Stroke-5" stroke-opacity="0" stroke="#000000" sketch:type="MSShapeGroup" mask="url(#mask-2)"></path>
            <path d="M29.6614179,35.4966214 C20.0712973,37.3654121 3.46714411,24.2700088 3.46714411,24.2700088 C3.46714411,24.2700088 7.91202287,51.4004115 18.4348053,57.9463796 L29.6614179,35.4966214" id="Fill-6" fill="#464F5D" sketch:type="MSShapeGroup" mask="url(#mask-2)"></path>
            <path d="M29.6614179,35.4966214 C20.0712973,37.3654121 3.46714411,24.2700088 3.46714411,24.2700088 C3.46714411,24.2700088 7.91202287,51.4004115 18.4348053,57.9463796 L29.6614179,35.4966214" id="Stroke-7" stroke-opacity="0" stroke="#000000" sketch:type="MSShapeGroup" mask="url(#mask-2)"></path>
            <path d="M128.284332,36.4882247 C137.874453,38.3604825 154.478606,25.2650792 154.478606,25.2650792 C154.478606,25.2650792 150.033727,52.3920147 139.510945,58.9414499 L128.284332,36.4882247" id="Fill-8" fill="#464F5D" sketch:type="MSShapeGroup" mask="url(#mask-2)"></path>
            <path d="M128.284332,36.4882247 C137.874453,38.3604825 154.478606,25.2650792 154.478606,25.2650792 C154.478606,25.2650792 150.033727,52.3920147 139.510945,58.9414499 L128.284332,36.4882247" id="Stroke-9" stroke-opacity="0" stroke="#000000" sketch:type="MSShapeGroup" mask="url(#mask-2)"></path>
            <path d="M138.554013,55.3806929 C134.809497,39.9519016 127.316999,29.8209065 118.871036,23.1466541 C118.264286,27.5603286 117.314288,32.1924331 115.830351,36.6719833 L99.3094089,22.4185538 C102.363963,21.7077893 105.387313,19.4056056 108.136758,16.5452117 C93.1378923,9.51384345 78.6799014,10.4777095 78.6799014,10.4777095 C78.6799014,10.4777095 64.2219104,9.51384345 49.2265121,16.5452117 C51.9759574,19.4056056 54.9993071,21.7077893 58.0538611,22.4185538 L41.5329193,36.6719833 C40.0489817,32.1924331 39.0989842,27.5603286 38.492234,23.1466541 C30.0462709,29.8209065 22.5537725,39.9519016 18.8092568,55.3806929 C18.8092568,55.3806929 13.1959505,67.5434345 22.5537725,81.5749667 C22.5537725,81.5749667 31.3880557,95.006683 26.0174494,113.878348 C23.9198272,121.249497 24.4988403,129.109513 27.1754756,136.289968 C30.4311239,145.006368 35.1915128,162.54665 40.7701476,171.380934 C44.4210504,177.16413 49.6217666,181.792764 55.7378088,184.850784 C60.9835978,187.471946 67.8277403,187.225782 73.6941482,187.225782 L85.7944811,187.225782 C91.660889,187.225782 96.3796721,187.471946 101.625461,184.850784 C107.741503,181.792764 112.94222,177.16413 116.593122,171.380934 C122.171757,162.54665 126.932146,145.006368 130.184327,136.289968 C132.86443,129.109513 133.443443,121.249497 131.34582,113.878348 C125.975214,95.006683 134.812965,81.5749667 134.812965,81.5749667 C144.167319,67.5434345 138.554013,55.3806929 138.554013,55.3806929" id="Fill-10" fill="#C03A2B" sketch:type="MSShapeGroup" mask="url(#mask-2)"></path>
            <path d="M138.554013,55.3806929 C134.809497,39.9519016 127.316999,29.8209065 118.871036,23.1466541 C118.264286,27.5603286 117.314288,32.1924331 115.830351,36.6719833 L99.3094089,22.4185538 C102.363963,21.7077893 105.387313,19.4056056 108.136758,16.5452117 C93.1378923,9.51384345 78.6799014,10.4777095 78.6799014,10.4777095 C78.6799014,10.4777095 64.2219104,9.51384345 49.2265121,16.5452117 C51.9759574,19.4056056 54.9993071,21.7077893 58.0538611,22.4185538 L41.5329193,36.6719833 C40.0489817,32.1924331 39.0989842,27.5603286 38.492234,23.1466541 C30.0462709,29.8209065 22.5537725,39.9519016 18.8092568,55.3806929 C18.8092568,55.3806929 13.1959505,67.5434345 22.5537725,81.5749667 C22.5537725,81.5749667 31.3880557,95.006683 26.0174494,113.878348 C23.9198272,121.249497 24.4988403,129.109513 27.1754756,136.289968 C30.4311239,145.006368 35.1915128,162.54665 40.7701476,171.380934 C44.4210504,177.16413 49.6217666,181.792767 55.7378088,184.850788 C60.9835978,187.471949 67.8277403,187.225782 73.6941482,187.225782 L85.7944811,187.225782 C91.660889,187.225782 96.3796721,187.471949 101.625461,184.850788 C107.741503,181.792767 112.94222,177.16413 116.593122,171.380934 C122.171757,162.54665 126.932146,145.006368 130.184327,136.289968 C132.86443,129.109513 133.443443,121.249497 131.34582,113.878348 C125.975214,95.006683 134.812965,81.5749667 134.812965,81.5749667 C144.167319,67.5434345 138.554013,55.3806929 138.554013,55.3806929" id="Stroke-11" stroke-opacity="0" stroke="#000000" sketch:type="MSShapeGroup" mask="url(#mask-2)"></path>
            <path d="M63.2199058,107.384388 C67.3042016,103.196077 65.6989138,95.9289434 60.0717389,94.3340571 C59.5377987,94.1815027 58.9761214,94.0601527 58.3832397,93.9769412 C58.3832397,93.9769412 50.4330783,92.4479307 42.7602884,84.7300679 C41.1896721,83.1525173 38.5754454,83.2565316 37.2544635,85.0525123 C34.3385953,89.0119909 31.0517427,96.0572277 37.0915077,103.102465 C37.0915077,103.102465 43.8905773,110.119964 48.6613676,113.496963 C50.5682969,114.845682 53.095845,114.897689 55.0894528,113.677254 C57.3569651,112.286929 60.602212,110.071424 63.2199058,107.384388" id="Fill-12" fill="#721B14" sketch:type="MSShapeGroup" mask="url(#mask-2)"></path>
            <path d="M63.2199058,107.384388 C67.3042016,103.196077 65.6989138,95.9289434 60.0717389,94.3340571 C59.5377987,94.1815027 58.9761214,94.0601527 58.3832397,93.9769412 C58.3832397,93.9769412 50.4330783,92.4479307 42.7602884,84.7300679 C41.1896721,83.1525173 38.5754454,83.2565316 37.2544635,85.0525123 C34.3385953,89.0119909 31.0517427,96.0572277 37.0915077,103.102465 C37.0915077,103.102465 43.8905773,110.119964 48.6613676,113.496963 C50.5682969,114.845682 53.095845,114.897689 55.0894528,113.677254 C57.3569651,112.286929 60.602212,110.071424 63.2199058,107.384388" id="Stroke-13" stroke-opacity="0" stroke="#000000" sketch:type="MSShapeGroup" mask="url(#mask-2)"></path>
            <path d="M94.1017584,90.1561484 C94.5871586,91.6088818 95.9393448,92.527675 97.3920782,92.527675 C97.7526612,92.527675 98.1236456,92.4687335 98.4876957,92.3473835 C100.304479,91.7441004 101.285681,89.7816968 100.682398,87.9614462 L97.3192682,77.6050867 L102.835494,58.3000283 L118.832897,75.1919544 C120.150412,76.5892135 122.345114,76.6412207 123.731972,75.3306402 C125.122297,74.0131254 125.184705,71.8184232 123.867191,70.4280984 L117.702608,63.9168018 L125.257515,55.3217515 L125.538354,54.9577014 C126.842,53.0022321 126.907876,50.4365454 125.781054,48.5642876 L117.473777,33.0349491 C116.572319,31.3464499 114.467763,30.7119626 112.779264,31.61342 C111.090765,32.5183447 110.456277,34.6159668 111.357735,36.3079332 L119.453516,51.4246815 L112.91795,58.8617056 L106.770703,52.374679 C105.22089,50.8248656 103.026187,50.2250496 100.911229,50.7797927 C98.7893373,51.3276015 97.1632467,52.9120863 96.5634307,55.02011 L90.65195,75.6981575 C90.2393599,77.1404894 90.2740313,78.6590985 90.7490301,80.0979633 L94.1017584,90.1561484" id="Fill-14" fill="#721B14" sketch:type="MSShapeGroup" mask="url(#mask-2)"></path>
            <path d="M94.1017584,90.1561484 C94.5871586,91.6088818 95.9393448,92.527675 97.3920782,92.527675 C97.7526612,92.527675 98.1236456,92.4687335 98.4876957,92.3473835 C100.304479,91.7441004 101.285681,89.7816968 100.682398,87.9614462 L97.3192682,77.6050867 L102.835494,58.3000283 L118.832897,75.1919544 C120.150412,76.5892135 122.345114,76.6412207 123.731972,75.3306402 C125.122297,74.0131254 125.184705,71.8184232 123.867191,70.4280984 L117.702608,63.9168018 L125.257515,55.3217515 L125.538354,54.9577014 C126.842,53.0022321 126.907876,50.4365454 125.781054,48.5642876 L117.473777,33.0349491 C116.572319,31.3464499 114.467763,30.7119626 112.779264,31.61342 C111.090765,32.5183447 110.456277,34.6159668 111.357735,36.3079332 L119.453516,51.4246815 L112.91795,58.8617056 L106.770703,52.374679 C105.22089,50.8248656 103.026187,50.2250496 100.911229,50.7797927 C98.7893373,51.3276015 97.1632467,52.9120863 96.5634307,55.02011 L90.65195,75.6981575 C90.2393599,77.1404894 90.2740313,78.6590985 90.7490301,80.0979633 L94.1017584,90.1561484" id="Stroke-15" stroke-opacity="0" stroke="#000000" sketch:type="MSShapeGroup" mask="url(#mask-2)"></path>
            <path d="M38.5719783,64.138699 L32.2444403,70.3310184 C30.8783855,71.6728031 30.8541155,73.8675054 32.1924331,75.2335601 C33.5342179,76.6030821 35.725453,76.6273521 37.098442,75.2890344 L54.5069726,58.2480211 L60.0370675,77.9032611 L56.6843391,87.9614462 C56.0775889,89.7816968 57.0587907,91.7441004 58.8755742,92.3473835 C59.2396243,92.4687335 59.6106088,92.527675 59.9711917,92.527675 C61.4239251,92.527675 62.7761113,91.6088818 63.2615115,90.1561484 L66.617707,80.091029 C67.0927058,78.6590985 67.1239101,77.1404894 66.7113199,75.7016246 L60.7998392,55.02011 C60.2000233,52.9120863 58.5739327,51.3276015 56.4520405,50.7797927 C54.323214,50.2215825 52.1423803,50.8213984 50.6203041,52.3469418 L43.5785344,59.2396243 L37.9132209,51.5425644 L47.9506031,36.6061076 C49.0184835,35.0181556 48.5954919,32.8615919 47.0075399,31.7937115 C45.423055,30.7188969 43.2630243,31.1488227 42.1951439,32.7367747 L31.6654272,48.4186676 C30.4553939,50.4400126 30.5212696,53.0091664 31.9150616,55.0894528 L38.5719783,64.138699" id="Fill-16" fill="#721B14" sketch:type="MSShapeGroup" mask="url(#mask-2)"></path>
            <path d="M38.5719783,64.138699 L32.2444403,70.3310184 C30.8783855,71.6728031 30.8541155,73.8675054 32.1924331,75.2335601 C33.5342179,76.6030821 35.725453,76.6273521 37.098442,75.2890344 L54.5069726,58.2480211 L60.0370675,77.9032611 L56.6843391,87.9614462 C56.0775889,89.7816968 57.0587907,91.7441004 58.8755742,92.3473835 C59.2396243,92.4687335 59.6106088,92.527675 59.9711917,92.527675 C61.4239251,92.527675 62.7761113,91.6088818 63.2615115,90.1561484 L66.617707,80.091029 C67.0927058,78.6590985 67.1239101,77.1404894 66.7113199,75.7016246 L60.7998392,55.02011 C60.2000233,52.9120863 58.5739327,51.3276015 56.4520405,50.7797927 C54.323214,50.2215825 52.1423803,50.8213984 50.6203041,52.3469418 L43.5785344,59.2396243 L37.9132209,51.5425644 L47.9506031,36.6061076 C49.0184835,35.0181556 48.5954919,32.8615919 47.0075399,31.7937115 C45.423055,30.7188969 43.2630243,31.1488227 42.1951439,32.7367747 L31.6654272,48.4186676 C30.4553939,50.4400126 30.5212696,53.0091664 31.9150616,55.0894528 L38.5719783,64.138699" id="Stroke-17" stroke-opacity="0" stroke="#000000" sketch:type="MSShapeGroup" mask="url(#mask-2)"></path>
            <path d="M127.476488,143.910751 C127.493823,143.848342 127.507692,143.785934 127.521561,143.723525 C127.535429,143.640314 127.514626,143.564036 127.531962,143.480825 C127.597838,143.113308 127.687983,142.752725 127.802399,142.395609 C127.833604,142.291594 127.896012,142.225719 127.930684,142.125172 C127.986158,141.917143 128.114442,141.75072 128.201121,141.560027 C128.131778,141.175174 128.031231,140.790321 127.826669,140.433205 L113.958093,116.163196 C113.008095,114.498967 110.88967,113.919954 109.228908,114.873419 C107.564679,115.823416 106.989133,117.941841 107.939131,119.602603 L111.621238,126.048024 L101.15393,133.894171 L89.3864424,119.183079 C88.1902777,117.685273 86.0059769,117.44604 84.5116378,118.642204 C83.0172987,119.841836 82.7745986,122.019203 83.9707633,123.517009 L97.8393398,140.85273 C98.0716384,141.14397 98.3802143,141.317327 98.6749215,141.511487 C98.806673,141.601633 98.9072202,141.740319 99.0459059,141.806194 C99.5174375,142.031559 100.030575,142.152909 100.547179,142.152909 L100.550646,142.152909 C100.918164,142.152909 101.289148,142.0905 101.646264,141.96915 C101.781483,141.924077 101.902833,141.833931 102.031117,141.768056 C102.232211,141.670976 102.443707,141.598166 102.627466,141.45948 L115.088382,132.115526 L121.807707,143.872612 C122.445662,144.9925 123.617556,145.620053 124.820655,145.620053 C125.403135,145.620053 125.996017,145.474433 126.536892,145.16239 C126.845467,144.985565 127.074299,144.739398 127.30313,144.493231 C127.37594,144.299071 127.382875,144.094509 127.476488,143.910751" id="Fill-18" fill="#721B14" sketch:type="MSShapeGroup" mask="url(#mask-2)"></path>
            <path d="M127.476488,143.910751 C127.493823,143.848342 127.507692,143.785934 127.521561,143.723525 C127.535429,143.640314 127.514626,143.564036 127.531962,143.480825 C127.597838,143.113308 127.687983,142.752725 127.802399,142.395609 C127.833604,142.291594 127.896012,142.225719 127.930684,142.125172 C127.986158,141.917143 128.114442,141.75072 128.201121,141.560027 C128.131778,141.175174 128.031231,140.790321 127.826669,140.433205 L113.958093,116.163196 C113.008095,114.498967 110.88967,113.919954 109.228908,114.873419 C107.564679,115.823416 106.989133,117.941841 107.939131,119.602603 L111.621238,126.048024 L101.15393,133.894171 L89.3864424,119.183079 C88.1902777,117.685273 86.0059769,117.44604 84.5116378,118.642204 C83.0172987,119.841836 82.7745986,122.019203 83.9707633,123.517009 L97.8393398,140.85273 C98.0716384,141.14397 98.3802143,141.317327 98.6749215,141.511487 C98.806673,141.601633 98.9072202,141.740319 99.0459059,141.806194 C99.5174375,142.031559 100.030575,142.152909 100.547179,142.152909 L100.550646,142.152909 C100.918164,142.152909 101.289148,142.0905 101.646264,141.96915 C101.781483,141.924077 101.902833,141.833931 102.031117,141.768056 C102.232211,141.670976 102.443707,141.598166 102.627466,141.45948 L115.088382,132.115526 L121.807707,143.872612 C122.445662,144.9925 123.617556,145.620053 124.820655,145.620053 C125.403135,145.620053 125.996017,145.474433 126.536892,145.16239 C126.845467,144.985565 127.074299,144.739398 127.30313,144.493231 C127.37594,144.299071 127.382875,144.094509 127.476488,143.910751" id="Stroke-19" stroke-opacity="0" stroke="#000000" sketch:type="MSShapeGroup" mask="url(#mask-2)"></path>
            <path d="M101.743344,149.27789 L89.0085237,142.908746 C87.7534175,142.288127 86.297217,142.35747 85.0975851,143.095972 C83.9083547,143.841408 83.2045245,145.124251 83.2149259,146.518043 L83.2114587,162.955773 L72.8100264,162.85523 L72.7302821,146.476437 C72.7233478,145.079178 72.0091161,143.810204 70.8164185,143.078636 C69.623721,142.343602 68.1675204,142.28466 66.92975,142.908746 L54.2087982,149.270956 C52.6173791,150.057997 51.7436588,151.767299 52.0348989,153.518207 C52.7248605,157.623313 53.2449322,163.663067 52.4370876,167.192623 C51.4766887,171.380934 50.5613626,176.359756 49.8609995,181.116671 C51.7124545,182.510463 53.6471209,183.803713 55.7378088,184.847319 L56.2994861,183.720493 L56.4797776,183.744763 C56.5005805,183.571409 56.5248505,183.398055 56.5491205,183.221234 L57.2876222,181.747688 C57.1246664,181.664483 56.9651778,181.581279 56.8056892,181.494593 C57.4679137,177.136393 58.3312326,172.511226 59.1945515,168.742433 C60.2312276,164.228219 59.6730174,158.070567 59.1980186,154.523682 L65.8167967,151.216023 L65.8757382,162.872569 C65.8757382,166.741891 69.023905,169.890062 72.896705,169.890062 L83.2114587,169.890062 C87.0842587,169.890062 90.2324256,166.741891 90.2324256,162.85523 L90.1734841,151.243761 L96.7679922,154.541022 C96.3415335,158.101765 95.8526662,164.304492 96.9240137,168.804846 C98.0196313,173.433479 99.0875116,179.251354 99.7740062,184.37926 L101.289148,184.174692 L101.625461,184.847319 C103.307026,184.008268 104.898445,183.027074 106.427456,181.955723 C105.709757,176.99424 104.711219,171.599364 103.671076,167.206499 C102.832027,163.68387 103.279289,157.602506 103.913776,153.469667 C104.184213,151.722226 103.293157,150.03026 101.743344,149.27789" id="Fill-20" fill="#721B14" sketch:type="MSShapeGroup" mask="url(#mask-2)"></path>
            <path d="M101.743344,149.27789 L89.0085237,142.908746 C87.7534175,142.288127 86.297217,142.35747 85.0975851,143.095972 C83.9083547,143.841408 83.2045245,145.124251 83.2149259,146.518043 L83.2114587,162.955773 L72.8100264,162.855226 L72.7302821,146.476437 C72.7233478,145.079178 72.0091161,143.810204 70.8164185,143.078636 C69.623721,142.343602 68.1675204,142.28466 66.92975,142.908746 L54.2087982,149.270956 C52.6173791,150.057997 51.7436588,151.767299 52.0348989,153.518207 C52.7248605,157.623306 53.2449322,163.663071 52.4370876,167.192623 C51.4766887,171.380934 50.5613626,176.359753 49.8609995,181.116674 C51.7124545,182.510466 53.6471209,183.803711 55.7378088,184.847321 L56.2994861,183.720499 L56.4797776,183.744769 C56.5005805,183.571412 56.5248505,183.398055 56.5491205,183.221231 L57.2876222,181.747694 C57.1246664,181.664483 56.9651778,181.581272 56.8056892,181.494593 C57.4679137,177.136393 58.3312326,172.511223 59.1945515,168.742437 C60.2312276,164.228215 59.6730174,158.070567 59.1980186,154.523679 L65.8167967,151.216023 L65.8757382,162.872562 C65.8757382,166.741895 69.023905,169.890062 72.896705,169.890062 L83.2114587,169.890062 C87.0842587,169.890062 90.2324256,166.741895 90.2324256,162.855226 L90.1734841,151.243761 L96.7679922,154.541015 C96.3415335,158.101772 95.8526662,164.304492 96.9240137,168.804846 C98.0196313,173.433483 99.0875116,179.251351 99.7740062,184.379257 L101.289148,184.174695 L101.625461,184.847321 C103.307026,184.008272 104.898445,183.027071 106.427456,181.955723 C105.709757,176.99424 104.711219,171.599364 103.671076,167.206492 C102.832027,163.683874 103.279289,157.602503 103.913776,153.469667 C104.184213,151.722226 103.293157,150.03026 101.743344,149.27789" id="Stroke-21" stroke-opacity="0" stroke="#000000" sketch:type="MSShapeGroup" mask="url(#mask-2)"></path>
            <path d="M87.3512288,24.7588761 C88.4191092,20.2966616 89.3829753,15.5917471 90.2254913,11.2058098 C83.3952174,10.1691337 78.6799014,10.4777095 78.6799014,10.4777095 C78.6799014,10.4777095 73.7808268,10.1621994 66.7425242,11.2716855 C67.8104046,15.6437542 68.951095,20.3243988 70.0120411,24.7588761 C72.0715247,33.3539264 85.2917452,33.3539264 87.3512288,24.7588761" id="Fill-22" fill="#464F5D" sketch:type="MSShapeGroup" mask="url(#mask-2)"></path>
            <path d="M87.3512288,24.7588761 C88.4191092,20.2966616 89.3829753,15.5917471 90.2254913,11.2058098 C83.3952174,10.1691337 78.6799014,10.4777095 78.6799014,10.4777095 C78.6799014,10.4777095 73.7808268,10.1621994 66.7425242,11.2716855 C67.8104046,15.6437542 68.951095,20.3243988 70.0120411,24.7588761 C72.0715247,33.3539264 85.2917452,33.3539264 87.3512288,24.7588761" id="Stroke-23" stroke-opacity="0" stroke="#000000" sketch:type="MSShapeGroup" mask="url(#mask-2)"></path>
            <path d="M62.4085941,100.547179 C62.4085941,106.292237 57.7522195,110.948612 52.0071617,110.948612 C46.2621039,110.948612 41.6057294,106.292237 41.6057294,100.547179 C41.6057294,94.8021215 46.2621039,90.145747 52.0071617,90.145747 C57.7522195,90.145747 62.4085941,94.8021215 62.4085941,100.547179" id="Fill-24" fill="#F18D46" sketch:type="MSShapeGroup" mask="url(#mask-2)"></path>
            <path d="M62.4085941,100.547179 C62.4085941,106.292237 57.7522195,110.948612 52.0071617,110.948612 C46.2621039,110.948612 41.6057294,106.292237 41.6057294,100.547179 C41.6057294,94.8021215 46.2621039,90.145747 52.0071617,90.145747 C57.7522195,90.145747 62.4085941,94.8021215 62.4085941,100.547179" id="Stroke-25" stroke-opacity="0" stroke="#000000" sketch:type="MSShapeGroup" mask="url(#mask-2)"></path>
            <path d="M58.9414499,100.547179 C58.9414499,104.378374 55.838356,107.481468 52.0071617,107.481468 C48.1759675,107.481468 45.0728735,104.378374 45.0728735,100.547179 C45.0728735,96.7159851 48.1759675,93.6128911 52.0071617,93.6128911 C55.838356,93.6128911 58.9414499,96.7159851 58.9414499,100.547179" id="Fill-26" fill="#FFC6A3" sketch:type="MSShapeGroup" mask="url(#mask-2)"></path>
            <path d="M58.9414499,100.547179 C58.9414499,104.378374 55.838356,107.481468 52.0071617,107.481468 C48.1759675,107.481468 45.0728735,104.378374 45.0728735,100.547179 C45.0728735,96.7159851 48.1759675,93.6128911 52.0071617,93.6128911 C55.838356,93.6128911 58.9414499,96.7159851 58.9414499,100.547179" id="Stroke-27" stroke-opacity="0" stroke="#000000" sketch:type="MSShapeGroup" mask="url(#mask-2)"></path>
            <path d="M55.4743058,100.547179 C55.4743058,102.461043 53.9210253,104.014323 52.0071617,104.014323 C50.0932982,104.014323 48.5400176,102.461043 48.5400176,100.547179 C48.5400176,98.6333158 50.0932982,97.0800352 52.0071617,97.0800352 C53.9210253,97.0800352 55.4743058,98.6333158 55.4743058,100.547179" id="Fill-28" fill="#464F5D" sketch:type="MSShapeGroup" mask="url(#mask-2)"></path>
            <path d="M55.4743058,100.547179 C55.4743058,102.461043 53.9210253,104.014323 52.0071617,104.014323 C50.0932982,104.014323 48.5400176,102.461043 48.5400176,100.547179 C48.5400176,98.6333158 50.0932982,97.0800352 52.0071617,97.0800352 C53.9210253,97.0800352 55.4743058,98.6333158 55.4743058,100.547179" id="Stroke-29" stroke-opacity="0" stroke="#000000" sketch:type="MSShapeGroup" mask="url(#mask-2)"></path>
            <path d="M92.4271278,107.384388 C88.342832,103.196077 89.9515869,95.9289434 95.5787618,94.3340571 C96.1092349,94.1815027 96.6709122,94.0601527 97.267261,93.9769412 C97.267261,93.9769412 105.213955,92.4479307 112.886745,84.7300679 C114.457362,83.1525173 117.075055,83.2565316 118.396037,85.0525123 C121.308438,89.0119909 124.595291,96.0572277 118.555526,103.102465 C118.555526,103.102465 111.756456,110.119964 106.985666,113.496963 C105.082204,114.845682 102.551189,114.897689 100.561048,113.677254 C98.2900685,112.286929 95.0448216,110.071424 92.4271278,107.384388" id="Fill-30" fill="#721B14" sketch:type="MSShapeGroup" mask="url(#mask-2)"></path>
            <path d="M92.4271278,107.384388 C88.342832,103.196077 89.9515869,95.9289434 95.5787618,94.3340571 C96.1092349,94.1815027 96.6709122,94.0601527 97.267261,93.9769412 C97.267261,93.9769412 105.213955,92.4479307 112.886745,84.7300679 C114.457362,83.1525173 117.075055,83.2565316 118.396037,85.0525123 C121.308438,89.0119909 124.595291,96.0572277 118.555526,103.102465 C118.555526,103.102465 111.756456,110.119964 106.985666,113.496963 C105.082204,114.845682 102.551189,114.897689 100.561048,113.677254 C98.2900685,112.286929 95.0448216,110.071424 92.4271278,107.384388" id="Stroke-31" stroke-opacity="0" stroke="#000000" sketch:type="MSShapeGroup" mask="url(#mask-2)"></path>
            <path d="M93.2384395,100.547179 C93.2384395,106.292237 97.8982812,110.948612 103.639872,110.948612 C109.38493,110.948612 114.041304,106.292237 114.041304,100.547179 C114.041304,94.8021215 109.38493,90.145747 103.639872,90.145747 C97.8982812,90.145747 93.2384395,94.8021215 93.2384395,100.547179" id="Fill-32" fill="#F18D46" sketch:type="MSShapeGroup" mask="url(#mask-2)"></path>
            <path d="M93.2384395,100.547179 C93.2384395,106.292237 97.8982812,110.948612 103.639872,110.948612 C109.38493,110.948612 114.041304,106.292237 114.041304,100.547179 C114.041304,94.8021215 109.38493,90.145747 103.639872,90.145747 C97.8982812,90.145747 93.2384395,94.8021215 93.2384395,100.547179" id="Stroke-33" stroke-opacity="0" stroke="#000000" sketch:type="MSShapeGroup" mask="url(#mask-2)"></path>
            <path d="M96.7055836,100.547179 C96.7055836,104.378374 99.8121448,107.481468 103.639872,107.481468 C107.471066,107.481468 110.57416,104.378374 110.57416,100.547179 C110.57416,96.7159851 107.471066,93.6128911 103.639872,93.6128911 C99.8121448,93.6128911 96.7055836,96.7159851 96.7055836,100.547179" id="Fill-34" fill="#FFC6A3" sketch:type="MSShapeGroup" mask="url(#mask-2)"></path>
            <path d="M96.7055836,100.547179 C96.7055836,104.378374 99.8121448,107.481468 103.639872,107.481468 C107.471066,107.481468 110.57416,104.378374 110.57416,100.547179 C110.57416,96.7159851 107.471066,93.6128911 103.639872,93.6128911 C99.8121448,93.6128911 96.7055836,96.7159851 96.7055836,100.547179" id="Stroke-35" stroke-opacity="0" stroke="#000000" sketch:type="MSShapeGroup" mask="url(#mask-2)"></path>
            <path d="M100.172728,100.547179 C100.172728,102.461043 101.726008,104.014323 103.639872,104.014323 C105.557203,104.014323 107.107016,102.461043 107.107016,100.547179 C107.107016,98.6333158 105.557203,97.0800352 103.639872,97.0800352 C101.726008,97.0800352 100.172728,98.6333158 100.172728,100.547179" id="Fill-36" fill="#464F5D" sketch:type="MSShapeGroup" mask="url(#mask-2)"></path>
            <path d="M100.172728,100.547179 C100.172728,102.461043 101.726008,104.014323 103.639872,104.014323 C105.557203,104.014323 107.107016,102.461043 107.107016,100.547179 C107.107016,98.6333158 105.557203,97.0800352 103.639872,97.0800352 C101.726008,97.0800352 100.172728,98.6333158 100.172728,100.547179" id="Stroke-37" stroke-opacity="0" stroke="#000000" sketch:type="MSShapeGroup" mask="url(#mask-2)"></path>
            <path d="M66.6350427,119.183079 L54.8640885,133.894171 L44.4002475,126.048024 L48.0823546,119.602603 C49.0323521,117.941841 48.4568061,115.823416 46.792577,114.873419 C45.1352821,113.919954 43.0133899,114.498967 42.0633924,116.163196 L28.4687203,139.951272 C29.0477334,141.650173 29.6683522,143.532832 30.3167081,145.50217 C30.6079482,145.581914 30.9061226,145.620053 31.2008299,145.620053 C32.4039289,145.620053 33.5758236,144.9925 34.2137781,143.872612 L40.9331034,132.115526 L53.3940194,141.45948 C53.577778,141.598166 53.7858066,141.670976 53.986901,141.768056 C54.1186525,141.833931 54.2400025,141.924077 54.3752211,141.96915 C54.732337,142.0905 55.1033214,142.152909 55.4708387,142.152909 C55.9874432,142.152909 56.5005805,142.031559 56.9721121,141.806194 C57.1246664,141.733384 57.2321479,141.584297 57.3743008,141.490684 C57.6586066,141.296524 57.956781,141.133568 58.1821454,140.85273 L72.0507218,123.517009 C73.2468866,122.019203 73.0041865,119.841836 71.5063802,118.642204 C70.0155082,117.44604 67.8312075,117.692207 66.6350427,119.183079" id="Fill-38" fill="#721B14" sketch:type="MSShapeGroup" mask="url(#mask-2)"></path>
            <path d="M66.6350427,119.183079 L54.8640885,133.894171 L44.4002475,126.048024 L48.0823546,119.602603 C49.0323521,117.941841 48.4568061,115.823416 46.792577,114.873419 C45.1352821,113.919954 43.0133899,114.498967 42.0633924,116.163196 L28.4687203,139.951272 C29.0477334,141.650173 29.6683522,143.532832 30.3167081,145.50217 C30.6079482,145.581914 30.9061226,145.620053 31.2008299,145.620053 C32.4039289,145.620053 33.5758236,144.9925 34.2137781,143.872612 L40.9331034,132.115526 L53.3940194,141.45948 C53.577778,141.598166 53.7858066,141.670976 53.986901,141.768056 C54.1186525,141.833931 54.2400025,141.924077 54.3752211,141.96915 C54.732337,142.0905 55.1033214,142.152909 55.4708387,142.152909 C55.9874432,142.152909 56.5005805,142.031559 56.9721121,141.806194 C57.1246664,141.733384 57.2321479,141.584297 57.3743008,141.490684 C57.6586066,141.296524 57.956781,141.133568 58.1821454,140.85273 L72.0507218,123.517009 C73.2468866,122.019203 73.0041865,119.841836 71.5063802,118.642204 C70.0155082,117.44604 67.8312075,117.692207 66.6350427,119.183079" id="Stroke-39" stroke-opacity="0" stroke="#000000" sketch:type="MSShapeGroup" mask="url(#mask-2)"></path>
            <path d="M58.0538611,22.4185538 C47.8396545,20.0366258 37.8646809,0 37.8646809,0 C37.8646809,0 35.8572044,19.5304228 41.5329193,36.6719833 L58.0538611,22.4185538" id="Fill-40" fill="#464F5D" sketch:type="MSShapeGroup" mask="url(#mask-2)"></path>
            <path d="M58.0538611,22.4185538 C47.8396545,20.0366258 37.8646809,0 37.8646809,0 C37.8646809,0 35.8572044,19.5304228 41.5329193,36.6719833 L58.0538611,22.4185538" id="Stroke-41" stroke-opacity="0" stroke="#000000" sketch:type="MSShapeGroup" mask="url(#mask-2)"></path>
            <path d="M99.3094089,22.4185538 C109.523615,20.0366258 119.498589,0 119.498589,0 C119.498589,0 121.506065,19.5304228 115.830351,36.6719833 L99.3094089,22.4185538" id="Fill-42" fill="#464F5D" sketch:type="MSShapeGroup" mask="url(#mask-2)"></path>
            <path d="M99.3094089,22.4185538 C109.523615,20.0366258 119.498589,0 119.498589,0 C119.498589,0 121.506065,19.5304228 115.830351,36.6719833 L99.3094089,22.4185538" id="Stroke-43" stroke-opacity="0" stroke="#000000" sketch:type="MSShapeGroup" mask="url(#mask-2)"></path>
        </g>
    </g>
</svg>