<?xml version="1.0" encoding="UTF-8" standalone="no"?>
<svg width="151px" height="195px" viewBox="0 0 151 195" version="1.1" xmlns="http://www.w3.org/2000/svg" xmlns:xlink="http://www.w3.org/1999/xlink" xmlns:sketch="http://www.bohemiancoding.com/sketch/ns">
    <!-- Generator: Sketch 3.4.2 (15855) - http://www.bohemiancoding.com/sketch -->
    <title>popcorn</title>
    <desc>Created with Sketch.</desc>
    <defs></defs>
    <g id="Page-1" stroke="none" stroke-width="1" fill="none" fill-rule="evenodd" sketch:type="MSPage">
        <g id="popcorn" sketch:type="MSLayerGroup" transform="translate(-1.538761, 0.344139)">
            <path d="M121.350044,194.16007 L34.6714411,194.16007 L13.8685765,76.2771705 L142.152909,76.2771705 L121.350044,194.16007" id="Fill-1" fill="#ECF0F1" sketch:type="MSShapeGroup"></path>
            <path d="M121.350044,194.16007 L34.6714411,194.16007 L13.8685765,76.2771705 L142.152909,76.2771705 L121.350044,194.16007" id="Stroke-3" stroke-opacity="0" stroke="#000000" sketch:type="MSShapeGroup"></path>
            <path d="M138.841786,54.8432856 C137.354381,54.8432856 135.950188,55.14146 134.608403,55.5783202 C137.208761,53.0854435 138.841786,49.5905623 138.841786,45.7038937 C138.841786,38.131651 132.704941,31.9913387 125.132698,31.9913387 C124.834524,31.9913387 124.557152,32.0606816 124.265912,32.0780173 C124.796385,30.6183497 125.132698,29.0650691 125.132698,27.4216428 C125.132698,19.8494001 118.992386,13.712555 111.420143,13.712555 C111.420143,6.14031223 105.283298,0 97.7110554,0 C91.3800503,0 86.1030569,4.31312728 84.5289735,10.1448637 C82.9479558,9.51037631 81.2351866,9.13939189 79.4288045,9.13939189 C75.4554574,9.13939189 71.9051018,10.8590954 69.4018237,13.5600006 C67.4706245,8.32461302 62.4814041,4.56969594 56.5768577,4.56969594 C49.0046149,4.56969594 42.8677698,10.7100082 42.8677698,18.2822509 C42.8677698,18.5769582 42.9336456,18.8577968 42.9544484,19.1490369 C41.4947808,18.6185639 39.9415002,18.2822509 38.2946067,18.2822509 C30.722364,18.2822509 24.5855189,24.419096 24.5855189,31.9913387 C24.5855189,33.6347651 24.9218319,35.1880456 25.4523049,36.6511804 C25.1610648,36.6303776 24.8836933,36.5610347 24.5855189,36.5610347 C17.0132762,36.5610347 10.8729639,42.7013469 10.8729639,50.2735897 C10.8729639,52.0799717 11.2439484,53.7927409 11.8784357,55.3702915 C6.04669934,56.9478421 1.73357206,62.2248354 1.73357206,68.5558406 C1.73357206,75.9477918 7.59304561,81.9286154 14.915654,82.2129212 L13.8685765,76.2771705 L142.152909,76.2771705 L141.137035,82.0360969 C147.610194,80.9404794 152.554341,75.3410416 152.554341,68.5558406 C152.554341,60.9835978 146.414029,54.8432856 138.841786,54.8432856" id="Fill-4" fill="#F9EBB0" sketch:type="MSShapeGroup"></path>
            <path d="M138.841786,54.8432856 C137.354381,54.8432856 135.950188,55.14146 134.608403,55.5783202 C137.208761,53.0854435 138.841786,49.5905623 138.841786,45.7038937 C138.841786,38.131651 132.704941,31.9913387 125.132698,31.9913387 C124.834524,31.9913387 124.557152,32.0606816 124.265912,32.0780173 C124.796385,30.6183497 125.132698,29.0650691 125.132698,27.4216428 C125.132698,19.8494001 118.992386,13.712555 111.420143,13.712555 C111.420143,6.14031223 105.283298,0 97.7110554,0 C91.3800503,0 86.1030569,4.31312728 84.5289735,10.1448637 C82.9479558,9.51037631 81.2351866,9.13939189 79.4288045,9.13939189 C75.4554574,9.13939189 71.9051018,10.8590954 69.4018237,13.5600006 C67.4706245,8.32461302 62.4814041,4.56969594 56.5768577,4.56969594 C49.0046149,4.56969594 42.8677698,10.7100082 42.8677698,18.2822509 C42.8677698,18.5769582 42.9336456,18.8577968 42.9544484,19.1490369 C41.4947808,18.6185639 39.9415002,18.2822509 38.2946067,18.2822509 C30.722364,18.2822509 24.5855189,24.419096 24.5855189,31.9913387 C24.5855189,33.6347651 24.9218319,35.1880456 25.4523049,36.6511804 C25.1610648,36.6303776 24.8836933,36.5610347 24.5855189,36.5610347 C17.0132762,36.5610347 10.8729639,42.7013469 10.8729639,50.2735897 C10.8729639,52.0799717 11.2439484,53.7927409 11.8784357,55.3702915 C6.04669934,56.9478421 1.73357206,62.2248354 1.73357206,68.5558406 C1.73357206,75.9477918 7.59304561,81.9286154 14.915654,82.2129212 L13.8685765,76.2771705 L142.152909,76.2771705 L141.137035,82.0360969 C147.610194,80.9404794 152.554341,75.3410416 152.554341,68.5558406 C152.554341,60.9835978 146.414029,54.8432856 138.841786,54.8432856" id="Stroke-5" stroke-opacity="0" stroke="#000000" sketch:type="MSShapeGroup"></path>
            <path d="M110.948612,52.0071617 C110.948612,44.3482404 104.738957,38.1385853 97.0800352,38.1385853 C91.0264016,38.1385853 85.9331669,42.0425895 84.0401062,47.4478672 C81.8246011,45.9500609 79.151433,45.0728735 76.2771705,45.0728735 C68.6182492,45.0728735 62.4085941,51.2825286 62.4085941,58.9414499" id="Fill-6" fill-opacity="0" fill="#000000" sketch:type="MSShapeGroup"></path>
            <path d="M110.948612,52.0071617 C110.948612,44.3482404 104.738957,38.1385853 97.0800352,38.1385853 C91.0264016,38.1385853 85.9331669,42.0425895 84.0401062,47.4478672 C81.8246011,45.9500609 79.151433,45.0728735 76.2771705,45.0728735 C68.6182492,45.0728735 62.4085941,51.2825286 62.4085941,58.9414499" id="Stroke-7" stroke="#FAC176" stroke-width="2" stroke-linecap="round" stroke-linejoin="round" sketch:type="MSShapeGroup"></path>
            <path d="M110.948612,133.485048 C110.948612,151.677154 96.2028477,166.422917 78.0107426,166.422917 C59.8186374,166.422917 45.0728735,151.677154 45.0728735,133.485048 C45.0728735,115.292943 59.8186374,100.547179 78.0107426,100.547179 C96.2028477,100.547179 110.948612,115.292943 110.948612,133.485048" id="Fill-8" fill="#ECF0F1" sketch:type="MSShapeGroup"></path>
            <path d="M110.948612,133.485048 C110.948612,151.677154 96.2028477,166.422917 78.0107426,166.422917 C59.8186374,166.422917 45.0728735,151.677154 45.0728735,133.485048 C45.0728735,115.292943 59.8186374,100.547179 78.0107426,100.547179 C96.2028477,100.547179 110.948612,115.292943 110.948612,133.485048" id="Stroke-9" stroke-opacity="0" stroke="#000000" sketch:type="MSShapeGroup"></path>
            <path d="M45.0728735,133.485048 C45.0728735,125.878134 47.6766987,118.895306 52.0071617,113.316671 L52.0071617,76.2771705 L34.6714411,76.2771705 L34.6714411,194.16007 L52.0071617,194.16007 L52.0071617,153.653426 C47.6766987,148.074791 45.0728735,141.091963 45.0728735,133.485048" id="Fill-10" fill="#E64C3C" sketch:type="MSShapeGroup"></path>
            <path d="M45.0728735,133.485048 C45.0728735,125.878134 47.6766987,118.895306 52.0071617,113.316671 L52.0071617,76.2771705 L34.6714411,76.2771705 L34.6714411,194.16007 L52.0071617,194.16007 L52.0071617,153.653426 C47.6766987,148.074791 45.0728735,141.091963 45.0728735,133.485048" id="Stroke-11" stroke-opacity="0" stroke="#000000" sketch:type="MSShapeGroup"></path>
            <path d="M78.0107426,100.547179 C81.0167565,100.547179 83.9118219,100.984039 86.6786029,101.739877 L86.6786029,76.2771705 L69.3428823,76.2771705 L69.3428823,101.739877 C72.1096633,100.984039 75.0047286,100.547179 78.0107426,100.547179" id="Fill-12" fill="#E64C3C" sketch:type="MSShapeGroup"></path>
            <path d="M78.0107426,100.547179 C81.0167565,100.547179 83.9118219,100.984039 86.6786029,101.739877 L86.6786029,76.2771705 L69.3428823,76.2771705 L69.3428823,101.739877 C72.1096633,100.984039 75.0047286,100.547179 78.0107426,100.547179" id="Stroke-13" stroke-opacity="0" stroke="#000000" sketch:type="MSShapeGroup"></path>
            <path d="M78.0107426,166.422917 C75.0047286,166.422917 72.1096633,165.986061 69.3428823,165.230213 L69.3428823,194.16007 L86.6786029,194.16007 L86.6786029,165.230213 C83.9118219,165.986061 81.0167565,166.422917 78.0107426,166.422917" id="Fill-14" fill="#E64C3C" sketch:type="MSShapeGroup"></path>
            <path d="M78.0107426,166.422917 C75.0047286,166.422917 72.1096633,165.986057 69.3428823,165.23022 L69.3428823,194.16007 L86.6786029,194.16007 L86.6786029,165.23022 C83.9118219,165.986057 81.0167565,166.422917 78.0107426,166.422917" id="Stroke-15" stroke-opacity="0" stroke="#000000" sketch:type="MSShapeGroup"></path>
            <path d="M104.014323,76.2771705 L104.014323,113.316671 C108.344786,118.895306 110.948612,125.878134 110.948612,133.485048 C110.948612,141.091963 108.344786,148.074791 104.014323,153.653426 L104.014323,194.16007 L121.350044,194.16007 L121.350044,76.2771705 L104.014323,76.2771705" id="Fill-16" fill="#E64C3C" sketch:type="MSShapeGroup"></path>
            <path d="M104.014323,76.2771705 L104.014323,113.316671 C108.344786,118.895306 110.948612,125.878134 110.948612,133.485048 C110.948612,141.091963 108.344786,148.074791 104.014323,153.653426 L104.014323,194.16007 L121.350044,194.16007 L121.350044,76.2771705 L104.014323,76.2771705" id="Stroke-17" stroke-opacity="0" stroke="#000000" sketch:type="MSShapeGroup"></path>
            <path d="M93.6128911,133.485048 C93.6128911,142.100902 86.6265957,149.087197 78.0107426,149.087197 C69.3948895,149.087197 62.4085941,142.100902 62.4085941,133.485048 C62.4085941,124.869195 69.3948895,117.8829 78.0107426,117.8829 C86.6265957,117.8829 93.6128911,124.869195 93.6128911,133.485048" id="Fill-18" fill="#E64C3C" sketch:type="MSShapeGroup"></path>
            <path d="M93.6128911,133.485048 C93.6128911,142.100902 86.6265957,149.087197 78.0107426,149.087197 C69.3948895,149.087197 62.4085941,142.100902 62.4085941,133.485048 C62.4085941,124.869195 69.3948895,117.8829 78.0107426,117.8829 C86.6265957,117.8829 93.6128911,124.869195 93.6128911,133.485048" id="Stroke-19" stroke-opacity="0" stroke="#000000" sketch:type="MSShapeGroup"></path>
        </g>
    </g>
</svg>