<?xml version="1.0" encoding="UTF-8" standalone="no"?>
<svg width="161px" height="194px" viewBox="0 0 161 194" version="1.1" xmlns="http://www.w3.org/2000/svg" xmlns:xlink="http://www.w3.org/1999/xlink" xmlns:sketch="http://www.bohemiancoding.com/sketch/ns">
    <!-- Generator: Sketch 3.4.2 (15855) - http://www.bohemiancoding.com/sketch -->
    <title>saw</title>
    <desc>Created with Sketch.</desc>
    <defs></defs>
    <g id="Page-1" stroke="none" stroke-width="1" fill="none" fill-rule="evenodd" sketch:type="MSPage">
        <g id="saw" sketch:type="MSLayerGroup" transform="translate(0.692926, 0.724086)">
            <path d="M135.277562,84.4110906 C135.26716,84.4110906 135.21862,84.4076235 135.21862,84.4076235 L135.21862,47.0595471 C135.079935,30.2508324 124.418467,15.4530613 113.146781,8.78921033 C93.3251181,-2.92973678 67.9837618,-2.92973678 48.1620989,8.78921033 C36.8904134,15.4530613 27.8758387,30.2508324 27.7371529,47.0595471 L27.7371529,84.4076235 C27.7371529,84.4076235 27.3627014,84.4041563 26.7559511,84.4561635 C26.4577767,84.4457621 26.1665366,84.4110906 25.8648951,84.4110906 C12.0691287,84.4110906 0,95.2805874 0,108.688034 C0,122.09548 11.1850069,132.964977 24.9807733,132.964977 C25.500845,132.964977 26.0105151,132.919904 26.5236525,132.8887 C29.3875135,133.589063 31.7971787,135.502926 33.1979049,138.079014 C36.4986261,144.160385 42.9405799,153.948133 51.7471259,157.661444 C54.4133597,158.784799 56.5456534,160.736805 57.7036795,163.215813 L65.8757382,166.738428 L65.8757382,168.888053 C65.8757382,168.884586 65.8792053,168.884586 65.8792053,168.881123 C65.9000082,165.608135 68.5558406,162.955773 71.8357589,162.955773 L86.6786029,162.955773 C88.8108965,162.955773 90.70049,163.95084 91.9763991,165.476391 C92.5484778,165.701752 93.1344252,165.913251 93.6128911,166.249564 L93.6128911,166.176754 L104.766694,161.371285 C105.980194,159.783333 107.609752,158.483157 109.561754,157.661444 C118.389103,153.941199 124.837991,144.115312 128.135245,138.037409 C129.466628,135.579203 131.734141,133.741617 134.428112,132.96151 C134.455849,132.96151 134.480119,132.964977 134.507856,132.964977 C148.303622,132.964977 159.488629,122.09548 159.488629,108.688034 C159.488629,95.2840546 149.069861,84.4145578 135.277562,84.4110906" id="Fill-1" fill="#E6E7E8" sketch:type="MSShapeGroup"></path>
            <path d="M135.277562,84.4110906 C135.26716,84.4110906 135.21862,84.4076235 135.21862,84.4076235 L135.21862,47.0595471 C135.079935,30.2508324 124.418467,15.4530613 113.146781,8.78921033 C93.3251181,-2.92973678 67.9837618,-2.92973678 48.1620989,8.78921033 C36.8904134,15.4530613 27.8758387,30.2508324 27.7371529,47.0595471 L27.7371529,84.4076235 C27.7371529,84.4076235 27.3627014,84.4041563 26.7559511,84.4561635 C26.4577767,84.4457621 26.1665366,84.4110906 25.8648951,84.4110906 C12.0691287,84.4110906 0,95.2805874 0,108.688034 C0,122.09548 11.1850069,132.964977 24.9807733,132.964977 C25.500845,132.964977 26.0105151,132.919904 26.5236525,132.8887 C29.3875135,133.589063 31.7971787,135.502926 33.1979049,138.079014 C36.4986261,144.160385 42.9405799,153.948133 51.7471259,157.661444 C54.4133597,158.784799 56.5456534,160.736801 57.7036795,163.215809 L65.8757382,166.738428 L65.8757382,168.888057 C65.8757382,168.88459 65.8792053,168.88459 65.8792053,168.881123 C65.9000082,165.608139 68.5558406,162.955773 71.8357589,162.955773 L86.6786029,162.955773 C88.8108965,162.955773 90.70049,163.950844 91.9763991,165.476387 C92.5484778,165.701752 93.1344252,165.913247 93.6128911,166.24956 L93.6128911,166.17675 L104.766694,161.371289 C105.980194,159.783337 107.609752,158.483157 109.561754,157.661444 C118.389103,153.941199 124.837991,144.115312 128.135245,138.037409 C129.466628,135.579203 131.734141,133.741617 134.428112,132.96151 C134.455849,132.96151 134.480119,132.964977 134.507856,132.964977 C148.303622,132.964977 159.488629,122.09548 159.488629,108.688034 C159.488629,95.2840546 149.069861,84.4145578 135.277562,84.4110906" id="Stroke-3" stroke-opacity="0" stroke="#000000" sketch:type="MSShapeGroup"></path>
            <path d="M26.8114254,121.762634 C19.6067,121.762634 13.7402921,115.899693 13.7402921,108.688034 C13.7402921,101.479841 19.6067,95.6169004 26.8114254,95.6169004 C34.0196181,95.6169004 39.8860259,101.479841 39.8860259,108.688034 C39.8860259,115.899693 34.0196181,121.762634 26.8114254,121.762634" id="Fill-4" fill="#F07052" sketch:type="MSShapeGroup"></path>
            <path d="M26.8114254,121.762634 C19.6067,121.762634 13.7402921,115.899693 13.7402921,108.688034 C13.7402921,101.479841 19.6067,95.6169004 26.8114254,95.6169004 C34.0196181,95.6169004 39.8860259,101.479841 39.8860259,108.688034 C39.8860259,115.899693 34.0196181,121.762634 26.8114254,121.762634" id="Stroke-5" stroke-opacity="0" stroke="#000000" sketch:type="MSShapeGroup"></path>
            <path d="M76.2771705,56.4555076 C76.2771705,66.0282925 68.5142348,73.7912282 58.9414499,73.7912282 C49.368665,73.7912282 41.6057294,66.0282925 41.6057294,56.4555076 C41.6057294,46.8792556 49.368665,39.119787 58.9414499,39.119787 C68.5142348,39.119787 76.2771705,46.8792556 76.2771705,56.4555076" id="Fill-6" fill="#F07052" sketch:type="MSShapeGroup"></path>
            <path d="M76.2771705,56.4555076 C76.2771705,66.0282925 68.5142348,73.7912282 58.9414499,73.7912282 C49.368665,73.7912282 41.6057294,66.0282925 41.6057294,56.4555076 C41.6057294,46.8792556 49.368665,39.119787 58.9414499,39.119787 C68.5142348,39.119787 76.2771705,46.8792556 76.2771705,56.4555076" id="Stroke-7" stroke-opacity="0" stroke="#000000" sketch:type="MSShapeGroup"></path>
            <path d="M135.125008,121.762634 C127.916815,121.762634 122.050407,115.899693 122.050407,108.688034 C122.050407,101.479841 127.916815,95.6169004 135.125008,95.6169004 C142.3332,95.6169004 148.196141,101.479841 148.196141,108.688034 C148.196141,115.899693 142.3332,121.762634 135.125008,121.762634" id="Fill-8" fill="#F07052" sketch:type="MSShapeGroup"></path>
            <path d="M135.125008,121.762634 C127.916815,121.762634 122.050407,115.899693 122.050407,108.688034 C122.050407,101.479841 127.916815,95.6169004 135.125008,95.6169004 C142.3332,95.6169004 148.196141,101.479841 148.196141,108.688034 C148.196141,115.899693 142.3332,121.762634 135.125008,121.762634" id="Stroke-9" stroke-opacity="0" stroke="#000000" sketch:type="MSShapeGroup"></path>
            <path d="M48.5400176,125.892003 L48.5400176,110.948612 C48.5400176,115.220133 68.6009135,124.883064 79.7443146,124.817188 C90.8877158,124.883064 110.948612,115.2236 110.948612,110.952079 L110.948612,125.892003 C110.948612,130.163524 90.8877158,138.75164 79.7443146,138.685765 C68.6009135,138.75164 48.5400176,130.163524 48.5400176,125.892003" id="Fill-10" fill="#F07052" sketch:type="MSShapeGroup"></path>
            <path d="M48.5400176,125.892003 L48.5400176,110.948612 C48.5400176,115.220133 68.6009135,124.883064 79.7443146,124.817188 C90.8877158,124.883064 110.948612,115.2236 110.948612,110.952079 L110.948612,125.892003 C110.948612,130.163524 90.8877158,138.75164 79.7443146,138.685765 C68.6009135,138.75164 48.5400176,130.163524 48.5400176,125.892003" id="Stroke-11" stroke-opacity="0" stroke="#000000" sketch:type="MSShapeGroup"></path>
            <path d="M121.350044,56.4555076 C121.350044,66.0282925 113.587108,73.7912282 104.014323,73.7912282 C94.4415385,73.7912282 86.6786029,66.0282925 86.6786029,56.4555076 C86.6786029,46.8792556 94.4415385,39.119787 104.014323,39.119787 C113.587108,39.119787 121.350044,46.8792556 121.350044,56.4555076" id="Fill-12" fill="#F07052" sketch:type="MSShapeGroup"></path>
            <path d="M121.350044,56.4555076 C121.350044,66.0282925 113.587108,73.7912282 104.014323,73.7912282 C94.4415385,73.7912282 86.6786029,66.0282925 86.6786029,56.4555076 C86.6786029,46.8792556 94.4415385,39.119787 104.014323,39.119787 C113.587108,39.119787 121.350044,46.8792556 121.350044,56.4555076" id="Stroke-13" stroke-opacity="0" stroke="#000000" sketch:type="MSShapeGroup"></path>
            <path d="M57.2078779,48.5400176 C52.4301533,48.5400176 48.5400176,52.4266862 48.5400176,57.2078779 C48.5400176,61.9890696 52.4301533,65.8757382 57.2078779,65.8757382 C61.9856025,65.8757382 65.8757382,61.9890696 65.8757382,57.2078779 C65.8757382,52.4266862 61.9856025,48.5400176 57.2078779,48.5400176" id="Fill-14" fill="#464F5D" sketch:type="MSShapeGroup"></path>
            <path d="M57.2078779,48.5400176 C52.4301533,48.5400176 48.5400176,52.4266862 48.5400176,57.2078779 C48.5400176,61.9890696 52.4301533,65.8757382 57.2078779,65.8757382 C61.9856025,65.8757382 65.8757382,61.9890696 65.8757382,57.2078779 C65.8757382,52.4266862 61.9856025,48.5400176 57.2078779,48.5400176" id="Stroke-15" stroke-opacity="0" stroke="#000000" sketch:type="MSShapeGroup"></path>
            <path d="M102.280751,48.5400176 C97.5030268,48.5400176 93.6128911,52.4266862 93.6128911,57.2078779 C93.6128911,61.9890696 97.5030268,65.8757382 102.280751,65.8757382 C107.058476,65.8757382 110.948612,61.9890696 110.948612,57.2078779 C110.948612,52.4266862 107.058476,48.5400176 102.280751,48.5400176" id="Fill-16" fill="#464F5D" sketch:type="MSShapeGroup"></path>
            <path d="M102.280751,48.5400176 C97.5030268,48.5400176 93.6128911,52.4266862 93.6128911,57.2078779 C93.6128911,61.9890696 97.5030268,65.8757382 102.280751,65.8757382 C107.058476,65.8757382 110.948612,61.9890696 110.948612,57.2078779 C110.948612,52.4266862 107.058476,48.5400176 102.280751,48.5400176" id="Stroke-17" stroke-opacity="0" stroke="#000000" sketch:type="MSShapeGroup"></path>
            <path d="M67.8970832,185.412469 L44.3933132,190.477963 C38.662124,191.712262 33.225642,187.485821 33.225642,181.792764 L33.225642,165.486789 C33.225642,159.051769 40.0593831,154.745576 46.1303524,157.359803 L67.8970832,166.738428 L67.8970832,185.412469" id="Fill-18" fill="#E64C3C" sketch:type="MSShapeGroup"></path>
            <path d="M67.8970832,185.412466 L44.3933132,190.477963 C38.662124,191.712267 33.225642,187.485818 33.225642,181.792767 L33.225642,165.486789 C33.225642,159.051769 40.0593831,154.745576 46.1303524,157.359803 L67.8970832,166.738428 L67.8970832,185.412466" id="Stroke-19" stroke-opacity="0" stroke="#000000" sketch:type="MSShapeGroup"></path>
            <path d="M90.866913,184.854263 L113.462291,192.156064 C119.404976,194.073387 125.538354,189.787995 125.538354,183.717029 L125.538354,164.928578 C125.538354,158.490092 118.704613,154.183899 112.637111,156.798125 L90.866913,166.180217 L90.866913,184.854263" id="Fill-20" fill="#E64C3C" sketch:type="MSShapeGroup"></path>
            <path d="M90.866913,184.854256 L113.462291,192.156061 C119.404976,194.073392 125.538354,189.788002 125.538354,183.717032 L125.538354,164.928578 C125.538354,158.490092 118.704613,154.183899 112.637111,156.798125 L90.866913,166.180217 L90.866913,184.854256" id="Stroke-21" stroke-opacity="0" stroke="#000000" sketch:type="MSShapeGroup"></path>
            <path d="M85.7043354,190.692926 L72.8100264,190.692926 C68.9961679,190.692926 65.8757382,187.57249 65.8757382,183.758638 L65.8757382,168.919265 C65.8757382,165.625474 68.5454391,162.955773 71.8357589,162.955773 L86.6786029,162.955773 C90.4924614,162.955773 93.6128911,166.07621 93.6128911,169.890062 L93.6128911,182.787841 C93.6128911,187.135633 90.0556012,190.692926 85.7043354,190.692926" id="Fill-22" fill="#C03A2B" sketch:type="MSShapeGroup"></path>
            <path d="M85.7043354,190.692926 L72.8100264,190.692926 C68.9961679,190.692926 65.8757382,187.572497 65.8757382,183.758638 L65.8757382,168.919261 C65.8757382,165.625474 68.5454391,162.955773 71.8357589,162.955773 L86.6786029,162.955773 C90.4924614,162.955773 93.6128911,166.076203 93.6128911,169.890062 L93.6128911,182.787838 C93.6128911,187.135636 90.0556012,190.692926 85.7043354,190.692926" id="Stroke-23" stroke-opacity="0" stroke="#000000" sketch:type="MSShapeGroup"></path>
            <path d="M79.7443146,110.948612 C77.8304511,110.948612 76.2771705,109.398798 76.2771705,107.481468 L76.2771705,83.2114587 C76.2771705,81.2941281 77.8304511,79.7443146 79.7443146,79.7443146 C81.6581782,79.7443146 83.2114587,81.2941281 83.2114587,83.2114587 L83.2114587,107.481468 C83.2114587,109.398798 81.6581782,110.948612 79.7443146,110.948612" id="Fill-24" fill="#BDC3C7" sketch:type="MSShapeGroup"></path>
            <path d="M79.7443146,110.948612 C77.8304511,110.948612 76.2771705,109.398798 76.2771705,107.481468 L76.2771705,83.2114587 C76.2771705,81.2941281 77.8304511,79.7443146 79.7443146,79.7443146 C81.6581782,79.7443146 83.2114587,81.2941281 83.2114587,83.2114587 L83.2114587,107.481468 C83.2114587,109.398798 81.6581782,110.948612 79.7443146,110.948612" id="Stroke-25" stroke-opacity="0" stroke="#000000" sketch:type="MSShapeGroup"></path>
            <path d="M79.7443146,110.948612 C78.8567257,110.948612 77.9691368,110.608832 77.2930437,109.932738 C75.9373904,108.577085 75.9373904,106.38585 77.2930437,105.030197 L87.6944761,94.6287643 C89.0501294,93.273111 91.2413645,93.273111 92.5970179,94.6287643 C93.9526712,95.9844177 93.9526712,98.1756527 92.5970179,99.5313061 L82.1955855,109.932738 C81.5194924,110.608832 80.6319035,110.948612 79.7443146,110.948612" id="Fill-26" fill="#BDC3C7" sketch:type="MSShapeGroup"></path>
            <path d="M79.7443146,110.948612 C78.8567257,110.948612 77.9691368,110.608832 77.2930437,109.932738 C75.9373904,108.577085 75.9373904,106.38585 77.2930437,105.030197 L87.6944761,94.6287643 C89.0501294,93.273111 91.2413645,93.273111 92.5970179,94.6287643 C93.9526712,95.9844177 93.9526712,98.1756527 92.5970179,99.5313061 L82.1955855,109.932738 C81.5194924,110.608832 80.6319035,110.948612 79.7443146,110.948612" id="Stroke-27" stroke-opacity="0" stroke="#000000" sketch:type="MSShapeGroup"></path>
            <path d="M79.7443146,110.948612 C78.8567257,110.948612 77.9691368,110.608832 77.2930437,109.932738 L66.8916114,99.5313061 C65.5359581,98.1756527 65.5359581,95.9844177 66.8916114,94.6287643 C68.2472648,93.273111 70.4384998,93.273111 71.7941532,94.6287643 L82.1955855,105.030197 C83.5512389,106.38585 83.5512389,108.577085 82.1955855,109.932738 C81.5194924,110.608832 80.6319035,110.948612 79.7443146,110.948612" id="Fill-28" fill="#BDC3C7" sketch:type="MSShapeGroup"></path>
            <path d="M79.7443146,110.948612 C78.8567257,110.948612 77.9691368,110.608832 77.2930437,109.932738 L66.8916114,99.5313061 C65.5359581,98.1756527 65.5359581,95.9844177 66.8916114,94.6287643 C68.2472648,93.273111 70.4384998,93.273111 71.7941532,94.6287643 L82.1955855,105.030197 C83.5512389,106.38585 83.5512389,108.577085 82.1955855,109.932738 C81.5194924,110.608832 80.6319035,110.948612 79.7443146,110.948612" id="Stroke-29" stroke-opacity="0" stroke="#000000" sketch:type="MSShapeGroup"></path>
            <path d="M7.63465134,91.6504875 C12.3881059,87.1848059 18.9028697,84.4110906 25.8648951,84.4110906 C26.1665366,84.4110906 26.4577767,84.4457621 26.7559511,84.4561635 C27.3627014,84.4041563 27.7371529,84.4076235 27.7371529,84.4076235 L27.7371529,47.0595471 C27.8758387,30.2508324 36.8904134,15.4530613 48.1620989,8.78921033 C48.7203091,8.45983164 49.295855,8.17205868 49.8644667,7.86001571 C47.7529759,7.25673263 45.5721422,6.93428823 43.3393014,6.93428823 C25.1471963,6.93428823 10.4014323,27.8897073 10.4014323,53.7407338 C10.4014323,54.9507671 10.4326366,56.1503989 10.4985124,57.3396294 C10.8070882,63.10549 10.5401181,68.951095 8.67479457,74.4187813 C7.10071115,79.0404844 6.52516522,84.1233177 7.23592977,89.424581 C7.33647695,90.1769513 7.482097,90.915453 7.63465134,91.6504875" id="Fill-30" fill="#464F5D" sketch:type="MSShapeGroup"></path>
            <path d="M7.63465134,91.6504875 C12.3881059,87.1848059 18.9028697,84.4110906 25.8648951,84.4110906 C26.1665366,84.4110906 26.4577767,84.4457621 26.7559511,84.4561635 C27.3627014,84.4041563 27.7371529,84.4076235 27.7371529,84.4076235 L27.7371529,47.0595471 C27.8758387,30.2508324 36.8904134,15.4530613 48.1620989,8.78921033 C48.7203091,8.45983164 49.295855,8.17205868 49.8644667,7.86001571 C47.7529759,7.25673263 45.5721422,6.93428823 43.3393014,6.93428823 C25.1471963,6.93428823 10.4014323,27.8897073 10.4014323,53.7407338 C10.4014323,54.9507671 10.4326366,56.1503989 10.4985124,57.3396294 C10.8070882,63.10549 10.5401181,68.951095 8.67479457,74.4187813 C7.10071115,79.0404844 6.52516522,84.1233177 7.23592977,89.424581 C7.33647695,90.1769513 7.482097,90.915453 7.63465134,91.6504875" id="Stroke-31" stroke-opacity="0" stroke="#000000" sketch:type="MSShapeGroup"></path>
            <path d="M155.321122,91.6504875 C150.567667,87.1848059 144.049437,84.4110906 137.087411,84.4110906 C136.789237,84.4110906 136.497997,84.4457621 136.199822,84.4561635 C135.589605,84.4041563 135.21862,84.4076235 135.21862,84.4076235 L135.21862,47.0595471 C135.079935,30.2508324 126.06536,15.4530613 114.793674,8.78921033 C114.235464,8.45983164 113.659918,8.17205868 113.091307,7.86001571 C115.202797,7.25673263 117.380164,6.93428823 119.616472,6.93428823 C137.808577,6.93428823 152.554341,27.8897073 152.554341,53.7407338 C152.554341,54.9507671 152.523137,56.1503989 152.457261,57.3396294 C152.148685,63.10549 152.415655,68.951095 154.280979,74.4187813 C155.855062,79.0404844 156.430608,84.1233177 155.719844,89.424581 C155.619296,90.1769513 155.473676,90.915453 155.321122,91.6504875" id="Fill-32" fill="#464F5D" sketch:type="MSShapeGroup"></path>
            <path d="M155.321122,91.6504875 C150.567667,87.1848059 144.049437,84.4110906 137.087411,84.4110906 C136.789237,84.4110906 136.497997,84.4457621 136.199822,84.4561635 C135.589605,84.4041563 135.21862,84.4076235 135.21862,84.4076235 L135.21862,47.0595471 C135.079935,30.2508324 126.06536,15.4530613 114.793674,8.78921033 C114.235464,8.45983164 113.659918,8.17205868 113.091307,7.86001571 C115.202797,7.25673263 117.380164,6.93428823 119.616472,6.93428823 C137.808577,6.93428823 152.554341,27.8897073 152.554341,53.7407338 C152.554341,54.9507671 152.523137,56.1503989 152.457261,57.3396294 C152.148685,63.10549 152.415655,68.951095 154.280979,74.4187813 C155.855062,79.0404844 156.430608,84.1233177 155.719844,89.424581 C155.619296,90.1769513 155.473676,90.915453 155.321122,91.6504875" id="Stroke-33" stroke-opacity="0" stroke="#000000" sketch:type="MSShapeGroup"></path>
        </g>
    </g>
</svg>