<?xml version="1.0" encoding="UTF-8" standalone="no"?>
<svg width="126px" height="202px" viewBox="0 0 126 202" version="1.1" xmlns="http://www.w3.org/2000/svg" xmlns:xlink="http://www.w3.org/1999/xlink" xmlns:sketch="http://www.bohemiancoding.com/sketch/ns">
    <!-- Generator: Sketch 3.4.2 (15855) - http://www.bohemiancoding.com/sketch -->
    <title>scream</title>
    <desc>Created with Sketch.</desc>
    <defs></defs>
    <g id="Page-1" stroke="none" stroke-width="1" fill="none" fill-rule="evenodd" sketch:type="MSPage">
        <g id="scream" sketch:type="MSLayerGroup" transform="translate(-0.545923, -3.145747)">
            <path d="M124.342189,81.6512439 C123.659162,80.1430362 123.087083,79.4669431 123.087083,79.4669431 C119.571399,75.2474287 117.813557,70.9204329 116.932902,67.6474488 C115.02944,60.5675405 113.115577,53.4876323 110.764853,46.5394754 L105.501728,31.0032027 C97.3678082,4.38940445 63.296183,3.30765549 63.296183,3.30765549 C63.296183,3.30765549 29.2245577,4.38940445 21.0906376,31.0032027 L15.8275129,46.5394754 C13.473322,53.4876323 11.5629256,60.5675405 9.6594635,67.6474488 C8.7788089,70.9204329 7.02096683,75.2474287 3.5052827,79.4669431 C3.5052827,79.4669431 2.93320392,80.1430362 2.24670939,81.6512439 C-1.78557922,90.5479357 3.52955271,101.018711 13.1092719,103.469982 C13.2895634,103.515055 13.473322,103.560128 13.6570807,103.6052 C13.9032479,103.664142 14.121678,103.802828 14.2499623,104.017791 C15.87952,106.697893 24.8594233,126.145104 29.8035708,142.121704 C30.8125097,145.387754 31.6030186,148.691942 32.3207174,152.030802 C35.028557,164.644273 45.1768878,204.402009 62.3947255,204.402009 C79.5258846,204.402009 91.5638089,164.644273 94.2716485,152.030802 C94.9893473,148.691942 95.7798562,145.387754 96.7887951,142.121704 C101.732943,126.145104 110.712846,106.697893 112.342404,104.017791 C112.470688,103.802828 112.689118,103.664142 112.935285,103.6052 C113.119044,103.560128 113.302803,103.515055 113.483094,103.469982 C123.062813,101.018711 128.374478,90.5479357 124.342189,81.6512439" id="Fill-1" fill="#E6E7E8" sketch:type="MSShapeGroup"></path>
            <path d="M124.342189,81.6512439 C123.659162,80.1430362 123.087083,79.4669431 123.087083,79.4669431 C119.571399,75.2474287 117.813557,70.9204329 116.932902,67.6474488 C115.02944,60.5675405 113.115577,53.4876323 110.764853,46.5394754 L105.501728,31.0032027 C97.3678082,4.38940445 63.296183,3.30765549 63.296183,3.30765549 C63.296183,3.30765549 29.2245577,4.38940445 21.0906376,31.0032027 L15.8275129,46.5394754 C13.473322,53.4876323 11.5629256,60.5675405 9.6594635,67.6474488 C8.7788089,70.9204329 7.02096683,75.2474287 3.5052827,79.4669431 C3.5052827,79.4669431 2.93320392,80.1430362 2.24670939,81.6512439 C-1.78557922,90.5479357 3.52955271,101.018711 13.1092719,103.469982 C13.2895634,103.515055 13.473322,103.560128 13.6570807,103.6052 C13.9032479,103.664142 14.121678,103.802828 14.2499623,104.017791 C15.87952,106.697893 24.8594233,126.145104 29.8035708,142.121704 C30.8125097,145.387754 31.6030186,148.691942 32.3207174,152.030802 C35.028557,164.644273 45.1768878,204.402014 62.3947255,204.402014 C79.5258846,204.402014 91.5638089,164.644273 94.2716485,152.030802 C94.9893473,148.691942 95.7798562,145.387754 96.7887951,142.121704 C101.732943,126.145104 110.712846,106.697893 112.342404,104.017791 C112.470688,103.802828 112.689118,103.664142 112.935285,103.6052 C113.119044,103.560128 113.302803,103.515055 113.483094,103.469982 C123.062813,101.018711 128.374478,90.5479357 124.342189,81.6512439" id="Stroke-3" stroke-opacity="0" stroke="#000000" sketch:type="MSShapeGroup"></path>
            <path d="M34.6714411,65.8757382 C29.9838623,79.4496074 19.7349843,93.4707382 26.0694566,95.6585061 C32.407396,97.8428069 50.786727,88.6098021 55.4743058,75.0359329 C60.1584175,61.4620637 55.1587957,40.3263532 48.8243234,38.1385853 C42.4898511,35.9508173 39.3555528,52.301869 34.6714411,65.8757382" id="Fill-4" fill="#464F5D" sketch:type="MSShapeGroup"></path>
            <path d="M34.6714411,65.8757382 C29.9838623,79.4496074 19.7349843,93.4707382 26.0694566,95.6585061 C32.407396,97.8428069 50.786727,88.6098021 55.4743058,75.0359329 C60.1584175,61.4620637 55.1587957,40.3263532 48.8243234,38.1385853 C42.4898511,35.9508173 39.3555528,52.301869 34.6714411,65.8757382" id="Stroke-5" stroke-opacity="0" stroke="#000000" sketch:type="MSShapeGroup"></path>
            <path d="M96.8720066,65.8757382 C101.556118,79.4496074 111.808463,93.4707382 105.470524,95.6585061 C99.1360517,97.8428069 80.7532536,88.6098021 76.0691419,75.0359329 C71.381563,61.4620637 76.384652,40.3263532 82.7191243,38.1385853 C89.0535966,35.9508173 92.1844277,52.301869 96.8720066,65.8757382" id="Fill-6" fill="#464F5D" sketch:type="MSShapeGroup"></path>
            <path d="M96.8720066,65.8757382 C101.556118,79.4496074 111.808463,93.4707382 105.470524,95.6585061 C99.1360517,97.8428069 80.7532536,88.6098021 76.0691419,75.0359329 C71.381563,61.4620637 76.384652,40.3263532 82.7191243,38.1385853 C89.0535966,35.9508173 92.1844277,52.301869 96.8720066,65.8757382" id="Stroke-7" stroke-opacity="0" stroke="#000000" sketch:type="MSShapeGroup"></path>
            <path d="M55.4743058,100.547179 L52.0071617,104.014323 M69.3428823,100.547179 L72.8100264,104.014323" id="Fill-8" fill-opacity="0" fill="#000000" sketch:type="MSShapeGroup"></path>
            <path d="M55.4743058,100.547179 L52.0071617,104.014323 M69.3428823,100.547179 L72.8100264,104.014323" id="Stroke-9" stroke="#464F5D" stroke-width="2" stroke-linecap="round" sketch:type="MSShapeGroup"></path>
            <path d="M63.296183,187.225782 C59.3159015,187.225782 55.9423703,184.299506 55.3806929,180.360837 L49.4276065,131.820819 C49.4276065,124.193102 55.6684659,117.952243 63.296183,117.952243 C70.9239,117.952243 77.1647594,124.193102 77.1647594,131.820819 L71.211673,180.360837 C70.6465285,184.299506 67.2764644,187.225782 63.296183,187.225782" id="Fill-10" fill="#464F5D" sketch:type="MSShapeGroup"></path>
            <path d="M63.296183,187.225782 C59.3159015,187.225782 55.9423703,184.299513 55.3806929,180.360837 L49.4276065,131.820819 C49.4276065,124.193102 55.6684659,117.952243 63.296183,117.952243 C70.9239,117.952243 77.1647594,124.193102 77.1647594,131.820819 L71.211673,180.360837 C70.6465285,184.299513 67.2764644,187.225782 63.296183,187.225782" id="Stroke-11" stroke-opacity="0" stroke="#000000" sketch:type="MSShapeGroup"></path>
        </g>
    </g>
</svg>