<?xml version="1.0" encoding="UTF-8" standalone="no"?>
<svg width="167px" height="203px" viewBox="0 0 167 203" version="1.1" xmlns="http://www.w3.org/2000/svg" xmlns:xlink="http://www.w3.org/1999/xlink" xmlns:sketch="http://www.bohemiancoding.com/sketch/ns">
    <!-- Generator: Sketch 3.4.2 (15855) - http://www.bohemiancoding.com/sketch -->
    <title>trooper</title>
    <desc>Created with Sketch.</desc>
    <defs></defs>
    <g id="Page-1" stroke="none" stroke-width="1" fill="none" fill-rule="evenodd" sketch:type="MSPage">
        <g id="trooper" sketch:type="MSLayerGroup" transform="translate(-3.197135, 0.181556)">
            <path d="M169.813784,100.547179 C169.813784,81.4154781 159.006696,77.1474237 156.472214,76.408922 C156.149769,76.3153091 155.945208,76.0102004 155.945208,75.6704203 C155.886267,47.9332674 151.860912,36.1519117 148.837563,31.2112313 C147.083188,28.3508374 145.67206,25.310152 144.718595,22.0926423 C143.577905,18.237178 141.351998,14.8567125 138.706567,11.9755158 C131.460236,4.07389433 120.933987,0 110.21011,0 L62.8558557,0 C52.6589848,0 42.6632083,3.74451564 35.5000886,11.0047154 C32.4559361,14.0870065 29.8347751,17.7968507 28.5623332,22.0926423 C27.6088686,25.310152 26.1977409,28.3508374 24.4468332,31.2112313 C21.4200163,36.1519117 17.394662,47.9367345 17.3357206,75.6704203 C17.3357206,76.0102004 17.1346262,76.3153091 16.8087147,76.408922 C14.2742323,77.1474237 3.46714411,81.4154781 3.46714411,100.547179 C3.46714411,100.547179 2.16696507,113.115577 10.4014323,121.350044 L30.1814895,144.427355 C30.8402469,145.197061 31.204297,146.178263 31.204297,147.190669 L31.204297,158.958156 C31.204297,161.506507 32.2721774,163.936975 34.1513695,165.656679 L72.8100264,201.094359 L100.470902,201.094359 L139.129559,165.656679 C141.008751,163.936975 142.076632,161.506507 142.076632,158.958156 L142.076632,147.190669 C142.076632,146.178263 142.440682,145.197061 143.099439,144.427355 L162.879496,121.350044 C171.113963,113.115577 169.813784,100.547179 169.813784,100.547179" id="Fill-1" fill="#D1D6B1" sketch:type="MSShapeGroup"></path>
            <path d="M169.813784,100.547179 C169.813784,81.4154781 159.006696,77.1474237 156.472214,76.408922 C156.149769,76.3153091 155.945208,76.0102004 155.945208,75.6704203 C155.886267,47.9332674 151.860912,36.1519117 148.837563,31.2112313 C147.083188,28.3508374 145.67206,25.310152 144.718595,22.0926423 C143.577905,18.237178 141.351998,14.8567125 138.706567,11.9755158 C131.460236,4.07389433 120.933987,0 110.21011,0 L62.8558557,0 C52.6589848,0 42.6632083,3.74451564 35.5000886,11.0047154 C32.4559361,14.0870065 29.8347751,17.7968507 28.5623332,22.0926423 C27.6088686,25.310152 26.1977409,28.3508374 24.4468332,31.2112313 C21.4200163,36.1519117 17.394662,47.9367345 17.3357206,75.6704203 C17.3357206,76.0102004 17.1346262,76.3153091 16.8087147,76.408922 C14.2742323,77.1474237 3.46714411,81.4154781 3.46714411,100.547179 C3.46714411,100.547179 2.16696507,113.115577 10.4014323,121.350044 L30.1814895,144.427355 C30.8402469,145.197061 31.204297,146.178263 31.204297,147.190669 L31.204297,158.958156 C31.204297,161.506507 32.2721774,163.936975 34.1513695,165.656679 L72.8100264,201.094359 L100.470902,201.094359 L139.129559,165.656679 C141.008751,163.936975 142.076632,161.506507 142.076632,158.958156 L142.076632,147.190669 C142.076632,146.178263 142.440682,145.197061 143.099439,144.427355 L162.879496,121.350044 C171.113963,113.115577 169.813784,100.547179 169.813784,100.547179" id="Stroke-3" stroke-opacity="0" stroke="#000000" sketch:type="MSShapeGroup"></path>
            <path d="M86.6786029,27.7371529 C108.497341,27.7371529 128.558237,25.3794949 144.475895,21.4408192 C143.283198,17.8627265 141.195977,14.6902896 138.706567,11.9755158 C131.460236,4.07389433 120.933987,0 110.21011,0 L62.8558557,0 C52.6589848,0 42.6632083,3.74451564 35.5000886,11.0047154 C32.6188918,13.9240508 30.1572195,17.418932 28.8189019,21.4234835 C44.7469619,25.3760278 64.8286607,27.7371529 86.6786029,27.7371529" id="Fill-4" fill="#989B73" sketch:type="MSShapeGroup"></path>
            <path d="M86.6786029,27.7371529 C108.497341,27.7371529 128.558237,25.3794949 144.475895,21.4408192 C143.283198,17.8627265 141.195977,14.6902896 138.706567,11.9755158 C131.460236,4.07389433 120.933987,0 110.21011,0 L62.8558557,0 C52.6589848,0 42.6632083,3.74451564 35.5000886,11.0047154 C32.6188918,13.9240508 30.1572195,17.418932 28.8189019,21.4234835 C44.7469619,25.3760278 64.8286607,27.7371529 86.6786029,27.7371529" id="Stroke-5" stroke-opacity="0" stroke="#000000" sketch:type="MSShapeGroup"></path>
            <path d="M121.759167,132.160599 C121.759167,112.865942 105.97326,97.0800352 86.6786029,97.0800352 C67.3839459,97.0800352 51.5980387,112.865942 51.5980387,132.160599 L51.5980387,181.650608 L72.8100264,201.094359 L100.470902,201.094359 L121.759167,181.581279 L121.759167,132.160599" id="Fill-6" fill="#ECEFCB" sketch:type="MSShapeGroup"></path>
            <path d="M121.759167,132.160599 C121.759167,112.865942 105.97326,97.0800352 86.6786029,97.0800352 C67.3839459,97.0800352 51.5980387,112.865942 51.5980387,132.160599 L51.5980387,181.650614 L72.8100264,201.094359 L100.470902,201.094359 L121.759167,181.581272 L121.759167,132.160599" id="Stroke-7" stroke-opacity="0" stroke="#000000" sketch:type="MSShapeGroup"></path>
            <path d="M124.817188,83.2391959 L48.5400176,83.2391959 C48.5400176,83.2391959 38.3466139,81.966754 38.1420524,96.6570436 C38.1385853,96.9482837 38.1697896,97.2395238 38.2391324,97.5238297 C38.2460667,97.5446325 38.253001,97.5689025 38.2599353,97.5966397 C40.5031775,106.465594 45.1664864,114.537106 51.6361773,121.006797 L52.0591689,121.429788 C53.8170109,123.18763 56.729412,122.99347 58.2029483,120.985994 C63.802386,113.361744 76.890855,100.574916 86.6786029,100.574916 C96.4663507,100.574916 109.55482,113.361744 115.154257,120.985994 C116.627794,122.99347 119.536728,123.18763 121.298037,121.429788 L121.710627,121.017198 C127.830136,114.897689 132.333957,107.33238 134.705483,99.0112345 C134.885775,98.37328 135.020993,97.8705441 135.107672,97.5411654 C135.183949,97.2499253 135.21862,96.9448166 135.215153,96.643175 C135.003658,81.966754 124.817188,83.2391959 124.817188,83.2391959" id="Fill-8" fill="#3D324C" sketch:type="MSShapeGroup"></path>
            <path d="M124.817188,83.2391959 L48.5400176,83.2391959 C48.5400176,83.2391959 38.3466139,81.966754 38.1420524,96.6570436 C38.1385853,96.9482837 38.1697896,97.2395238 38.2391324,97.5238297 C38.2460667,97.5446325 38.253001,97.5689025 38.2599353,97.5966397 C40.5031775,106.465594 45.1664864,114.537106 51.6361773,121.006797 L52.0591689,121.429788 C53.8170109,123.18763 56.729412,122.99347 58.2029483,120.985994 C63.802386,113.361744 76.890855,100.574916 86.6786029,100.574916 C96.4663507,100.574916 109.55482,113.361744 115.154257,120.985994 C116.627794,122.99347 119.536728,123.18763 121.298037,121.429788 L121.710627,121.017198 C127.830136,114.897689 132.333957,107.33238 134.705483,99.0112345 C134.885775,98.37328 135.020993,97.8705441 135.107672,97.5411654 C135.183949,97.2499253 135.21862,96.9448166 135.215153,96.643175 C135.003658,81.966754 124.817188,83.2391959 124.817188,83.2391959" id="Stroke-9" stroke-opacity="0" stroke="#000000" sketch:type="MSShapeGroup"></path>
            <path d="M100.470902,201.094359 L100.547179,201.025016 L100.547179,156.021485 C100.547179,148.393768 94.3063199,142.152909 86.6786029,142.152909 C79.0508858,142.152909 72.8100264,148.393768 72.8100264,156.021485 L72.8100264,201.094359 L100.470902,201.094359 L100.470902,201.094359 L100.470902,201.094359 Z" id="Fill-10" fill="#464F5D" sketch:type="MSShapeGroup"></path>
            <path d="M100.470902,201.094359 L100.547179,201.025016 L100.547179,156.021485 C100.547179,148.393768 94.3063199,142.152909 86.6786029,142.152909 C79.0508858,142.152909 72.8100264,148.393768 72.8100264,156.021485 L72.8100264,201.094359 L100.470902,201.094359 L100.470902,201.094359 L100.470902,201.094359 Z" id="Stroke-11" stroke-opacity="0" stroke="#000000" sketch:type="MSShapeGroup"></path>
            <path d="M100.470902,201.094359 L100.547179,201.025016 L100.547179,156.021485 C100.547179,148.393768 94.3063199,142.152909 86.6786029,142.152909 C79.0508858,142.152909 72.8100264,148.393768 72.8100264,156.021485 L72.8100264,201.094359 L100.470902,201.094359 L100.470902,201.094359 L100.470902,201.094359 Z" id="Fill-12" fill-opacity="0" fill="#000000" sketch:type="MSShapeGroup"></path>
            <path d="M100.470902,201.094359 L100.547179,201.025016 L100.547179,156.021485 C100.547179,148.393768 94.3063199,142.152909 86.6786029,142.152909 C79.0508858,142.152909 72.8100264,148.393768 72.8100264,156.021485 L72.8100264,201.094359 L100.470902,201.094359 L100.470902,201.094359 L100.470902,201.094359 Z" id="Stroke-13" stroke="#556080" stroke-width="2" sketch:type="MSShapeGroup"></path>
            <path d="M72.8100264,173.357206 L100.547179,173.357206 M72.8100264,187.225782 L100.547179,187.225782" id="Fill-14" fill-opacity="0" fill="#000000" sketch:type="MSShapeGroup"></path>
            <path d="M72.8100264,173.357206 L100.547179,173.357206 M72.8100264,187.225782 L100.547179,187.225782" id="Stroke-15" stroke="#556080" stroke-width="2" sketch:type="MSShapeGroup"></path>
            <path d="M93.6128911,159.488629 C93.6128911,163.319824 90.5097971,166.422917 86.6786029,166.422917 C82.8474086,166.422917 79.7443146,163.319824 79.7443146,159.488629 C79.7443146,155.657435 82.8474086,152.554341 86.6786029,152.554341 C90.5097971,152.554341 93.6128911,155.657435 93.6128911,159.488629 L93.6128911,159.488629 L93.6128911,159.488629 Z" id="Fill-16" fill="#3D324C" sketch:type="MSShapeGroup"></path>
            <path d="M93.6128911,159.488629 C93.6128911,163.319824 90.5097971,166.422917 86.6786029,166.422917 C82.8474086,166.422917 79.7443146,163.319824 79.7443146,159.488629 C79.7443146,155.657435 82.8474086,152.554341 86.6786029,152.554341 C90.5097971,152.554341 93.6128911,155.657435 93.6128911,159.488629 L93.6128911,159.488629 L93.6128911,159.488629 Z" id="Stroke-17" stroke-opacity="0" stroke="#000000" sketch:type="MSShapeGroup"></path>
            <path d="M93.6128911,159.488629 C93.6128911,163.319824 90.5097971,166.422917 86.6786029,166.422917 C82.8474086,166.422917 79.7443146,163.319824 79.7443146,159.488629 C79.7443146,155.657435 82.8474086,152.554341 86.6786029,152.554341 C90.5097971,152.554341 93.6128911,155.657435 93.6128911,159.488629 L93.6128911,159.488629 L93.6128911,159.488629 Z" id="Fill-18" fill-opacity="0" fill="#000000" sketch:type="MSShapeGroup"></path>
            <path d="M93.6128911,159.488629 C93.6128911,163.319824 90.5097971,166.422917 86.6786029,166.422917 C82.8474086,166.422917 79.7443146,163.319824 79.7443146,159.488629 C79.7443146,155.657435 82.8474086,152.554341 86.6786029,152.554341 C90.5097971,152.554341 93.6128911,155.657435 93.6128911,159.488629 L93.6128911,159.488629 L93.6128911,159.488629 Z" id="Stroke-19" stroke="#556080" sketch:type="MSShapeGroup"></path>
            <path d="M100.547179,131.751476 C99.6595904,131.751476 98.7720015,131.411696 98.0959084,130.735603 L90.0556012,122.698763 C88.2526863,120.888914 85.1045194,120.888914 83.3016045,122.698763 L75.2612973,130.735603 C73.9056439,132.091256 71.7144089,132.091256 70.3587555,130.735603 C69.0031022,129.37995 69.0031022,127.188715 70.3587555,125.833061 L78.3990627,117.796221 C82.8196715,113.372145 90.5340671,113.372145 94.9616102,117.796221 L102.99845,125.833061 C104.354104,127.188715 104.354104,129.37995 102.99845,130.735603 C102.322357,131.411696 101.434768,131.751476 100.547179,131.751476" id="Fill-20" fill="#464F5D" sketch:type="MSShapeGroup"></path>
            <path d="M100.547179,131.751476 C99.6595904,131.751476 98.7720015,131.411696 98.0959084,130.735603 L90.0556012,122.698763 C88.2526863,120.888914 85.1045194,120.888914 83.3016045,122.698763 L75.2612973,130.735603 C73.9056439,132.091256 71.7144089,132.091256 70.3587555,130.735603 C69.0031022,129.37995 69.0031022,127.188715 70.3587555,125.833061 L78.3990627,117.796221 C82.8196715,113.372145 90.5340671,113.372145 94.9616102,117.796221 L102.99845,125.833061 C104.354104,127.188715 104.354104,129.37995 102.99845,130.735603 C102.322357,131.411696 101.434768,131.751476 100.547179,131.751476" id="Stroke-21" stroke-opacity="0" stroke="#000000" sketch:type="MSShapeGroup"></path>
            <path d="M17.3357206,114.415756 C15.421857,114.415756 13.8685765,112.865942 13.8685765,110.948612 L13.8685765,90.145747 C13.8685765,88.2284163 15.421857,86.6786029 17.3357206,86.6786029 C19.2495841,86.6786029 20.8028647,88.2284163 20.8028647,90.145747 L20.8028647,110.948612 C20.8028647,112.865942 19.2495841,114.415756 17.3357206,114.415756" id="Fill-22" fill="#464F5D" sketch:type="MSShapeGroup"></path>
            <path d="M17.3357206,114.415756 C15.421857,114.415756 13.8685765,112.865942 13.8685765,110.948612 L13.8685765,90.145747 C13.8685765,88.2284163 15.421857,86.6786029 17.3357206,86.6786029 C19.2495841,86.6786029 20.8028647,88.2284163 20.8028647,90.145747 L20.8028647,110.948612 C20.8028647,112.865942 19.2495841,114.415756 17.3357206,114.415756" id="Stroke-23" stroke-opacity="0" stroke="#000000" sketch:type="MSShapeGroup"></path>
            <path d="M156.021485,114.415756 C154.107622,114.415756 152.554341,112.865942 152.554341,110.948612 L152.554341,90.145747 C152.554341,88.2284163 154.107622,86.6786029 156.021485,86.6786029 C157.935349,86.6786029 159.488629,88.2284163 159.488629,90.145747 L159.488629,110.948612 C159.488629,112.865942 157.935349,114.415756 156.021485,114.415756" id="Fill-24" fill="#464F5D" sketch:type="MSShapeGroup"></path>
            <path d="M156.021485,114.415756 C154.107622,114.415756 152.554341,112.865942 152.554341,110.948612 L152.554341,90.145747 C152.554341,88.2284163 154.107622,86.6786029 156.021485,86.6786029 C157.935349,86.6786029 159.488629,88.2284163 159.488629,90.145747 L159.488629,110.948612 C159.488629,112.865942 157.935349,114.415756 156.021485,114.415756" id="Stroke-25" stroke-opacity="0" stroke="#000000" sketch:type="MSShapeGroup"></path>
            <path d="M141.58083,17.3842606 L100.259406,24.2700088 L73.0943322,24.2700088 L31.7763758,17.3842606 C29.8763808,17.0618162 28.0977359,18.3481267 27.7856929,20.2342531 C27.4701828,22.1203795 28.7460919,23.9094258 30.6322183,24.2214688 L69.3428823,30.673824 L69.3428823,52.0071617 C69.3428823,53.9244924 70.8961629,55.4743058 72.8100264,55.4743058 C74.72389,55.4743058 76.2771705,53.9244924 76.2771705,52.0071617 L76.2771705,64.9950836 C76.2771705,69.3047437 79.7824532,72.8100264 84.0886462,72.8100264 L89.2685595,72.8100264 C93.5747525,72.8100264 97.0800352,69.3047437 97.0800352,64.9950836 L97.0800352,52.0071617 C97.0800352,53.9244924 98.6333158,55.4743058 100.547179,55.4743058 C102.461043,55.4743058 104.014323,53.9244924 104.014323,52.0071617 L104.014323,30.673824 L142.724987,24.2214688 C144.611114,23.9094258 145.887023,22.1203795 145.571513,20.2342531 C145.256003,18.3446595 143.484292,17.0514148 141.58083,17.3842606 L141.58083,17.3842606 L141.58083,17.3842606 Z M76.2771705,48.5400176 L76.2771705,31.1626913 L83.2114587,31.1765599 L83.2114587,48.5400176 L76.2771705,48.5400176 L76.2771705,48.5400176 L76.2771705,48.5400176 Z M90.145747,64.9950836 C90.145747,65.4804837 89.7504925,65.8757382 89.2685595,65.8757382 L84.0886462,65.8757382 C83.6067132,65.8757382 83.2114587,65.4804837 83.2114587,64.9950836 L83.2114587,55.4743058 L90.145747,55.4743058 L90.145747,64.9950836 L90.145747,64.9950836 L90.145747,64.9950836 Z M90.145747,48.5400176 L90.145747,31.1869613 L97.0800352,31.1973627 L97.0800352,48.5400176 L90.145747,48.5400176 L90.145747,48.5400176 L90.145747,48.5400176 Z" id="Fill-26" fill="#464F5D" sketch:type="MSShapeGroup"></path>
            <path d="M141.58083,17.3842606 L100.259406,24.2700088 L73.0943322,24.2700088 L31.7763758,17.3842606 C29.8763808,17.0618162 28.0977359,18.3481267 27.7856929,20.2342531 C27.4701828,22.1203795 28.7460919,23.9094258 30.6322183,24.2214688 L69.3428823,30.673824 L69.3428823,52.0071617 C69.3428823,53.9244924 70.8961629,55.4743058 72.8100264,55.4743058 C74.72389,55.4743058 76.2771705,53.9244924 76.2771705,52.0071617 L76.2771705,64.9950836 C76.2771705,69.3047437 79.7824532,72.8100264 84.0886462,72.8100264 L89.2685595,72.8100264 C93.5747525,72.8100264 97.0800352,69.3047437 97.0800352,64.9950836 L97.0800352,52.0071617 C97.0800352,53.9244924 98.6333158,55.4743058 100.547179,55.4743058 C102.461043,55.4743058 104.014323,53.9244924 104.014323,52.0071617 L104.014323,30.673824 L142.724987,24.2214688 C144.611114,23.9094258 145.887023,22.1203795 145.571513,20.2342531 C145.256003,18.3446595 143.484292,17.0514148 141.58083,17.3842606 L141.58083,17.3842606 L141.58083,17.3842606 Z M76.2771705,48.5400176 L76.2771705,31.1626913 L83.2114587,31.1765599 L83.2114587,48.5400176 L76.2771705,48.5400176 L76.2771705,48.5400176 L76.2771705,48.5400176 Z M90.145747,64.9950836 C90.145747,65.4804837 89.7504925,65.8757382 89.2685595,65.8757382 L84.0886462,65.8757382 C83.6067132,65.8757382 83.2114587,65.4804837 83.2114587,64.9950836 L83.2114587,55.4743058 L90.145747,55.4743058 L90.145747,64.9950836 L90.145747,64.9950836 L90.145747,64.9950836 Z M90.145747,48.5400176 L90.145747,31.1869613 L97.0800352,31.1973627 L97.0800352,48.5400176 L90.145747,48.5400176 L90.145747,48.5400176 L90.145747,48.5400176 Z" id="Stroke-27" stroke-opacity="0" stroke="#000000" sketch:type="MSShapeGroup"></path>
            <path d="M142.152909,146.771145 C142.239587,145.91476 142.534295,145.08958 143.099439,144.427355 L149.087197,137.444527 L149.087197,79.6853732 C149.087197,62.744907 135.450919,48.7723163 118.690744,48.5469519 L55.4743058,48.5400176 L54.6664613,48.5469519 C37.9062866,48.7723163 24.2700088,62.744907 24.2700088,79.6853732 L24.2700088,137.531206 L30.1814895,144.427355 C30.8402469,145.197061 31.204297,146.178263 31.204297,147.190669 L31.204297,79.6853732 C31.204297,66.5171598 41.7721523,55.6580645 54.7600741,55.4812401 L117.8829,55.4743058 L118.597132,55.4812401 C131.585053,55.6580645 142.152909,66.5171598 142.152909,79.6853732 L142.152909,146.771145" id="Fill-28" fill="#6D6748" sketch:type="MSShapeGroup"></path>
            <path d="M142.152909,146.771145 C142.239587,145.91476 142.534295,145.08958 143.099439,144.427355 L149.087197,137.444527 L149.087197,79.6853732 C149.087197,62.744907 135.450919,48.7723163 118.690744,48.5469519 L55.4743058,48.5400176 L54.6664613,48.5469519 C37.9062866,48.7723163 24.2700088,62.744907 24.2700088,79.6853732 L24.2700088,137.531206 L30.1814895,144.427355 C30.8402469,145.197061 31.204297,146.178263 31.204297,147.190669 L31.204297,79.6853732 C31.204297,66.5171598 41.7721523,55.6580645 54.7600741,55.4812401 L117.8829,55.4743058 L118.597132,55.4812401 C131.585053,55.6580645 142.152909,66.5171598 142.152909,79.6853732 L142.152909,146.771145" id="Stroke-29" stroke-opacity="0" stroke="#000000" sketch:type="MSShapeGroup"></path>
        </g>
    </g>
</svg>