<?xml version="1.0" encoding="UTF-8" standalone="no"?>
<svg width="180px" height="202px" viewBox="0 0 180 202" version="1.1" xmlns="http://www.w3.org/2000/svg" xmlns:xlink="http://www.w3.org/1999/xlink" xmlns:sketch="http://www.bohemiancoding.com/sketch/ns">
    <!-- Generator: Sketch 3.4.2 (15855) - http://www.bohemiancoding.com/sketch -->
    <title>vader</title>
    <desc>Created with Sketch.</desc>
    <defs></defs>
    <g id="Page-1" stroke="none" stroke-width="1" fill="none" fill-rule="evenodd" sketch:type="MSPage">
        <g id="vader" sketch:type="MSLayerGroup" transform="translate(-0.152909, 0.329815)">
            <path d="M156.021485,90.145747 L156.021485,43.8836431 C156.021485,23.2957413 139.552551,12.0275229 123.083616,5.90801357 C101.895898,-1.96933786 78.3955956,-1.96933786 57.2078779,5.90801357 C40.7389433,12.0275229 24.2700088,23.2957413 24.2700088,43.8836431 L24.2700088,90.145747 L0.214962935,158.871478 C0.0797443146,159.256331 0.145620053,159.665454 0.409123006,159.977497 C4.36513444,164.633871 36.1727145,201.094359 62.4085941,201.094359 L117.8829,201.094359 C144.118779,201.094359 175.92636,164.633871 179.882371,159.977497 C180.145874,159.665454 180.21175,159.256331 180.076531,158.871478 L156.021485,90.145747" id="Fill-1" fill="#464F5D" sketch:type="MSShapeGroup"></path>
            <path d="M156.021485,90.145747 L156.021485,43.8836431 C156.021485,23.2957413 139.552551,12.0275229 123.083616,5.90801357 C101.895898,-1.96933786 78.3955956,-1.96933786 57.2078779,5.90801357 C40.7389433,12.0275229 24.2700088,23.2957413 24.2700088,43.8836431 L24.2700088,90.145747 L0.214962935,158.871478 C0.0797443146,159.256331 0.145620053,159.665454 0.409123006,159.977497 C4.36513444,164.633871 36.1727145,201.094359 62.4085941,201.094359 L117.8829,201.094359 C144.118779,201.094359 175.92636,164.633871 179.882371,159.977497 C180.145874,159.665454 180.21175,159.256331 180.076531,158.871478 L156.021485,90.145747" id="Stroke-3" stroke-opacity="0" stroke="#000000" sketch:type="MSShapeGroup"></path>
            <path d="M97.0800352,109.561754 L97.0800352,100.547179 C97.0800352,96.7333208 93.9596055,93.6128911 90.145747,93.6128911 C86.3318885,93.6128911 83.2114587,96.7333208 83.2114587,100.547179 L83.2114587,109.561754 L48.5400176,145.620053 L131.751476,145.620053 L97.0800352,109.561754 L97.0800352,109.561754 L97.0800352,109.561754 Z" id="Fill-4" fill="#8697CB" sketch:type="MSShapeGroup"></path>
            <path d="M97.0800352,109.561754 L97.0800352,100.547179 C97.0800352,96.7333208 93.9596055,93.6128911 90.145747,93.6128911 C86.3318885,93.6128911 83.2114587,96.7333208 83.2114587,100.547179 L83.2114587,109.561754 L48.5400176,145.620053 L131.751476,145.620053 L97.0800352,109.561754 L97.0800352,109.561754 L97.0800352,109.561754 Z" id="Stroke-5" stroke-opacity="0" stroke="#000000" sketch:type="MSShapeGroup"></path>
            <path d="M97.0800352,109.561754 L97.0800352,100.547179 C97.0800352,96.7333208 93.9596055,93.6128911 90.145747,93.6128911 C86.3318885,93.6128911 83.2114587,96.7333208 83.2114587,100.547179 L83.2114587,109.561754 L48.5400176,145.620053 L131.751476,145.620053 L97.0800352,109.561754 L97.0800352,109.561754 L97.0800352,109.561754 Z" id="Fill-6" fill-opacity="0" fill="#000000" sketch:type="MSShapeGroup"></path>
            <path d="M97.0800352,109.561754 L97.0800352,100.547179 C97.0800352,96.7333208 93.9596055,93.6128911 90.145747,93.6128911 C86.3318885,93.6128911 83.2114587,96.7333208 83.2114587,100.547179 L83.2114587,109.561754 L48.5400176,145.620053 L131.751476,145.620053 L97.0800352,109.561754 L97.0800352,109.561754 L97.0800352,109.561754 Z" id="Stroke-7" stroke="#2C2F38" stroke-width="2" sketch:type="MSShapeGroup"></path>
            <path d="M142.152909,90.145747 L164.509054,156.378601 C151.455256,170.347725 131.262609,187.225782 117.8829,187.225782 L62.4085941,187.225782 C49.0288849,187.225782 28.8397047,170.351188 15.78244,156.378601 L38.1385853,90.145747 L142.152909,90.145747 L142.152909,90.145747 Z M145.620053,145.620053 C145.620053,149.451247 142.516959,152.554341 138.685765,152.554341 C134.85457,152.554341 131.751476,149.451247 131.751476,145.620053 C131.751476,141.788859 134.85457,138.685765 138.685765,138.685765 C142.516959,138.685765 145.620053,141.788859 145.620053,145.620053 L145.620053,145.620053 L145.620053,145.620053 Z M48.5400176,145.620053 C48.5400176,149.451247 45.4369236,152.554341 41.6057294,152.554341 C37.7745351,152.554341 34.6714411,149.451247 34.6714411,145.620053 C34.6714411,141.788859 37.7745351,138.685765 41.6057294,138.685765 C45.4369236,138.685765 48.5400176,141.788859 48.5400176,145.620053 L48.5400176,145.620053 L48.5400176,145.620053 Z" id="Fill-8" fill-opacity="0" fill="#000000" sketch:type="MSShapeGroup"></path>
            <path d="M142.152909,90.145747 L164.509054,156.378601 C151.455256,170.347725 131.262609,187.225782 117.8829,187.225782 L62.4085941,187.225782 C49.0288849,187.225782 28.8397047,170.351192 15.78244,156.378601 L38.1385853,90.145747 L142.152909,90.145747 L142.152909,90.145747 Z M145.620053,145.620053 C145.620053,149.451247 142.516959,152.554341 138.685765,152.554341 C134.85457,152.554341 131.751476,149.451247 131.751476,145.620053 C131.751476,141.788859 134.85457,138.685765 138.685765,138.685765 C142.516959,138.685765 145.620053,141.788859 145.620053,145.620053 L145.620053,145.620053 L145.620053,145.620053 Z M48.5400176,145.620053 C48.5400176,149.451247 45.4369236,152.554341 41.6057294,152.554341 C37.7745351,152.554341 34.6714411,149.451247 34.6714411,145.620053 C34.6714411,141.788859 37.7745351,138.685765 41.6057294,138.685765 C45.4369236,138.685765 48.5400176,141.788859 48.5400176,145.620053 L48.5400176,145.620053 L48.5400176,145.620053 Z" id="Stroke-9" stroke="#2C2F38" stroke-width="2" sketch:type="MSShapeGroup"></path>
            <path d="M69.3428823,124.817188 L69.3428823,145.620053 M83.2114587,110.948612 L83.2114587,145.620053 M110.948612,124.817188 L110.948612,145.620053 M97.0800352,110.948612 L97.0800352,145.620053" id="Fill-10" fill-opacity="0" fill="#000000" sketch:type="MSShapeGroup"></path>
            <path d="M69.3428823,124.817188 L69.3428823,145.620053 M83.2114587,110.948612 L83.2114587,145.620053 M110.948612,124.817188 L110.948612,145.620053 M97.0800352,110.948612 L97.0800352,145.620053" id="Stroke-11" stroke="#2C2F38" stroke-width="2" stroke-linecap="round" sketch:type="MSShapeGroup"></path>
            <path d="M79.7443146,86.6786029 C79.7443146,94.3375242 70.4315655,100.547179 58.9414499,100.547179 C47.4513344,100.547179 38.1385853,94.3375242 38.1385853,86.6786029 C38.1385853,79.0196815 47.4513344,72.8100264 58.9414499,72.8100264 C70.4315655,72.8100264 79.7443146,79.0196815 79.7443146,86.6786029" id="Fill-12" fill="#2C2F38" sketch:type="MSShapeGroup"></path>
            <path d="M79.7443146,86.6786029 C79.7443146,94.3375242 70.4315655,100.547179 58.9414499,100.547179 C47.4513344,100.547179 38.1385853,94.3375242 38.1385853,86.6786029 C38.1385853,79.0196815 47.4513344,72.8100264 58.9414499,72.8100264 C70.4315655,72.8100264 79.7443146,79.0196815 79.7443146,86.6786029" id="Stroke-13" stroke-opacity="0" stroke="#000000" sketch:type="MSShapeGroup"></path>
            <path d="M142.152909,86.6786029 C142.152909,94.3375242 132.84016,100.547179 121.350044,100.547179 C109.859928,100.547179 100.547179,94.3375242 100.547179,86.6786029 C100.547179,79.0196815 109.859928,72.8100264 121.350044,72.8100264 C132.84016,72.8100264 142.152909,79.0196815 142.152909,86.6786029" id="Fill-14" fill="#2C2F38" sketch:type="MSShapeGroup"></path>
            <path d="M142.152909,86.6786029 C142.152909,94.3375242 132.84016,100.547179 121.350044,100.547179 C109.859928,100.547179 100.547179,94.3375242 100.547179,86.6786029 C100.547179,79.0196815 109.859928,72.8100264 121.350044,72.8100264 C132.84016,72.8100264 142.152909,79.0196815 142.152909,86.6786029" id="Stroke-15" stroke-opacity="0" stroke="#000000" sketch:type="MSShapeGroup"></path>
            <path d="M114.415756,156.021485 L90.145747,176.82435 L65.8757382,156.021485 L114.415756,156.021485 L114.415756,156.021485 L114.415756,156.021485 Z" id="Fill-16" fill="#2C2F38" sketch:type="MSShapeGroup"></path>
            <path d="M114.415756,156.021485 L90.145747,176.82435 L65.8757382,156.021485 L114.415756,156.021485 L114.415756,156.021485 L114.415756,156.021485 Z" id="Stroke-17" stroke-opacity="0" stroke="#000000" sketch:type="MSShapeGroup"></path>
            <path d="M114.415756,156.021485 L90.145747,176.82435 L65.8757382,156.021485 L114.415756,156.021485 L114.415756,156.021485 L114.415756,156.021485 Z" id="Fill-18" fill-opacity="0" fill="#000000" sketch:type="MSShapeGroup"></path>
            <path d="M114.415756,156.021485 L90.145747,176.82435 L65.8757382,156.021485 L114.415756,156.021485 L114.415756,156.021485 L114.415756,156.021485 Z" id="Stroke-19" stroke="#2C2F38" stroke-width="2" stroke-linecap="round" stroke-linejoin="round" sketch:type="MSShapeGroup"></path>
            <path d="M79.7443146,0.637954517 L79.7443146,52.0071617 C79.7443146,57.7522195 84.4006892,62.4085941 90.145747,62.4085941 C95.8908048,62.4085941 100.547179,57.7522195 100.547179,52.0071617 L100.547179,0.637954517 C93.6302268,-0.121350044 86.6612671,-0.121350044 79.7443146,0.637954517" id="Fill-20" fill="#2C2F38" sketch:type="MSShapeGroup"></path>
            <path d="M79.7443146,0.637954517 L79.7443146,52.0071617 C79.7443146,57.7522195 84.4006892,62.4085941 90.145747,62.4085941 C95.8908048,62.4085941 100.547179,57.7522195 100.547179,52.0071617 L100.547179,0.637954517 C93.6302268,-0.121350044 86.6612671,-0.121350044 79.7443146,0.637954517" id="Stroke-21" stroke-opacity="0" stroke="#000000" sketch:type="MSShapeGroup"></path>
            <path d="M153.431529,71.645066 C154.114556,72.4182391 155.068021,72.8100264 156.021485,72.8100264 L156.021485,64.7697192 C149.652341,60.0093303 130.83615,50.2874582 90.145747,58.8721071 C49.4449422,50.2839911 30.6356854,60.0058632 24.2700088,64.7662521 L24.2700088,72.7857564 L24.2734759,72.7857564 C25.2234734,72.7857564 26.1700038,72.4009034 26.8599655,71.6485331 C27.0021184,71.4890445 41.5953279,56.3237561 86.6786029,65.2793894 L86.6786029,93.6128911 L93.6128911,93.6128911 L93.6128911,65.2793894 C138.519342,56.3618947 153.17496,71.3746287 153.431529,71.645066" id="Fill-22" fill="#2C2F38" sketch:type="MSShapeGroup"></path>
            <path d="M153.431529,71.645066 C154.114556,72.4182391 155.068021,72.8100264 156.021485,72.8100264 L156.021485,64.7697192 C149.652341,60.0093303 130.83615,50.2874582 90.145747,58.8721071 C49.4449422,50.2839911 30.6356854,60.0058632 24.2700088,64.7662521 L24.2700088,72.7857564 L24.2734759,72.7857564 C25.2234734,72.7857564 26.1700038,72.4009034 26.8599655,71.6485331 C27.0021184,71.4890445 41.5953279,56.3237561 86.6786029,65.2793894 L86.6786029,93.6128911 L93.6128911,93.6128911 L93.6128911,65.2793894 C138.519342,56.3618947 153.17496,71.3746287 153.431529,71.645066" id="Stroke-23" stroke-opacity="0" stroke="#000000" sketch:type="MSShapeGroup"></path>
        </g>
    </g>
</svg>