<?xml version="1.0" encoding="UTF-8" standalone="no"?>
<svg width="66px" height="38px" viewBox="0 0 66 38" version="1.1" xmlns="http://www.w3.org/2000/svg" xmlns:xlink="http://www.w3.org/1999/xlink" xmlns:sketch="http://www.bohemiancoding.com/sketch/ns">
    <!-- Generator: Sketch 3.4 (15575) - http://www.bohemiancoding.com/sketch -->
    <title>Page 1</title>
    <desc>Created with Sketch.</desc>
    <defs></defs>
    <g id="Page-1" stroke="none" stroke-width="1" fill="none" fill-rule="evenodd" sketch:type="MSPage">
        <path d="M61.117,12.769 C60.75,12.414 60.363,12.078 59.961,11.766 L54.449,7.094 C52.328,5.59 49.793,4.633 47.047,4.437 L47.336,4.727 L43.988,1.359 L43.969,1.367 C43.035,0.519 41.797,0 40.438,0 C38.106,0 36.129,1.523 35.445,3.629 C34.774,3.203 33.992,2.937 33.149,2.887 C33.012,2.875 32.871,2.867 32.731,2.867 C31.774,2.867 30.883,3.145 30.133,3.625 C29.445,1.527 27.473,0.012 25.145,0.012 C23.785,0.012 22.547,0.527 21.613,1.379 L21.594,1.371 L18.246,4.738 L18.535,4.449 C15.793,4.645 13.254,5.598 11.133,7.105 L5.621,11.777 C5.219,12.094 4.832,12.426 4.465,12.781 C1.715,15.441 0,19.168 0,23.289 C0,31.352 6.559,37.914 14.625,37.914 C22.078,37.914 28.246,32.309 29.137,25.09 C30.215,25.707 31.461,26.062 32.785,26.062 C34.113,26.062 35.359,25.707 36.434,25.09 C37.328,32.301 43.492,37.902 50.945,37.902 C59.008,37.902 65.57,31.344 65.57,23.277 C65.582,19.16 63.867,15.43 61.117,12.769 L61.117,12.769 Z M14.637,33.269 C9.125,33.269 4.656,28.801 4.656,23.289 C4.656,17.777 9.125,13.309 14.637,13.309 C14.953,13.309 15.266,13.324 15.574,13.355 L16.828,13.555 C21.285,14.555 24.617,18.531 24.617,23.293 C24.617,28.801 20.149,33.269 14.637,33.269 L14.637,33.269 Z M39.109,14.715 C39.09,14.742 39.07,14.766 39.051,14.793 C39.035,14.766 39.016,14.742 39,14.715 L39.109,14.715 Z M36.762,18.68 C36.762,20.871 34.988,22.645 32.797,22.645 C30.883,22.645 29.281,21.285 28.914,19.48 C28.863,19.227 28.836,18.961 28.836,18.687 C28.836,16.496 30.609,14.723 32.801,14.723 C34.715,14.723 36.317,16.082 36.684,17.887 C36.735,18.145 36.762,18.41 36.762,18.68 L36.762,18.68 Z M26.582,14.727 C26.567,14.75 26.551,14.777 26.535,14.801 C26.516,14.777 26.5,14.75 26.481,14.727 L26.582,14.727 Z M50.957,33.258 C45.445,33.258 40.977,28.789 40.977,23.277 C40.977,18.519 44.309,14.539 48.766,13.539 L50.02,13.34 C50.328,13.312 50.641,13.293 50.957,13.293 C56.469,13.293 60.938,17.762 60.938,23.273 C60.938,28.785 56.469,33.258 50.957,33.258 L50.957,33.258 Z M16.801,28.395 C18.391,28.395 19.863,27.891 21.067,27.035 C19.758,29.094 17.457,30.461 14.84,30.461 C10.766,30.461 7.465,27.16 7.465,23.086 C7.465,20.602 8.692,18.406 10.574,17.07 C9.848,18.211 9.426,19.566 9.426,21.023 C9.426,25.094 12.727,28.395 16.801,28.395 L16.801,28.395 Z M53.168,28.387 C54.758,28.387 56.231,27.883 57.434,27.027 C56.125,29.086 53.824,30.453 51.207,30.453 C47.133,30.453 43.832,27.152 43.832,23.078 C43.832,20.594 45.059,18.398 46.942,17.062 C46.215,18.203 45.793,19.559 45.793,21.016 C45.789,25.082 49.094,28.387 53.168,28.387 L53.168,28.387 Z" fill="#000000" sketch:type="MSShapeGroup"></path>
    </g>
</svg>