<?xml version="1.0" encoding="UTF-8" standalone="no"?>
<svg width="44px" height="45px" viewBox="0 0 44 45" version="1.1" xmlns="http://www.w3.org/2000/svg" xmlns:xlink="http://www.w3.org/1999/xlink" xmlns:sketch="http://www.bohemiancoding.com/sketch/ns">
    <!-- Generator: Sketch 3.3.3 (12072) - http://www.bohemiancoding.com/sketch -->
    <title>clap</title>
    <desc>Created with Sketch.</desc>
    <defs></defs>
    <g id="Page-1" stroke="none" stroke-width="1" fill="none" fill-rule="evenodd" sketch:type="MSPage">
        <path d="M43.725,44.738 L2.165,44.738 L2.165,20.539 C0.877,19.916 0,18.59 0,17.1 C0,15.962 0.488,14.944 1.271,14.246 L0.336,10.757 L40.48,0 L42.642,8.069 L12.406,16.171 L43.725,16.171 L43.725,44.738 L43.725,44.738 Z M4.744,42.159 L41.147,42.159 L41.147,24.525 L4.744,24.525 L4.744,42.159 Z M36.582,21.947 L41.147,21.947 L41.147,18.75 L38.18,18.75 L36.582,21.947 L36.582,21.947 Z M27.919,21.947 L33.698,21.947 L35.297,18.75 L29.517,18.75 L27.919,21.947 L27.919,21.947 Z M19.256,21.947 L25.036,21.947 L26.634,18.75 L20.854,18.75 L19.256,21.947 L19.256,21.947 Z M10.594,21.947 L16.373,21.947 L17.972,18.75 L12.192,18.75 L10.594,21.947 L10.594,21.947 Z M4.744,21.947 L7.71,21.947 L9.309,18.75 L7.261,18.75 C6.775,19.774 5.855,20.53 4.744,20.803 L4.744,21.947 L4.744,21.947 Z M3.496,18.295 L3.63,18.313 C3.727,18.327 3.771,18.336 3.817,18.337 C4.095,18.334 4.354,18.239 4.562,18.082 C4.809,17.891 4.982,17.608 5.03,17.276 L5.052,17.121 L5.052,17.1 C5.052,17.042 5.049,16.986 5.041,16.93 L5.007,16.799 C4.874,16.272 4.419,15.896 3.887,15.864 L3.709,15.867 C3.07,15.92 2.578,16.449 2.578,17.1 C2.578,17.663 2.964,18.154 3.496,18.295 L3.496,18.295 Z M3.827,13.284 C5.122,13.292 6.284,13.941 6.974,14.957 L10.138,14.109 L7.766,11.435 L3.493,12.58 L3.682,13.284 L3.72,13.284 L3.815,13.284 L3.823,13.284 L3.827,13.284 L3.827,13.284 Z M10.551,10.689 L12.922,13.362 L18.505,11.867 L16.134,9.193 L10.551,10.689 L10.551,10.689 Z M18.919,8.447 L21.29,11.121 L26.872,9.625 L24.501,6.951 L18.919,8.447 L18.919,8.447 Z M27.287,6.205 L29.657,8.879 L35.24,7.383 L32.869,4.709 L27.287,6.205 L27.287,6.205 Z M35.654,3.963 L38.025,6.637 L39.484,6.246 L38.657,3.158 L35.654,3.963 L35.654,3.963 Z M6.496,26.278 L39.393,26.278 L39.393,34.631 L6.496,34.631 L6.496,26.278 Z M29.288,32.053 L36.815,32.053 L36.815,28.857 L29.288,28.857 L29.288,32.053 Z M19.181,32.053 L26.709,32.053 L26.709,28.857 L19.181,28.857 L19.181,32.053 Z M9.075,32.053 L16.602,32.053 L16.602,28.857 L9.075,28.857 L9.075,32.053 Z M39.394,37.673 C39.394,36.961 38.817,36.384 38.105,36.384 L7.786,36.384 C7.074,36.384 6.496,36.961 6.496,37.673 C6.496,38.385 7.074,38.963 7.786,38.963 L38.105,38.963 C38.817,38.963 39.394,38.385 39.394,37.673 L39.394,37.673 Z" id="clap" fill="#000000" sketch:type="MSShapeGroup"></path>
    </g>
</svg>