<?xml version="1.0" encoding="UTF-8" standalone="no"?>
<svg width="65px" height="70px" viewBox="0 0 65 70" version="1.1" xmlns="http://www.w3.org/2000/svg" xmlns:xlink="http://www.w3.org/1999/xlink" xmlns:sketch="http://www.bohemiancoding.com/sketch/ns">
    <!-- Generator: Sketch 3.3.3 (12072) - http://www.bohemiancoding.com/sketch -->
    <title>CLEGANE</title>
    <desc>Created with Sketch.</desc>
    <defs></defs>
    <g id="Design-v2" stroke="none" stroke-width="1" fill="none" fill-rule="evenodd" sketch:type="MSPage">
        <g id="Homepage" sketch:type="MSArtboardGroup" transform="translate(-92.000000, -16.000000)" fill="#222222">
            <g id="CLEGANE" sketch:type="MSLayerGroup" transform="translate(92.000000, 16.000000)">
                <path d="M26.6906835,24.6106 C28.5420144,25.0978 30.7089928,25.5173333 33.2178058,26.1212 C35.7593525,26.5664 37.9160432,27.0447333 39.8066547,27.3345333 C50.0130576,28.8988 51.8620504,28.5567333 56.2853237,29.5591333 L58.4658633,19.1025333 C60.2933453,11.3745333 54.5583813,5.12493333 38.3004317,1.7486 C22.0410791,-1.6282 14.2869065,1.8186 12.8714029,9.6334 L10.6908633,20.09 C15.1496763,20.9314 16.7082734,21.9814 26.6906835,24.6106" id="Fill-1" sketch:type="MSShapeGroup"></path>
                <path d="M56.0332734,31.0557333 C51.5351799,30.0206667 49.7642806,30.3884 39.5115827,28.8171333 C37.6167626,28.5273333 35.4544604,28.0485333 32.908705,27.6024 C30.3966187,26.9980667 28.2221583,26.5762 26.3684892,26.0876 C16.3393165,23.4467333 14.8620863,22.4042 10.323777,21.5628 C-2.83241007,18.8995333 -2.69118705,26.7423333 6.83856115,31.0249333 C7.37539568,31.2662 7.76820144,31.4645333 8.13201439,31.0674 C9.05043165,30.0640667 10.017482,29.6053333 10.9906115,29.2553333 C13.7089209,28.2776667 23.7769065,29.3085333 32.1894964,31.0524667 C40.6006835,32.8024667 50.245,35.8652 52.3465108,37.8443333 C53.0989209,38.5527333 53.8022302,39.3582 54.2436691,40.6443333 C54.4180935,41.153 54.8581295,41.1273333 55.4468705,41.1198667 C65.8973741,40.9868667 69.1618705,33.8515333 56.0332734,31.0557333" id="Fill-2" sketch:type="MSShapeGroup"></path>
                <path d="M31.138741,65.2880667 C29.1026978,65.2880667 26.8969065,67.5924667 26.8969065,68.2794 C26.8969065,68.9210667 30.5448561,69.9584667 31.138741,69.9584667 C31.7326259,69.9584667 35.3805755,68.9210667 35.3805755,68.2794 C35.3805755,67.5924667 33.1747842,65.2880667 31.138741,65.2880667" id="Fill-3" sketch:type="MSShapeGroup"></path>
                <path d="M51.3004317,39.0656 C49.2695324,37.1532 39.9492806,34.1936 31.8210072,32.5019333 C23.6908633,30.8168 13.9609712,29.8204667 11.3343165,30.765 C10.617446,31.0230667 9.90431655,31.3436667 9.21269784,31.9097333 C9.62,34.279 9.94827338,36.5302 9.67611511,38.5074667 C9.07848921,42.8442 8.14791367,49.679 9.08176259,52.4762 C10.2695324,56.0317333 16.1653597,59.4603333 16.4627698,62.0424 C16.705,64.1522 15.8263309,64.9632667 16.3776619,66.5294 C16.6769424,67.3787333 22.8673741,70.1255333 24.1397842,69.2808667 C25.4126619,68.4366667 25.7942446,65.6828667 29.3570863,64.4130667 C30.492482,64.0084667 30.8843525,59.8416 30.5448561,57.7248 C30.3919424,56.7718667 25.4552158,56.3705333 25.4552158,54.8044 C25.4552158,51.7141333 28.2118705,50.8676 31.138741,50.8676 C34.0656115,50.8676 36.8222662,51.7141333 36.8222662,54.8044 C36.8222662,56.3705333 31.8850719,56.7718667 31.7326259,57.7248 C31.3931295,59.8416 31.7845324,64.0084667 32.9199281,64.4130667 C36.4832374,65.6828667 36.8648201,68.4366667 38.1372302,69.2808667 C39.4096403,70.1255333 45.6005396,67.3787333 45.8998201,66.5294 C46.4511511,64.9632667 45.572482,64.1522 45.8147122,62.0424 C46.1116547,59.4603333 52.007482,56.0317333 53.1952518,52.4762 C53.9406475,50.2436667 53.498741,45.4412 52.986223,41.3877333 C52.5588129,40.3643333 51.9494964,39.6764667 51.3004317,39.0656 L51.3004317,39.0656 Z M22.1547122,44.6240667 C20.4923022,45.7300667 18.3636691,44.9152667 17.0220504,44.2166667 C15.6808993,43.5185333 15.8001439,41.0932667 16.9056115,40.8412667 C17.9259712,40.6084 23.3967266,42.4298 23.4958633,42.7032667 C23.7582014,43.4308 22.6868705,44.2703333 22.1547122,44.6240667 L22.1547122,44.6240667 Z M45.254964,44.2166667 C43.9138129,44.9152667 41.7847122,45.7300667 40.1227698,44.6240667 C39.5906115,44.2703333 38.5192806,43.4308 38.7816187,42.7032667 C38.8802878,42.4298 44.3510432,40.6084 45.3718705,40.8412667 C46.4773381,41.0932667 46.5965827,43.5185333 45.254964,44.2166667 L45.254964,44.2166667 Z" id="Fill-4" sketch:type="MSShapeGroup"></path>
            </g>
        </g>
    </g>
</svg>