<?xml version="1.0" encoding="UTF-8" standalone="no"?>
<svg width="12px" height="12px" viewBox="0 0 12 12" version="1.1" xmlns="http://www.w3.org/2000/svg" xmlns:xlink="http://www.w3.org/1999/xlink" xmlns:sketch="http://www.bohemiancoding.com/sketch/ns">
    <!-- Generator: Sketch 3.3.3 (12072) - http://www.bohemiancoding.com/sketch -->
    <title>cog</title>
    <desc>Created with Sketch.</desc>
    <defs></defs>
    <g id="Design-v2" stroke="none" stroke-width="1" fill="none" fill-rule="evenodd" sketch:type="MSPage">
        <g id="Movie-Details" sketch:type="MSArtboardGroup" transform="translate(-22.000000, -438.000000)" fill="#5F5F5F">
            <g id="sidenav" sketch:type="MSLayerGroup" transform="translate(19.000000, 194.000000)">
                <g id="you" transform="translate(0.000000, 180.000000)" sketch:type="MSShapeGroup">
                    <path d="M13.44624,70 C13.44624,69.71872 13.4168,69.4456 13.36816,69.17872 L14.89248,68.29936 L13.39248,65.70064 L11.86816,66.58128 C11.45248,66.22624 10.97184,65.94752 10.44624,65.76128 L10.44624,64 L7.44624,64 L7.44624,65.76128 C6.92064,65.94752 6.44,66.22624 6.02496,66.58128 L4.5,65.70064 L3,68.29936 L4.52496,69.18 C4.47568,69.4456 4.44688,69.71872 4.44688,70 C4.44688,70.28064 4.47568,70.55376 4.52496,70.82 L3,71.70064 L4.5,74.29936 L6.02496,73.41872 C6.44,73.77376 6.92064,74.05248 7.44624,74.23808 L7.44624,76 L10.44624,76 L10.44624,74.23872 C10.9712,74.05248 11.45248,73.7744 11.86688,73.41936 L13.39184,74.3 L14.89184,71.70128 L13.36752,70.82192 C13.4168,70.5544 13.44624,70.28064 13.44624,70 L13.44624,70 Z M8.94624,72.24992 C7.70304,72.24992 6.69632,71.2432 6.69632,70 C6.69632,68.7568 7.70304,67.75008 8.94624,67.75008 C10.18944,67.75008 11.19616,68.7568 11.19616,70 C11.19616,71.2432 10.18944,72.24992 8.94624,72.24992 L8.94624,72.24992 Z" id="cog"></path>
                </g>
            </g>
        </g>
    </g>
</svg>