<?xml version="1.0" encoding="UTF-8" standalone="no"?>
<svg width="75px" height="90px" viewBox="0 0 75 90" version="1.1" xmlns="http://www.w3.org/2000/svg" xmlns:xlink="http://www.w3.org/1999/xlink" xmlns:sketch="http://www.bohemiancoding.com/sketch/ns">
    <!-- Generator: Sketch 3.4 (15575) - http://www.bohemiancoding.com/sketch -->
    <title>Fill 1</title>
    <desc>Created with Sketch.</desc>
    <defs></defs>
    <g id="Page-1" stroke="none" stroke-width="1" fill="none" fill-rule="evenodd" sketch:type="MSPage">
        <g sketch:type="MSLayerGroup" id="Fill-1" fill="#222222">
            <path d="M3.3322,42.6741 C3.6652,36.6761 4.7762,31.2891 6.6642,26.5131 C8.5532,21.7361 11.0242,17.6541 14.0792,14.2671 C17.1332,10.8791 20.6872,8.2961 24.7422,6.5191 C28.7962,4.7421 33.1562,3.8531 37.8212,3.8531 C43.3752,3.8531 48.2622,4.8811 52.4832,6.9361 C56.7042,8.9911 60.2302,11.7951 63.0632,15.3501 C65.8952,18.9041 68.0332,23.0411 69.4772,27.7621 C70.9212,32.4831 71.6432,37.4531 71.6432,42.6741 L3.3322,42.6741 Z M73.2262,29.0121 C71.8372,23.5691 69.6162,18.7371 66.5612,14.5171 C63.5072,10.2961 59.5642,6.9081 54.7322,4.3531 C49.9002,1.7981 44.1522,0.5211 37.4882,0.5211 C32.7112,0.5211 28.0462,1.5211 23.4922,3.5201 C18.9382,5.5191 14.9392,8.4351 11.4962,12.2671 C8.0532,16.0991 5.2762,20.7921 3.1652,26.3461 C1.0552,31.9001 0.0002,38.2311 0.0002,45.3401 C0.0002,51.6711 0.7222,57.5861 2.1662,63.0841 C3.6102,68.5821 5.8312,73.3581 8.8302,77.4131 C11.8292,81.4671 15.6892,84.6051 20.4102,86.8261 C25.1302,89.0481 30.8232,90.1031 37.4882,89.9921 C47.2622,89.9921 55.4822,87.2431 62.1462,81.7451 C68.8112,76.2461 72.7542,68.4991 73.9762,58.5021 L70.6432,58.5021 C69.1992,67.9441 65.5062,75.0251 59.5642,79.7451 C53.6212,84.4661 46.1512,86.8261 37.1542,86.8261 C31.0452,86.8261 25.8802,85.7711 21.6592,83.6611 C17.4392,81.5501 13.9952,78.6621 11.3292,74.9971 C8.6642,71.3311 6.6922,67.0271 5.4152,62.0841 C4.1372,57.1421 3.4432,51.7821 3.3322,46.0061 L74.9752,46.0061 C75.1972,40.1191 74.6142,34.4551 73.2262,29.0121 L73.2262,29.0121 Z" sketch:type="MSShapeGroup"></path>
        </g>
    </g>
</svg>