<?xml version="1.0" encoding="UTF-8" standalone="no"?>
<svg width="18px" height="12px" viewBox="0 0 18 12" version="1.1" xmlns="http://www.w3.org/2000/svg" xmlns:xlink="http://www.w3.org/1999/xlink" xmlns:sketch="http://www.bohemiancoding.com/sketch/ns">
    <!-- Generator: Sketch 3.3.3 (12072) - http://www.bohemiancoding.com/sketch -->
    <title>Imported Layers Copy 8</title>
    <desc>Created with Sketch.</desc>
    <defs></defs>
    <g id="Design-v2" stroke="none" stroke-width="1" fill="none" fill-rule="evenodd" sketch:type="MSPage">
        <g id="TV-Show-Details" sketch:type="MSArtboardGroup" transform="translate(-369.000000, -1373.000000)" fill="#FFFFFF">
            <g id="eyes" sketch:type="MSLayerGroup" transform="translate(369.000000, 1185.000000)">
                <path d="M8.801,188 C4.801,188 1.359,190.48 0,194 C1.359,197.52 4.801,200 8.801,200 C12.801,200 16.238,197.52 17.602,194 C16.238,190.48 12.801,188 8.801,188 L8.801,188 Z M8.801,198 C6.559,198 4.801,196.238 4.801,194 C4.801,191.762 6.559,190 8.801,190 C11.039,190 12.801,191.762 12.801,194 C12.801,196.238 11.039,198 8.801,198 L8.801,198 Z M8.801,191.602 C7.441,191.602 6.398,192.641 6.398,194 C6.398,195.359 7.441,196.398 8.801,196.398 C10.16,196.398 11.199,195.359 11.199,194 C11.199,192.641 10.16,191.602 8.801,191.602 L8.801,191.602 Z" id="Imported-Layers-Copy-8" sketch:type="MSShapeGroup"></path>
            </g>
        </g>
    </g>
</svg>