<?xml version="1.0" encoding="UTF-8" standalone="no"?>
<svg width="15px" height="14px" viewBox="0 0 15 14" version="1.1" xmlns="http://www.w3.org/2000/svg" xmlns:xlink="http://www.w3.org/1999/xlink" xmlns:sketch="http://www.bohemiancoding.com/sketch/ns">
    <!-- Generator: Sketch 3.3.3 (12072) - http://www.bohemiancoding.com/sketch -->
    <title>film</title>
    <desc>Created with Sketch.</desc>
    <defs></defs>
    <g id="Design-v2" stroke="none" stroke-width="1" fill="none" fill-rule="evenodd" sketch:type="MSPage">
        <g id="Movie-Details" sketch:type="MSArtboardGroup" transform="translate(-21.000000, -275.000000)" fill="#5F5F5F">
            <g id="sidenav" sketch:type="MSLayerGroup" transform="translate(19.000000, 194.000000)">
                <g id="discover" transform="translate(0.000000, 46.500000)" sketch:type="MSShapeGroup">
                    <path d="M15.2369439,35 L15.2369439,36.3024805 L13.7693988,36.3024805 L13.7693988,35 L12.8400446,35 L12.8400446,36.9102683 L5.81714402,36.9102683 L5.81714402,35 L4.89052269,35 L4.89052269,36.3024805 L3.42807885,36.3024805 L3.42807885,35 L2.5,35 L2.5,47.5121208 L3.42807885,47.5121208 L3.42807885,46.1968869 L4.89125145,46.1968869 L4.89125145,47.5121208 L5.81787278,47.5121208 L5.81787278,45.6133305 L12.8407733,45.6133305 L12.8407733,47.5121208 L13.7701275,47.5121208 L13.7701275,46.1976157 L15.2376727,46.1976157 L15.2376727,47.5128495 L16.1650228,47.5128495 L16.1650228,35.0007288 L15.2369439,35 Z M4.89052269,45.4908984 L3.42807885,45.4908984 L3.42807885,44.1771221 L4.89125145,44.1771221 L4.89125145,45.4908984 L4.89052269,45.4908984 Z M4.89052269,43.2889429 L3.42807885,43.2889429 L3.42807885,41.9859159 L4.89125145,41.9859159 L4.89125145,43.2889429 L4.89052269,43.2889429 Z M4.89052269,40.8650794 L3.42807885,40.8650794 L3.42807885,39.5640564 L4.89125145,39.5640564 L4.89125145,40.8650794 L4.89052269,40.8650794 Z M4.89052269,38.4197173 L3.42807885,38.4197173 L3.42807885,37.116508 L4.89125145,37.116508 L4.89125145,38.4197173 L4.89052269,38.4197173 Z M5.81714402,44.1771221 L5.81714402,38.4197173 L12.8400446,38.4197173 L12.8400446,44.1771221 L5.81714402,44.1771221 Z M15.2369439,45.4908984 L13.7693988,45.4908984 L13.7693988,44.1771221 L15.2369439,44.1771221 L15.2369439,45.4908984 Z M15.2369439,43.2889429 L13.7693988,43.2889429 L13.7693988,41.9859159 L15.2369439,41.9859159 L15.2369439,43.2889429 Z M15.2369439,40.8650794 L13.7693988,40.8650794 L13.7693988,39.5640564 L15.2369439,39.5640564 L15.2369439,40.8650794 Z M15.2369439,38.4197173 L13.7693988,38.4197173 L13.7693988,37.116508 L15.2369439,37.116508 L15.2369439,38.4197173 Z" id="film"></path>
                </g>
            </g>
        </g>
    </g>
</svg>