<?xml version="1.0" encoding="UTF-8" standalone="no"?>
<svg width="12px" height="13px" viewBox="0 0 12 13" version="1.1" xmlns="http://www.w3.org/2000/svg" xmlns:xlink="http://www.w3.org/1999/xlink" xmlns:sketch="http://www.bohemiancoding.com/sketch/ns">
    <!-- Generator: Sketch 3.3.3 (12072) - http://www.bohemiancoding.com/sketch -->
    <title>fire</title>
    <desc>Created with Sketch.</desc>
    <defs></defs>
    <g id="Design-v2" stroke="none" stroke-width="1" fill="none" fill-rule="evenodd" sketch:type="MSPage">
        <g id="Movie-Details" sketch:type="MSArtboardGroup" transform="translate(-22.000000, -201.000000)" fill="#9012FE">
            <g id="sidenav" sketch:type="MSLayerGroup" transform="translate(19.000000, 194.000000)">
                <path d="M14.4141867,16.1024533 C14.4141867,17.48336 13.9250133,18.59248 13.1066667,19.4016533 C12.7499733,18.5890667 12.21088,18.46256 12.0333867,16.9466133 C12.0133333,16.7757333 11.96256,16.6125333 11.8650667,16.4841067 C11.2709333,15.7016 11.6308267,17.9215467 10.84576,17.00912 C10.3442133,16.4258667 9.35093333,12.1016 9.17344,13.5674133 C9.12842667,13.9398933 7.66581333,18.2157333 7.18922667,16.8858133 C6.95754667,16.2349333 6.73909333,15.6749333 6.52170667,15.4581867 C6.27168,15.2098667 6.16992,16.5683733 5.6816,17.2723733 C5.33258667,17.7715733 4.72842667,18.62576 4.34741333,19.4383467 C3.50581333,18.62576 3,17.5040533 3,16.1007467 C3,14.87664 4.39925333,12.9325333 5.0384,11.99152 C6.29749333,10.1382933 5.75498667,9.49253333 6.05749333,9.79333333 C6.3216,10.0557333 6.58421333,10.7341333 6.86752,11.5241067 C7.44330667,13.1366933 8.33333333,7.5 9.27242667,7.5 C9.94421333,7.5 8.70496,8.48154667 11.2984533,11.6723733 C11.7867733,12.2733333 12.1441067,11.7549333 12.00992,11.2000533 C11.8699733,10.62 12.1426133,10.1033067 12.39008,10.78 C12.45664,10.9624 12.67744,11.3973867 12.7399467,11.5974933 C13.2308267,13.18256 14.4141867,14.5024533 14.4141867,16.1024533 L14.4141867,16.1024533 Z" id="fire" sketch:type="MSShapeGroup"></path>
            </g>
        </g>
    </g>
</svg>