<?xml version="1.0" encoding="UTF-8" standalone="no"?>
<svg width="75px" height="75px" viewBox="0 0 75 75" version="1.1" xmlns="http://www.w3.org/2000/svg" xmlns:xlink="http://www.w3.org/1999/xlink" xmlns:sketch="http://www.bohemiancoding.com/sketch/ns">
    <!-- Generator: Sketch 3.4 (15575) - http://www.bohemiancoding.com/sketch -->
    <title>gauge</title>
    <desc>Created with Sketch.</desc>
    <defs></defs>
    <g id="Page-1" stroke="none" stroke-width="1" fill="none" fill-rule="evenodd" sketch:type="MSPage">
        <g id="gauge" sketch:type="MSLayerGroup" fill="#000000">
            <path d="M41.379,35.207 C40.078,32.75 26.641,17.055 26.188,17.297 C25.734,17.535 31.176,37.469 32.48,39.926 C33.781,42.383 36.832,43.316 39.285,42.016 C41.746,40.711 42.684,37.664 41.379,35.207 L41.379,35.207 Z" id="Fill-1" sketch:type="MSShapeGroup"></path>
            <path d="M58.633,37.227 L54.664,37.227 C53.887,37.227 53.258,36.598 53.258,35.82 C53.258,35.043 53.887,34.414 54.664,34.414 L58.633,34.414 C59.41,34.414 60.039,35.043 60.039,35.82 C60.039,36.598 59.406,37.227 58.633,37.227 L58.633,37.227 Z" id="Fill-2" sketch:type="MSShapeGroup"></path>
            <path d="M37.5,0 C16.789,0 0,16.789 0,37.5 C0,58.211 16.789,75 37.5,75 C58.211,75 75,58.211 75,37.5 C75,16.789 58.211,0 37.5,0 L37.5,0 Z M37.5,9.523 C52.949,9.523 65.477,22.047 65.477,37.5 C65.477,39.387 65.285,41.23 64.93,43.012 L49.09,43.012 C47.77,46.812 43.09,49.625 37.5,49.625 C31.91,49.625 27.227,46.809 25.906,43.012 L10.07,43.012 C9.715,41.23 9.523,39.387 9.523,37.5 C9.523,22.047 22.051,9.523 37.5,9.523 L37.5,9.523 Z" id="Fill-3" sketch:type="MSShapeGroup"></path>
            <path d="M51.227,29.324 C50.742,29.324 50.27,29.07 50.008,28.621 C49.621,27.949 49.848,27.09 50.523,26.699 L53.961,24.715 C54.633,24.328 55.496,24.555 55.883,25.23 C56.27,25.902 56.043,26.762 55.367,27.152 L51.93,29.137 C51.707,29.262 51.465,29.324 51.227,29.324 L51.227,29.324 Z" id="Fill-4" sketch:type="MSShapeGroup"></path>
            <path d="M37.5,22.406 C36.723,22.406 36.094,21.777 36.094,21 L36.094,17.031 C36.094,16.254 36.723,15.625 37.5,15.625 C38.277,15.625 38.906,16.254 38.906,17.031 L38.906,21 C38.906,21.777 38.277,22.406 37.5,22.406 L37.5,22.406 Z" id="Fill-5" sketch:type="MSShapeGroup"></path>
            <path d="M45.379,24.41 C45.141,24.41 44.898,24.348 44.676,24.223 C44.004,23.836 43.773,22.973 44.16,22.301 L46.145,18.863 C46.531,18.191 47.395,17.961 48.066,18.348 C48.738,18.734 48.969,19.598 48.582,20.27 L46.598,23.707 C46.336,24.156 45.863,24.41 45.379,24.41 L45.379,24.41 Z" id="Fill-6" sketch:type="MSShapeGroup"></path>
            <path d="M20.133,37.449 L16.164,37.449 C15.387,37.449 14.758,36.82 14.758,36.043 C14.758,35.266 15.387,34.637 16.164,34.637 L20.133,34.637 C20.91,34.637 21.539,35.266 21.539,36.043 C21.539,36.82 20.91,37.449 20.133,37.449 L20.133,37.449 Z" id="Fill-7" sketch:type="MSShapeGroup"></path>
            <path d="M23.57,29.973 C23.332,29.973 23.09,29.91 22.867,29.785 L19.43,27.801 C18.758,27.414 18.527,26.551 18.914,25.879 C19.305,25.207 20.164,24.977 20.836,25.363 L24.273,27.348 C24.945,27.738 25.176,28.598 24.789,29.27 C24.527,29.719 24.055,29.973 23.57,29.973 L23.57,29.973 Z" id="Fill-8" sketch:type="MSShapeGroup"></path>
        </g>
    </g>
</svg>