<?xml version="1.0" encoding="UTF-8" standalone="no"?>
<svg width="62px" height="62px" viewBox="0 0 62 62" version="1.1" xmlns="http://www.w3.org/2000/svg" xmlns:xlink="http://www.w3.org/1999/xlink" xmlns:sketch="http://www.bohemiancoding.com/sketch/ns">
    <!-- Generator: Sketch 3.4 (15575) - http://www.bohemiancoding.com/sketch -->
    <title>Page 1</title>
    <desc>Created with Sketch.</desc>
    <defs></defs>
    <g id="Page-1" stroke="none" stroke-width="1" fill="none" fill-rule="evenodd" sketch:type="MSPage">
        <path d="M30.6144035,61.2667654 C13.2824035,61.1957654 -0.490596487,47.0047654 0.0134035127,29.7157654 C0.493403513,13.1957654 14.0204035,-0.116234632 30.8604035,0.000765367869 C47.8214035,0.117765368 61.4114035,13.9777654 61.2434035,30.8797654 C61.0754035,47.7357654 47.2634035,61.4387654 30.6144035,61.2667654 L30.6144035,61.2667654 Z M31.2674035,26.2747654 C28.1614035,26.3757654 25.3884035,27.4497654 22.8254035,29.1457654 C22.6104035,29.2897654 22.3994035,29.4657654 22.2354035,29.6647654 C21.6494035,30.3797654 21.8524035,30.9857654 22.7314035,31.2117654 C23.0714035,31.3017654 23.4194035,31.3607654 23.7514035,31.4657654 C25.1614035,31.9147654 25.5404035,32.6067654 25.1814035,34.0677654 C24.3134035,37.6177654 23.4274035,41.1647654 22.5714035,44.7157654 C21.9384035,47.3527654 23.2744035,49.5087654 25.8064035,49.7037654 C29.5524035,49.9927654 32.8954035,48.7587654 35.9034035,46.5867654 C36.2244035,46.3567654 36.4704035,45.7857654 36.4344035,45.3997654 C36.4154035,45.1647654 35.7984035,44.9737654 35.4344035,44.7857654 C35.2824035,44.7077654 35.0994035,44.6927654 34.9274035,44.6457654 C33.2514035,44.1957654 32.8174035,43.4967654 33.2204035,41.8247654 C34.0604035,38.3607654 34.9544035,34.9037654 35.7394035,31.4267654 C35.9274035,30.6027654 35.9384035,29.6567654 35.7314035,28.8447654 C35.2674035,27.0397654 33.6844035,26.2037654 31.2674035,26.2747654 L31.2674035,26.2747654 Z M39.0604035,15.6567654 C39.0634035,12.4577654 36.5914035,9.93476537 33.4314035,9.91076537 C30.2164035,9.88776537 27.6384035,12.4427654 27.6654035,15.6177654 C27.6924035,18.7817654 30.2084035,21.2667654 33.3954035,21.2787654 C36.5054035,21.2857654 39.0524035,18.7547654 39.0604035,15.6567654 L39.0604035,15.6567654 Z" fill="#000000" sketch:type="MSShapeGroup"></path>
    </g>
</svg>