<?xml version="1.0" encoding="UTF-8" standalone="no"?>
<svg width="22px" height="46px" viewBox="0 0 22 46" version="1.1" xmlns="http://www.w3.org/2000/svg" xmlns:xlink="http://www.w3.org/1999/xlink" xmlns:sketch="http://www.bohemiancoding.com/sketch/ns">
    <!-- Generator: Sketch 3.3.3 (12072) - http://www.bohemiancoding.com/sketch -->
    <title>oscar</title>
    <desc>Created with Sketch.</desc>
    <defs></defs>
    <g id="Page-1" stroke="none" stroke-width="1" fill="none" fill-rule="evenodd" sketch:type="MSPage">
        <path d="M20.319,45.036 L1.424,45.036 C0.639,45.036 0,44.398 0,43.613 L0,41.801 C0,41.016 0.639,40.377 1.424,40.377 L3.332,40.377 L4.373,37.393 C4.631,36.486 5.689,35.866 6.644,35.742 L7.894,34.492 C8.103,34.283 8.146,33.959 7.999,33.703 C6.765,31.549 7.19,28.63 7.552,27.081 C7.604,26.859 7.545,26.625 7.4,26.484 C5.217,24.36 6.201,20.893 6.244,20.747 L6.279,20.65 C6.402,20.373 6.485,20.06 6.526,19.72 C6.68,18.45 5.927,17.364 5.465,16.83 C3.679,14.765 4.059,11.263 4.444,9.359 C4.621,8.48 5.269,7.781 6.136,7.534 L8.8,6.773 C8.165,6.061 7.765,5.029 7.765,3.882 C7.765,1.741 9.159,0 10.871,0 C12.584,0 13.977,1.741 13.977,3.882 C13.977,5.029 13.577,6.061 12.943,6.773 L15.606,7.534 C16.473,7.781 17.122,8.48 17.298,9.359 C17.684,11.263 18.063,14.765 16.277,16.83 C15.815,17.364 15.063,18.45 15.216,19.72 C15.258,20.06 15.341,20.373 15.463,20.65 L15.499,20.747 C15.542,20.893 16.525,24.36 14.342,26.485 C14.198,26.625 14.138,26.859 14.19,27.081 C14.553,28.63 14.977,31.549 13.743,33.703 C13.596,33.959 13.64,34.283 13.848,34.492 L15.098,35.742 C16.053,35.867 17.113,36.49 17.383,37.435 L18.411,40.377 L20.319,40.377 C21.104,40.377 21.742,41.016 21.742,41.801 L21.742,43.613 C21.742,44.398 21.104,45.036 20.319,45.036 L20.319,45.036 Z M1.553,43.483 L20.189,43.483 L20.189,41.93 L1.553,41.93 L1.553,43.483 Z M4.976,40.377 L16.766,40.377 L15.903,37.905 C15.819,37.615 15.233,37.272 14.754,37.272 L6.989,37.272 C6.509,37.272 5.923,37.615 5.852,37.862 L4.976,40.377 L4.976,40.377 Z M8.863,35.718 L12.879,35.718 L12.75,35.59 C12.047,34.887 11.902,33.793 12.396,32.931 C13.401,31.175 12.928,28.503 12.678,27.436 C12.502,26.684 12.724,25.893 13.258,25.373 C14.677,23.991 14.109,21.566 14.02,21.224 C13.848,20.821 13.731,20.379 13.675,19.907 C13.507,18.526 14.015,17.072 15.103,15.814 C16.505,14.193 16.041,10.975 15.776,9.666 C15.714,9.359 15.486,9.114 15.18,9.027 L11.551,7.99 C11.109,7.863 10.633,7.863 10.191,7.99 L6.563,9.027 C6.257,9.114 6.028,9.359 5.966,9.666 C5.702,10.975 5.237,14.193 6.64,15.814 C7.728,17.072 8.235,18.526 8.068,19.907 C8.011,20.378 7.895,20.82 7.723,21.223 C7.637,21.56 7.074,24.001 8.484,25.372 C9.018,25.893 9.24,26.684 9.064,27.436 C8.814,28.503 8.341,31.175 9.347,32.931 C9.841,33.793 9.695,34.887 8.992,35.59 L8.863,35.718 L8.863,35.718 Z M10.871,1.553 C10.03,1.553 9.318,2.62 9.318,3.882 C9.318,5.145 10.03,6.212 10.871,6.212 C11.713,6.212 12.424,5.145 12.424,3.882 C12.424,2.62 11.713,1.553 10.871,1.553 L10.871,1.553 Z M15.53,38.824 C15.53,38.396 15.182,38.048 14.754,38.048 L6.989,38.048 C6.56,38.048 6.212,38.396 6.212,38.824 C6.212,39.253 6.56,39.601 6.989,39.601 L14.754,39.601 C15.182,39.601 15.53,39.253 15.53,38.824 L15.53,38.824 Z" id="oscar" fill="#010101" sketch:type="MSShapeGroup"></path>
    </g>
</svg>