<?xml version="1.0" encoding="UTF-8" standalone="no"?>
<svg width="13px" height="13px" viewBox="0 0 13 13" version="1.1" xmlns="http://www.w3.org/2000/svg" xmlns:xlink="http://www.w3.org/1999/xlink" xmlns:sketch="http://www.bohemiancoding.com/sketch/ns">
    <!-- Generator: Sketch 3.3.3 (12072) - http://www.bohemiancoding.com/sketch -->
    <title>television</title>
    <desc>Created with Sketch.</desc>
    <defs></defs>
    <g id="Design-v2" stroke="none" stroke-width="1" fill="none" fill-rule="evenodd" sketch:type="MSPage">
        <g id="Movie-Details" sketch:type="MSArtboardGroup" transform="translate(-22.000000, -303.000000)" fill="#5F5F5F">
            <g id="sidenav" sketch:type="MSLayerGroup" transform="translate(19.000000, 194.000000)">
                <g id="discover" transform="translate(0.000000, 46.500000)" sketch:type="MSShapeGroup">
                    <g id="television" transform="translate(3.000000, 63.000000)">
                        <path d="M12.1462786,3.40471368 L0.720309474,3.40471368 C0.447400702,3.40471368 0.226528421,3.62558596 0.226528421,3.89849474 L0.226528421,11.9254063 C0.226528421,12.1983151 0.447400702,12.4191874 0.720309474,12.4191874 L12.1462786,12.4191874 C12.4191874,12.4191874 12.6400596,12.1983151 12.6400596,11.9254063 L12.6400596,3.89962596 C12.6400596,3.62558596 12.4191874,3.40471368 12.1462786,3.40471368 L12.1462786,3.40471368 Z M10.218666,11.1442933 C10.218666,11.2879593 10.1015839,11.4050414 9.95791789,11.4050414 L1.52885474,11.4050414 C1.38518877,11.4050414 1.26810667,11.2879593 1.26810667,11.1442933 L1.26810667,4.70817123 C1.26810667,4.56478807 1.38518877,4.44770596 1.52885474,4.44770596 L9.95791789,4.44770596 C10.1015839,4.44770596 10.218666,4.56478807 10.218666,4.70817123 L10.218666,11.1442933 Z" id="Fill-1"></path>
                        <path d="M6.34873474,3.11653333 L3.94487509,0.543555088 C3.82355088,0.414312281 3.83005544,0.209842807 3.96042947,0.0882357895 C4.08967228,-0.0330884211 4.29414175,-0.0254526316 4.41546596,0.103790175 L6.36428912,2.19062316 L8.45875789,0.096154386 C8.58460702,-0.0296947368 8.78794526,-0.0296947368 8.91407719,0.096154386 C9.03992632,0.222003509 9.03992632,0.425341754 8.91407719,0.551190877 L6.34873474,3.11653333 Z" id="Fill-2"></path>
                    </g>
                </g>
            </g>
        </g>
    </g>
</svg>