<?xml version="1.0" encoding="UTF-8" standalone="no"?>
<svg width="69px" height="46px" viewBox="0 0 69 46" version="1.1" xmlns="http://www.w3.org/2000/svg" xmlns:xlink="http://www.w3.org/1999/xlink" xmlns:sketch="http://www.bohemiancoding.com/sketch/ns">
    <!-- Generator: Sketch 3.3.3 (12072) - http://www.bohemiancoding.com/sketch -->
    <title>television</title>
    <desc>Created with Sketch.</desc>
    <defs></defs>
    <g id="Page-1" stroke="none" stroke-width="1" fill="none" fill-rule="evenodd" sketch:type="MSPage">
        <path d="M12.508,42.329 L42.628,42.329 L42.628,40.696 L12.508,40.696 L12.508,42.329 Z M9.798,37.994 L45.331,37.994 L45.331,45.04 L9.798,45.04 L9.798,37.994 Z M58.016,8.747 L65.438,37.918 L51.993,41.339 L44.572,12.173 L58.016,8.747 L58.016,8.747 Z M34.773,17.939 C34.773,21.92 31.546,25.147 27.564,25.147 C23.581,25.147 20.355,21.92 20.355,17.939 C20.355,13.956 23.581,10.73 27.564,10.73 C31.546,10.725 34.773,13.956 34.773,17.939 L34.773,17.939 Z M2.706,33.166 L2.706,2.706 L52.333,2.706 L52.333,7.399 L48.577,8.354 L48.577,5.91 L6.461,5.91 L6.461,29.958 L46.305,29.958 L47.12,33.161 L2.706,33.161 L2.706,33.166 L2.706,33.166 Z M59.972,5.457 L55.039,6.711 L55.039,0 L0,0 L0,35.872 L47.808,35.872 L50.034,44.629 L68.728,39.872 L59.972,5.457 L59.972,5.457 Z M25.781,14.029 L31.41,17.939 L25.781,21.844 L25.781,14.029 L25.781,14.029 Z M57.229,11.82 L57.912,14.499 L55.234,15.183 L54.55,12.503 L57.229,11.82 L57.229,11.82 Z M53.315,12.816 L53.998,15.494 L51.319,16.178 L50.636,13.499 L53.315,12.816 L53.315,12.816 Z M49.409,13.816 L50.092,16.495 L47.414,17.178 L46.73,14.499 L49.409,13.816 L49.409,13.816 Z M58.225,15.757 L58.908,18.436 L56.229,19.119 L55.545,16.441 L58.225,15.757 L58.225,15.757 Z M54.32,16.757 L55.003,19.437 L52.323,20.119 L51.64,17.441 L54.32,16.757 L54.32,16.757 Z M50.414,17.749 L51.097,20.427 L48.418,21.111 L47.735,18.431 L50.414,17.749 L50.414,17.749 Z M59.206,19.608 L59.89,22.288 L57.211,22.97 L56.528,20.292 L59.206,19.608 L59.206,19.608 Z M55.301,20.603 L55.984,23.283 L53.306,23.966 L52.622,21.287 L55.301,20.603 L55.301,20.603 Z M51.391,21.604 L52.07,24.283 L49.391,24.961 L48.713,22.283 L51.391,21.604 L51.391,21.604 Z M60.189,23.463 L60.867,26.143 L58.189,26.822 L57.51,24.142 L60.189,23.463 L60.189,23.463 Z M56.288,24.46 L56.971,27.138 L54.292,27.822 L53.608,25.142 L56.288,24.46 L56.288,24.46 Z M52.373,25.455 L53.057,28.133 L50.377,28.817 L49.695,26.138 L52.373,25.455 L52.373,25.455 Z" id="television" fill="#000000" sketch:type="MSShapeGroup"></path>
    </g>
</svg>