<?xml version="1.0" encoding="UTF-8" standalone="no"?>
<svg width="27px" height="18px" viewBox="0 0 27 18" version="1.1" xmlns="http://www.w3.org/2000/svg" xmlns:xlink="http://www.w3.org/1999/xlink" xmlns:sketch="http://www.bohemiancoding.com/sketch/ns">
    <!-- Generator: Sketch 3.3.3 (12072) - http://www.bohemiancoding.com/sketch -->
    <title>Imported Layers Copy 11</title>
    <desc>Created with Sketch.</desc>
    <defs></defs>
    <g id="Design-v2" stroke="none" stroke-width="1" fill="none" fill-rule="evenodd" sketch:type="MSPage">
        <g id="TV-Show-Details" sketch:type="MSArtboardGroup" transform="translate(-1289.000000, -1179.000000)" fill="#FFFFFF">
            <path d="M1302.801,1179 C1296.801,1179 1291.638,1182.72 1289.5995,1188 C1291.638,1193.28 1296.801,1197 1302.801,1197 C1308.801,1197 1313.9565,1193.28 1316.0025,1188 C1313.9565,1182.72 1308.801,1179 1302.801,1179 L1302.801,1179 Z M1302.801,1194 C1299.438,1194 1296.801,1191.357 1296.801,1188 C1296.801,1184.643 1299.438,1182 1302.801,1182 C1306.158,1182 1308.801,1184.643 1308.801,1188 C1308.801,1191.357 1306.158,1194 1302.801,1194 L1302.801,1194 Z" id="Imported-Layers-Copy-11" sketch:type="MSShapeGroup"></path>
        </g>
    </g>
</svg>