<?xml version="1.0" encoding="UTF-8" standalone="no"?>
<svg width="75px" height="75px" viewBox="0 0 75 75" version="1.1" xmlns="http://www.w3.org/2000/svg" xmlns:xlink="http://www.w3.org/1999/xlink">
    <!-- Generator: Sketch 39.1 (31720) - http://www.bohemiancoding.com/sketch -->
    <title>zoom</title>
    <desc>Created with Sketch.</desc>
    <defs></defs>
    <g id="Page-1" stroke="none" stroke-width="1" fill="none" fill-rule="evenodd">
        <g id="zoom" transform="translate(-1.000000, 0.000000)" fill="#000000">
            <path d="M55.27,47.227 C64.84,33.766 61.68,15.102 48.223,5.531 C34.762,-4.031 16.098,-0.879 6.531,12.582 C-3.035,26.039 0.117,44.703 13.582,54.27 C23.953,61.645 37.855,61.645 48.227,54.27 L67.492,73.535 C69.438,75.484 72.594,75.484 74.535,73.535 C76.488,71.59 76.488,68.438 74.535,66.492 L55.27,47.227 Z M30.902,51.258 C19.105,51.258 9.543,41.691 9.543,29.906 C9.543,18.109 19.109,8.547 30.902,8.547 C42.688,8.547 52.25,18.109 52.25,29.906 C52.254,41.695 42.691,51.258 30.902,51.258 L30.902,51.258 Z" id="Fill-1"></path>
            <polygon id="Fill-2" points="34.73 15.496 27.062 15.496 27.062 26.074 16.48 26.074 16.48 33.738 27.062 33.738 27.062 44.312 34.73 44.312 34.73 33.738 45.309 33.738 45.309 26.074 34.73 26.074"></polygon>
        </g>
    </g>
</svg>